<?xml version="1.0" encoding="utf-8"?>
<!-- Generator: Adobe Illustrator 23.0.6, SVG Export Plug-In . SVG Version: 6.00 Build 0)  -->
<svg version="1.1" id="Capa_1" xmlns="http://www.w3.org/2000/svg" xmlns:xlink="http://www.w3.org/1999/xlink" x="0px" y="0px"
	 viewBox="0 0 170.4 50" style="enable-background:new 0 0 170.4 50;" xml:space="preserve">
<style type="text/css">
	.st0{fill:#4F992A;}
	.st1{fill:#006837;}
	.st2{fill:#FFFFFF;}
</style>
<g>
	<path class="st0" d="M159.7,50h-149C4.8,50,0,45.2,0,39.3V10.7C0,4.8,4.8,0,10.7,0h149c5.9,0,10.7,4.8,10.7,10.7v28.6
		C170.4,45.2,165.6,50,159.7,50z"/>
</g>
<g>
	<g>
		<g>
			<path class="st1" d="M131.3,34.3h19.1c1.8,0-1.5-7.8-1.5-7.8c-0.2-0.5-0.7-0.8-1.1-0.9l-3-1.4l-1.4-1.2l-2.3,2.3h0l-0.3,0h0
				l-2.3-2.3l-1.4,1.2l-3,1.4c-0.4,0.2-0.9,0.5-1.1,0.9C132.8,26.5,129.6,34.3,131.3,34.3z"/>
			<path class="st1" d="M140.9,23.6c2.3,0,5.4-2.9,5.4-7.7c0-3.3-1.6-5.3-5.4-5.3c-3.9,0-5.5,2-5.4,5.3
				C135.5,20.7,138.2,23.6,140.9,23.6z M139.8,17.3c2.8,0.3,5.3-3.6,5.2-0.1c0,2.1-2,5.3-4.1,5.3c-2.3,0-3.8-2.6-4.1-5.3
				C136.4,14.3,141.7,14.9,139.8,17.3z"/>
			<path class="st1" d="M161.9,5.3h-42c-1.2,0-2.1,0.9-2.1,2.1v30c0,1.2,0.9,2.1,2.1,2.1h42c1.2,0,2.1-0.9,2.1-2.1v-30
				C164,6.3,163.1,5.3,161.9,5.3z M160.8,36.4h-39.9V8.5h39.9V36.4z"/>
			<path class="st1" d="M117.7,42.9c0,0.6,0.5,1.2,1.2,1.2h11.3v-2.3h-11.3C118.3,41.8,117.7,42.3,117.7,42.9z"/>
			<path class="st1" d="M162.8,41.8h-28.1v2.3h28.1c0.6,0,1.2-0.5,1.2-1.2C164,42.3,163.5,41.8,162.8,41.8z"/>
			<path class="st1" d="M132.4,40.6c-0.8,0-1.4,0.6-1.4,1.4v2c0,0.8,0.6,1.4,1.4,1.4c0.8,0,1.4-0.6,1.4-1.4v-2
				C133.8,41.2,133.2,40.6,132.4,40.6z"/>
		</g>
	</g>
</g>
<g>
	<path class="st2" d="M16.3,18.2h2.6l4,12.4h-2.3l-1.9-6.6c-0.4-1.3-0.8-2.7-1.1-4.1h-0.1c-0.3,1.4-0.7,2.8-1.1,4.1l-1.9,6.6h-2.2
		L16.3,18.2z M14.6,25.5h5.8v1.7h-5.8C14.6,27.2,14.6,25.5,14.6,25.5z"/>
	<path class="st2" d="M23.6,25.9c0-3.1,2.2-4.9,4.7-4.9c1.2,0,2,0.5,2.7,1l-1.1,1.4c-0.5-0.4-1-0.7-1.5-0.7c-1.5,0-2.5,1.2-2.5,3.1
		s1,3.1,2.5,3.1c0.7,0,1.4-0.4,1.9-0.8l0.9,1.4c-0.9,0.8-2,1.1-3,1.1C25.6,30.7,23.6,29,23.6,25.9z"/>
	<path class="st2" d="M31.9,25.9c0-3.1,2.2-4.9,4.7-4.9c1.2,0,2,0.5,2.7,1l-1.1,1.4c-0.5-0.4-1-0.7-1.5-0.7c-1.5,0-2.5,1.2-2.5,3.1
		s1,3.1,2.5,3.1c0.7,0,1.4-0.4,1.9-0.8l0.9,1.4c-0.9,0.8-2,1.1-3,1.1C33.8,30.7,31.9,29,31.9,25.9z"/>
	<path class="st2" d="M40.1,25.9c0-3,2.1-4.9,4.3-4.9c2.5,0,3.8,1.8,3.8,4.4c0,0.4,0,0.8-0.1,1.1h-5.9c0.2,1.6,1.2,2.6,2.7,2.6
		c0.8,0,1.5-0.2,2.2-0.7l0.7,1.4c-0.9,0.6-2,1-3.2,1C42.2,30.7,40.1,28.9,40.1,25.9z M46.4,25c0-1.4-0.6-2.3-1.9-2.3
		c-1.1,0-2,0.8-2.2,2.3C42.2,25,46.4,25,46.4,25z"/>
	<path class="st2" d="M49.4,29.5l1-1.4c0.8,0.6,1.6,1,2.6,1c1,0,1.5-0.5,1.5-1.1c0-0.8-1-1.1-2-1.5c-1.2-0.5-2.6-1.2-2.6-2.7
		c0-1.6,1.3-2.8,3.4-2.8c1.3,0,2.3,0.5,3.1,1.1l-1,1.3c-0.6-0.5-1.3-0.8-2-0.8c-0.9,0-1.4,0.4-1.4,1c0,0.7,0.9,1,1.9,1.4
		c1.3,0.5,2.7,1.1,2.7,2.8c0,1.6-1.3,2.9-3.6,2.9C51.6,30.7,50.3,30.2,49.4,29.5z"/>
	<path class="st2" d="M57.9,25.9c0-3.1,2.1-4.9,4.4-4.9c2.3,0,4.4,1.8,4.4,4.9c0,3.1-2.1,4.9-4.4,4.9C60,30.7,57.9,29,57.9,25.9z
		 M64.4,25.9c0-1.9-0.8-3.1-2.2-3.1s-2.2,1.2-2.2,3.1s0.8,3.1,2.2,3.1S64.4,27.7,64.4,25.9z"/>
	<path class="st2" d="M75.1,18.2h2.6l4,12.4h-2.3l-1.9-6.6c-0.4-1.3-0.8-2.7-1.1-4.1h-0.1c-0.3,1.4-0.7,2.8-1.1,4.1l-1.9,6.6h-2.2
		L75.1,18.2z M73.4,25.5h5.8v1.7h-5.8V25.5z"/>
	<path class="st2" d="M82.9,28.1v-11h2.2v11.1c0,0.5,0.2,0.7,0.5,0.7c0.1,0,0.2,0,0.3,0l0.3,1.6c-0.3,0.1-0.6,0.2-1.1,0.2
		C83.5,30.7,82.9,29.8,82.9,28.1z"/>
	<path class="st2" d="M87.9,27.1v-5.8h2.2v5.5c0,1.5,0.4,2.1,1.4,2.1c0.8,0,1.4-0.4,2.1-1.3v-6.4h2.2v9.3H94l-0.2-1.4h-0.1
		c-0.8,1-1.7,1.6-3,1.6C88.8,30.7,87.9,29.4,87.9,27.1z"/>
	<path class="st2" d="M98.5,21.2h1.8l0.2,1.3h0.1c0.8-0.8,1.7-1.5,2.8-1.5c1.4,0,2.1,0.6,2.6,1.7c0.9-0.9,1.8-1.7,3-1.7
		c2,0,2.9,1.3,2.9,3.7v5.8h-2.2V25c0-1.5-0.5-2.1-1.4-2.1c-0.6,0-1.2,0.4-1.9,1.2v6.5h-2.2V25c0-1.5-0.5-2.1-1.4-2.1
		c-0.6,0-1.2,0.4-1.9,1.2v6.5h-2.2L98.5,21.2L98.5,21.2z"/>
	<path class="st2" d="M114.5,21.2h1.8l0.2,1.3h0.1c0.8-0.8,1.8-1.5,3-1.5c2,0,2.9,1.3,2.9,3.7v5.8h-2.2V25c0-1.5-0.4-2.1-1.4-2.1
		c-0.8,0-1.4,0.4-2.1,1.2v6.5h-2.2C114.5,30.5,114.5,21.2,114.5,21.2z"/>
	<path class="st2" d="M124.4,25.9c0-3.1,2.1-4.9,4.4-4.9s4.4,1.8,4.4,4.9c0,3.1-2.1,4.9-4.4,4.9S124.4,29,124.4,25.9z M131,25.9
		c0-1.9-0.8-3.1-2.2-3.1c-1.4,0-2.2,1.2-2.2,3.1s0.8,3.1,2.2,3.1C130.2,29,131,27.7,131,25.9z"/>
	<path class="st2" d="M134.4,29.5l1-1.4c0.8,0.6,1.6,1,2.6,1c1,0,1.5-0.5,1.5-1.1c0-0.8-1-1.1-2-1.5c-1.2-0.5-2.6-1.2-2.6-2.7
		c0-1.6,1.3-2.8,3.4-2.8c1.3,0,2.3,0.5,3.1,1.1l-1,1.3c-0.6-0.5-1.3-0.8-2-0.8c-0.9,0-1.4,0.4-1.4,1c0,0.7,0.9,1,1.9,1.4
		c1.3,0.5,2.7,1.1,2.7,2.8c0,1.6-1.3,2.9-3.6,2.9C136.6,30.7,135.3,30.2,134.4,29.5z"/>
</g>
</svg>
