<?xml version="1.0" encoding="utf-8"?>
<!-- Generator: Adobe Illustrator 23.0.6, SVG Export Plug-In . SVG Version: 6.00 Build 0)  -->
<svg version="1.1" id="Capa_1" xmlns="http://www.w3.org/2000/svg" xmlns:xlink="http://www.w3.org/1999/xlink" x="0px" y="0px"
	 viewBox="0 0 170.4 50" style="enable-background:new 0 0 170.4 50;" xml:space="preserve">
<style type="text/css">
	.st0{fill:#006837;}
	.st1{fill:#4F992A;}
	.st2{fill:#FFFFFF;}
</style>
<g>
	<path class="st0" d="M159.7,50h-149C4.8,50,0,45.2,0,39.3V10.7C0,4.8,4.8,0,10.7,0h149c5.9,0,10.7,4.8,10.7,10.7v28.6
		C170.4,45.2,165.6,50,159.7,50z"/>
</g>
<g>
	<g>
		<g>
			<path class="st1" d="M164.7,6.8h-38.8c-0.9,0-1.7,0.8-1.7,1.7v28.2c0,0.9,0.8,1.7,1.7,1.7h13.6l-1.5,5h-1.8
				c-0.4,0-0.8,0.4-0.8,0.8v1.3c0,0.4,0.4,0.8,0.8,0.8h17.9c0.4,0,0.8-0.4,0.8-0.8v-1.3c0-0.4-0.4-0.8-0.8-0.8h-1.8l-1.5-5h13.6
				c0.9,0,1.7-0.8,1.7-1.7V8.6C166.4,7.6,165.7,6.8,164.7,6.8z M163,32.2h-35.3V10.3H163V32.2z"/>
			<path class="st1" d="M143.3,24.4c0.1,0.3,0.3,0.4,0.6,0.4c0.3,0,0.5-0.2,0.6-0.5l0.4-1.3l3.1,3.1c0.2,0.2,0.6,0.2,0.9,0l0.8-0.8
				c0.2-0.2,0.2-0.6,0-0.9l-3.1-3.1l1.3-0.4c0.3-0.1,0.4-0.3,0.5-0.6c0-0.3-0.1-0.5-0.4-0.6l-6-2.3c-0.2-0.1-0.5,0-0.7,0.1
				c-0.2,0.2-0.2,0.4-0.1,0.7L143.3,24.4z"/>
		</g>
	</g>
</g>
<g>
	<path class="st2" d="M22.4,18.2h2.6l4,12.4h-2.3l-1.9-6.6c-0.4-1.3-0.8-2.7-1.1-4.1h-0.1c-0.3,1.4-0.7,2.8-1.1,4.1l-1.9,6.6h-2.2
		L22.4,18.2z M20.7,25.5h5.8v1.7h-5.8V25.5z"/>
	<path class="st2" d="M29.7,25.9c0-3.1,2.2-4.9,4.7-4.9c1.2,0,2,0.5,2.7,1L36,23.5c-0.5-0.4-1-0.7-1.5-0.7c-1.5,0-2.5,1.2-2.5,3.1
		s1,3.1,2.5,3.1c0.7,0,1.4-0.4,1.9-0.8l0.9,1.4c-0.9,0.8-2,1.1-3,1.1C31.6,30.7,29.7,29,29.7,25.9z"/>
	<path class="st2" d="M37.9,25.9c0-3.1,2.2-4.9,4.7-4.9c1.2,0,2,0.5,2.7,1l-1.1,1.4c-0.5-0.4-1-0.7-1.5-0.7c-1.5,0-2.5,1.2-2.5,3.1
		s1,3.1,2.5,3.1c0.7,0,1.4-0.4,1.9-0.8l0.9,1.4c-0.9,0.8-2,1.1-3,1.1C39.9,30.7,37.9,29,37.9,25.9z"/>
	<path class="st2" d="M46.2,25.9c0-3,2.1-4.9,4.3-4.9c2.5,0,3.8,1.8,3.8,4.4c0,0.4,0,0.8-0.1,1.1h-5.9c0.2,1.6,1.2,2.6,2.7,2.6
		c0.8,0,1.5-0.2,2.2-0.7l0.7,1.4c-0.9,0.6-2,1-3.2,1C48.2,30.7,46.2,28.9,46.2,25.9z M52.4,25c0-1.4-0.6-2.3-1.9-2.3
		c-1.1,0-2,0.8-2.2,2.3C48.3,25,52.4,25,52.4,25z"/>
	<path class="st2" d="M55.5,29.5l1-1.4c0.8,0.6,1.6,1,2.6,1c1,0,1.5-0.5,1.5-1.1c0-0.8-1-1.1-2-1.5c-1.2-0.5-2.6-1.2-2.6-2.7
		c0-1.6,1.3-2.8,3.4-2.8c1.3,0,2.3,0.5,3.1,1.1l-1,1.3c-0.6-0.5-1.3-0.8-2-0.8c-0.9,0-1.4,0.4-1.4,1c0,0.7,0.9,1,1.9,1.4
		c1.3,0.5,2.7,1.1,2.7,2.8c0,1.6-1.3,2.9-3.6,2.9C57.7,30.7,56.4,30.2,55.5,29.5z"/>
	<path class="st2" d="M63.9,25.9c0-3.1,2.1-4.9,4.4-4.9s4.4,1.8,4.4,4.9c0,3.1-2.1,4.9-4.4,4.9S63.9,29,63.9,25.9z M70.5,25.9
		c0-1.9-0.8-3.1-2.2-3.1s-2.2,1.2-2.2,3.1S67,29,68.3,29S70.5,27.7,70.5,25.9z"/>
	<path class="st2" d="M78.7,18.2H82c3.8,0,6,2,6,6.1c0,4.1-2.2,6.2-5.9,6.2h-3.4C78.7,30.5,78.7,18.2,78.7,18.2z M81.9,28.7
		c2.5,0,3.9-1.4,3.9-4.5s-1.4-4.4-3.9-4.4h-1v8.8L81.9,28.7L81.9,28.7z"/>
	<path class="st2" d="M89.7,25.9c0-3.1,2.1-4.9,4.4-4.9s4.4,1.8,4.4,4.9c0,3.1-2.1,4.9-4.4,4.9S89.7,29,89.7,25.9z M96.3,25.9
		c0-1.9-0.8-3.1-2.2-3.1S92,24,92,25.9s0.8,3.1,2.2,3.1S96.3,27.7,96.3,25.9z"/>
	<path class="st2" d="M100.1,25.9c0-3.1,2.2-4.9,4.7-4.9c1.2,0,2,0.5,2.7,1l-1.1,1.4c-0.5-0.4-1-0.7-1.5-0.7c-1.5,0-2.5,1.2-2.5,3.1
		s1,3.1,2.5,3.1c0.7,0,1.4-0.4,1.9-0.8l0.9,1.4c-0.9,0.8-2,1.1-3,1.1C102.1,30.7,100.1,29,100.1,25.9z"/>
	<path class="st2" d="M108.4,25.9c0-3,2.1-4.9,4.3-4.9c2.5,0,3.8,1.8,3.8,4.4c0,0.4,0,0.8-0.1,1.1h-5.9c0.2,1.6,1.2,2.6,2.7,2.6
		c0.8,0,1.5-0.2,2.2-0.7l0.7,1.4c-0.9,0.6-2,1-3.2,1C110.4,30.7,108.4,28.9,108.4,25.9z M114.6,25c0-1.4-0.6-2.3-1.9-2.3
		c-1.1,0-2,0.8-2.2,2.3C110.5,25,114.6,25,114.6,25z"/>
	<path class="st2" d="M118.6,21.2h1.8l0.2,1.3h0.1c0.8-0.8,1.8-1.5,3-1.5c2,0,2.9,1.3,2.9,3.7v5.8h-2.2V25c0-1.5-0.4-2.1-1.4-2.1
		c-0.8,0-1.4,0.4-2.1,1.2v6.5h-2.2C118.6,30.5,118.6,21.2,118.6,21.2z"/>
	<path class="st2" d="M129.4,27.4V23h-1.3v-1.6l1.4-0.1l0.3-2.5h1.8v2.5h2.4V23h-2.4v4.4c0,1.1,0.4,1.6,1.3,1.6c0.3,0,0.7-0.1,1-0.2
		l0.4,1.6c-0.5,0.2-1.2,0.3-1.9,0.3C130.2,30.7,129.4,29.4,129.4,27.4z"/>
	<path class="st2" d="M135,25.9c0-3,2.1-4.9,4.3-4.9c2.5,0,3.8,1.8,3.8,4.4c0,0.4,0,0.8-0.1,1.1h-5.9c0.2,1.6,1.2,2.6,2.7,2.6
		c0.8,0,1.5-0.2,2.2-0.7l0.7,1.4c-0.9,0.6-2,1-3.2,1C137,30.7,135,28.9,135,25.9z M141.2,25c0-1.4-0.6-2.3-1.9-2.3
		c-1.1,0-2,0.8-2.2,2.3C137.1,25,141.2,25,141.2,25z"/>
	<path class="st2" d="M144.3,29.5l1-1.4c0.8,0.6,1.6,1,2.6,1c1,0,1.5-0.5,1.5-1.1c0-0.8-1-1.1-2-1.5c-1.2-0.5-2.6-1.2-2.6-2.7
		c0-1.6,1.3-2.8,3.4-2.8c1.3,0,2.3,0.5,3.1,1.1l-1,1.3c-0.6-0.5-1.3-0.8-2-0.8c-0.9,0-1.4,0.4-1.4,1c0,0.7,0.9,1,1.9,1.4
		c1.3,0.5,2.7,1.1,2.7,2.8c0,1.6-1.3,2.9-3.6,2.9C146.5,30.7,145.2,30.2,144.3,29.5z"/>
</g>
</svg>
