<?xml version="1.0" encoding="utf-8"?>
<!-- Generator: Adobe Illustrator 16.0.0, SVG Export Plug-In . SVG Version: 6.00 Build 0)  -->
<!DOCTYPE svg PUBLIC "-//W3C//DTD SVG 1.1//EN" "http://www.w3.org/Graphics/SVG/1.1/DTD/svg11.dtd">
<svg version="1.1" id="Capa_1" xmlns="http://www.w3.org/2000/svg" xmlns:xlink="http://www.w3.org/1999/xlink" x="0px" y="0px"
	 width="800px" height="668.5px" viewBox="0 0 800 668.5" enable-background="new 0 0 800 668.5" xml:space="preserve">
<title>Mesa de trabajo 6</title>
<title>Mesa de trabajo 6</title>
<g>
	<g>
		<path fill="#014c26" d="M427.439,283.198c0-15.25,12.191-27.437,27.438-27.437s27.438,12.188,27.438,27.437
			c0,15.244-12.192,27.438-27.438,27.438C439.633,310.638,427.439,298.447,427.439,283.198z"/>
	</g>
	<g>
		<path fill="#014c26" d="M348.173,258.805c15.247,0,27.434,12.2,27.434,27.44c0,15.246-12.188,27.438-27.434,27.438
			c-15.242,0-27.438-12.189-27.438-27.438C320.734,271.006,332.931,255.764,348.173,258.805z"/>
	</g>
	<g>
		<path fill="#014c26" d="M244.519,54.55c0,3.049,0,6.097,0,9.146c0,6.097,3.047,18.292-3.05,21.34
			c-6.097,3.05-18.293,0-27.437,3.05c-3.05,0-3.05-3.05-3.05-6.097c0-12.196,0-24.39,0-33.536
			c3.05-21.343,18.292-33.536,39.632-33.536c82.315,0,164.631,0,249.989,0c48.779,0,97.562,0,146.344,0
			c24.391,0,39.631,9.146,45.729,30.486c0,88.412,0,179.871,0,268.284c-6.1,24.395-24.393,33.537-48.778,30.484h-3.046
			c-24.395,0-24.395,0-24.395-24.387c0-6.102,3.053-6.102,6.094-6.102c9.152,0,18.301,0,24.396,0c9.145,0,9.145-3.049,9.145-12.191
			c0-64.021,0-128.045,0-189.021c0-18.293,0-36.586,0-54.876c0-9.146-3.045-9.146-9.145-9.146c-85.365,0-173.777,0-259.139,0
			c-45.729,0-91.459,0-134.141,0C247.566,45.403,244.519,45.403,244.519,54.55z"/>
	</g>
	<g>
		<path fill="#014c26" d="M238.421,310.638c-15.246,0-27.439-12.191-27.439-27.438c0-15.248,12.194-27.435,27.439-27.435
			c15.244,0,27.438,12.188,27.438,27.435S253.666,310.638,238.421,310.638z"/>
	</g>
	<g>
		<path fill="#014c26" d="M189.643,414.29c12.193,0,27.437-6.101,33.534,3.053c6.099,6.094,0,21.34,3.05,33.533
			c0,3.047,0,9.146,3.049,12.188c12.194-12.188,27.438-27.436,39.634-39.633c6.097-6.094,12.192-9.145,21.34-9.145
			c85.358,0,167.677,0,253.037,0c9.146,0,9.146-3.047,9.146-9.146c0-82.314,0-161.583,0-243.896c0-6.1-3.039-9.146-9.146-9.146
			c-131.09,0-262.182,0-393.274,0c-6.1,0-9.146,3.047-9.146,9.146c0,82.312,0,164.631,0,243.896c0,9.146,3.047,9.146,9.146,9.146
			C165.252,414.29,177.446,414.29,189.643,414.29z M585.971,161.254c0,82.312,0,164.63,0,246.937
			c0,27.439-15.246,42.687-42.686,42.687c-79.27,0-158.532,0-240.844,0c-9.144,0-15.244,3.047-21.34,9.146
			c-27.436,27.439-54.875,54.879-79.266,79.271c-3.049,3.047-6.096,6.1-9.146,9.145c0-30.481,0-60.973,0-88.412
			c0-9.146-3.047-12.188-9.147-9.146c-12.193,0-24.389,0-36.583,0c-24.39,0-39.633-15.242-39.633-39.633
			c0-54.873,0-106.705,0-161.58c0-30.486,0-57.925,0-88.412c0-27.439,15.243-42.683,42.683-42.683c131.092,0,265.235,0,396.327,0
			C570.725,118.572,585.971,133.815,585.971,161.254z"/>
	</g>
</g>
<g enable-background="new    ">
	<path fill="#014c26" d="M30.064,574.816c3.854,0,7.196,0.451,10.024,1.354c2.829,0.901,5.166,2.166,7.011,3.792
		c1.845,1.627,3.218,3.581,4.121,5.863c0.902,2.282,1.353,4.804,1.353,7.564c0,2.815-0.479,5.392-1.435,7.729
		c-0.957,2.337-2.378,4.346-4.264,6.026c-1.886,1.682-4.23,2.993-7.031,3.937c-2.802,0.943-6.062,1.414-9.779,1.414h-8.774v21.361
		h-9.594v-59.04H30.064z M30.064,604.91c2.132,0,4.011-0.272,5.638-0.819c1.626-0.547,2.979-1.318,4.059-2.316
		c1.079-0.998,1.892-2.207,2.439-3.629c0.546-1.421,0.82-3.007,0.82-4.756c0-1.723-0.267-3.266-0.799-4.633
		c-0.533-1.367-1.333-2.528-2.398-3.485c-1.066-0.956-2.413-1.688-4.039-2.193c-1.626-0.506-3.533-0.759-5.72-0.759h-8.774v22.591
		H30.064z"/>
	<path fill="#014c26" d="M67.743,599.785c1.312-2.65,2.897-4.735,4.756-6.252c1.858-1.518,4.086-2.275,6.683-2.275c0.902,0,1.749,0.103,2.542,0.308
		c0.792,0.204,1.503,0.512,2.132,0.922l-0.615,6.643c-0.109,0.465-0.28,0.785-0.512,0.963c-0.233,0.179-0.54,0.267-0.923,0.267
		c-0.41,0-0.998-0.075-1.763-0.226c-0.766-0.149-1.572-0.226-2.419-0.226c-1.23,0-2.317,0.179-3.26,0.533
		c-0.943,0.355-1.791,0.875-2.542,1.558c-0.752,0.684-1.415,1.518-1.988,2.501c-0.574,0.984-1.107,2.105-1.599,3.362v25.994H59.42
		v-41.82h5.125c0.929,0,1.571,0.171,1.927,0.513c0.355,0.342,0.601,0.937,0.738,1.783L67.743,599.785z"/>
	<path fill="#014c26" d="M94.639,613.644c0.109,2.378,0.478,4.435,1.107,6.17c0.628,1.736,1.469,3.178,2.521,4.326
		c1.052,1.147,2.31,2.002,3.772,2.562c1.462,0.561,3.096,0.84,4.899,0.84c1.722,0,3.211-0.197,4.469-0.594
		c1.257-0.396,2.35-0.834,3.28-1.312c0.929-0.478,1.722-0.915,2.378-1.312c0.656-0.396,1.257-0.595,1.804-0.595
		c0.71,0,1.257,0.273,1.64,0.82l2.501,3.238c-1.039,1.23-2.214,2.27-3.526,3.116c-1.312,0.848-2.706,1.538-4.182,2.07
		c-1.476,0.533-2.993,0.916-4.551,1.148c-1.558,0.231-3.075,0.349-4.551,0.349c-2.897,0-5.583-0.485-8.057-1.456
		c-2.474-0.97-4.62-2.398-6.437-4.284c-1.818-1.886-3.239-4.223-4.264-7.011c-1.025-2.788-1.537-6-1.537-9.636
		c0-2.896,0.457-5.603,1.374-8.117c0.915-2.515,2.227-4.701,3.936-6.561c1.708-1.858,3.786-3.327,6.232-4.407
		c2.446-1.079,5.213-1.619,8.302-1.619c2.569,0,4.947,0.417,7.134,1.25c2.186,0.834,4.072,2.058,5.658,3.67
		c1.585,1.612,2.822,3.587,3.71,5.924s1.333,4.996,1.333,7.975c0,1.367-0.15,2.283-0.451,2.747c-0.301,0.465-0.848,0.697-1.64,0.697
		H94.639z M115.672,608.231c0-1.476-0.212-2.85-0.635-4.12c-0.424-1.271-1.045-2.378-1.866-3.321
		c-0.82-0.943-1.838-1.681-3.054-2.214c-1.217-0.533-2.618-0.8-4.203-0.8c-3.198,0-5.713,0.916-7.544,2.747
		c-1.832,1.832-2.993,4.401-3.485,7.708H115.672z"/>
	<path fill="#014c26" d="M167.823,593.554v3.279c0,1.094-0.656,1.764-1.968,2.01l-4.182,0.696c0.71,1.586,1.066,3.349,1.066,5.289
		c0,2.051-0.404,3.909-1.209,5.576c-0.807,1.668-1.921,3.089-3.342,4.264c-1.421,1.176-3.116,2.078-5.084,2.706
		c-1.968,0.63-4.1,0.943-6.396,0.943c-0.875,0-1.729-0.047-2.562-0.144c-0.834-0.096-1.647-0.226-2.439-0.39
		c-0.793,0.466-1.38,0.957-1.763,1.477s-0.574,1.053-0.574,1.599c0,0.902,0.396,1.572,1.189,2.009
		c0.792,0.438,1.838,0.752,3.137,0.943c1.298,0.191,2.781,0.314,4.448,0.369c1.667,0.055,3.362,0.15,5.084,0.287
		s3.417,0.362,5.084,0.676c1.667,0.314,3.15,0.835,4.449,1.559c1.298,0.725,2.343,1.701,3.136,2.932
		c0.792,1.229,1.189,2.829,1.189,4.797c0,1.804-0.451,3.566-1.353,5.289c-0.902,1.722-2.208,3.252-3.916,4.592
		c-1.708,1.339-3.792,2.412-6.252,3.219c-2.46,0.806-5.262,1.209-8.405,1.209c-3.116,0-5.829-0.301-8.139-0.901
		c-2.31-0.602-4.237-1.415-5.781-2.44c-1.545-1.024-2.693-2.207-3.444-3.546c-0.752-1.34-1.127-2.733-1.127-4.182
		c0-1.969,0.622-3.649,1.866-5.044c1.243-1.394,2.931-2.486,5.063-3.279c-1.148-0.547-2.071-1.298-2.768-2.255
		s-1.045-2.214-1.045-3.772c0-1.229,0.451-2.515,1.353-3.854c0.902-1.339,2.255-2.474,4.059-3.403
		c-2.078-1.148-3.718-2.672-4.92-4.571c-1.203-1.899-1.804-4.121-1.804-6.663c0-2.076,0.403-3.949,1.209-5.616
		c0.806-1.667,1.934-3.089,3.382-4.265c1.449-1.175,3.164-2.077,5.146-2.706c1.981-0.628,4.147-0.942,6.499-0.942
		c3.608,0,6.751,0.752,9.43,2.255H167.823z M158.967,635.906c0-0.93-0.267-1.675-0.8-2.234c-0.533-0.56-1.25-0.997-2.152-1.312
		s-1.955-0.547-3.157-0.697c-1.203-0.15-2.48-0.26-3.833-0.328s-2.733-0.137-4.141-0.205c-1.408-0.067-2.768-0.198-4.08-0.39
		c-1.312,0.684-2.385,1.504-3.219,2.46c-0.834,0.957-1.25,2.063-1.25,3.321c0,0.82,0.211,1.585,0.636,2.296
		c0.423,0.711,1.079,1.325,1.968,1.845c0.888,0.52,2.022,0.93,3.403,1.23c1.38,0.301,3.04,0.451,4.981,0.451
		c3.881,0,6.792-0.602,8.733-1.805C157.997,639.336,158.967,637.792,158.967,635.906z M146.708,612.577
		c2.733,0,4.783-0.696,6.15-2.091c1.367-1.394,2.05-3.211,2.05-5.453c0-2.296-0.684-4.113-2.05-5.453
		c-1.367-1.339-3.417-2.009-6.15-2.009c-2.706,0-4.75,0.67-6.129,2.009c-1.38,1.34-2.07,3.157-2.07,5.453
		c0,1.094,0.177,2.105,0.533,3.034c0.355,0.93,0.875,1.729,1.558,2.398c0.683,0.67,1.538,1.189,2.562,1.559
		C144.187,612.393,145.369,612.577,146.708,612.577z"/>
	<path fill="#014c26" d="M210.052,592.036v41.82h-5.33c-1.175,0-1.927-0.56-2.255-1.681l-0.656-3.896c-0.875,0.93-1.798,1.777-2.768,2.542
		c-0.971,0.766-2.002,1.422-3.096,1.968c-1.093,0.548-2.262,0.971-3.505,1.271c-1.244,0.301-2.577,0.451-3.998,0.451
		c-2.296,0-4.319-0.384-6.068-1.148c-1.75-0.765-3.219-1.845-4.408-3.239c-1.189-1.394-2.084-3.067-2.686-5.022
		c-0.602-1.953-0.902-4.106-0.902-6.457v-26.609h8.815v26.609c0,2.815,0.649,5.002,1.948,6.56c1.298,1.559,3.273,2.337,5.924,2.337
		c1.94,0,3.751-0.443,5.433-1.332c1.681-0.888,3.259-2.111,4.735-3.67v-30.504H210.052z"/>
	<path fill="#014c26" d="M229.034,597.571c0.902-0.929,1.838-1.77,2.809-2.521c0.97-0.751,2.002-1.4,3.096-1.947
		c1.093-0.547,2.255-0.97,3.485-1.271c1.23-0.3,2.569-0.45,4.018-0.45c2.296,0,4.312,0.383,6.047,1.147
		c1.735,0.766,3.198,1.845,4.387,3.239c1.189,1.394,2.084,3.068,2.686,5.022c0.601,1.954,0.902,4.107,0.902,6.457v26.609h-8.774
		v-26.609c0-2.814-0.65-5.002-1.948-6.56c-1.298-1.558-3.273-2.337-5.924-2.337c-1.968,0-3.792,0.451-5.474,1.353
		c-1.681,0.902-3.259,2.132-4.735,3.69v30.463h-8.815v-41.82h5.33c1.202,0,1.968,0.561,2.296,1.682L229.034,597.571z"/>
	<path fill="#014c26" d="M279.628,634.513c-3.471,0-6.144-0.978-8.015-2.932c-1.873-1.954-2.809-4.708-2.809-8.262v-24.354h-4.592
		c-0.492,0-0.916-0.157-1.271-0.472c-0.355-0.314-0.533-0.785-0.533-1.415v-3.566l6.765-0.984l1.927-12.095
		c0.136-0.465,0.369-0.841,0.697-1.128c0.328-0.287,0.765-0.431,1.312-0.431h4.51v13.735h11.603v6.355H277.62v23.738
		c0,1.504,0.369,2.652,1.107,3.444c0.738,0.793,1.722,1.189,2.952,1.189c0.683,0,1.271-0.089,1.763-0.267
		c0.492-0.178,0.916-0.369,1.271-0.574c0.355-0.205,0.663-0.396,0.923-0.574c0.259-0.178,0.512-0.267,0.758-0.267
		c0.492,0,0.888,0.273,1.189,0.82l2.624,4.305c-1.367,1.203-2.979,2.126-4.838,2.768
		C283.509,634.19,281.597,634.513,279.628,634.513z"/>
	<path fill="#014c26" d="M295.167,597.858c4.728-4.4,10.359-6.601,16.892-6.601c2.404,0,4.545,0.389,6.416,1.168
		c1.873,0.779,3.445,1.88,4.715,3.301c1.271,1.422,2.242,3.109,2.912,5.063s1.004,4.12,1.004,6.498v26.568h-3.936
		c-0.848,0-1.49-0.13-1.928-0.39s-0.807-0.785-1.105-1.578l-0.861-3.403c-1.066,0.957-2.119,1.812-3.158,2.562
		c-1.039,0.752-2.111,1.388-3.219,1.906c-1.105,0.52-2.295,0.909-3.566,1.169s-2.672,0.39-4.203,0.39
		c-1.695,0-3.273-0.232-4.735-0.697c-1.463-0.465-2.727-1.169-3.793-2.111c-1.066-0.943-1.906-2.111-2.521-3.506
		c-0.615-1.394-0.922-3.034-0.922-4.92c0-1.612,0.431-3.184,1.292-4.715c0.861-1.53,2.282-2.904,4.264-4.12
		c1.981-1.217,4.592-2.221,7.831-3.014c3.239-0.793,7.237-1.244,11.993-1.354v-2.788c0-3.006-0.643-5.248-1.928-6.724
		s-3.17-2.214-5.658-2.214c-1.694,0-3.115,0.212-4.263,0.636s-2.146,0.881-2.993,1.373c-0.848,0.492-1.599,0.95-2.255,1.374
		c-0.656,0.424-1.353,0.635-2.091,0.635c-0.602,0-1.114-0.156-1.537-0.472c-0.424-0.313-0.773-0.703-1.046-1.168L295.167,597.858z
		 M318.537,615.57c-3.145,0.109-5.795,0.362-7.954,0.759c-2.16,0.396-3.909,0.901-5.248,1.517c-1.34,0.615-2.303,1.347-2.891,2.193
		c-0.588,0.848-0.881,1.777-0.881,2.788c0,0.984,0.157,1.825,0.471,2.521c0.314,0.697,0.751,1.271,1.312,1.723
		c0.56,0.45,1.216,0.778,1.968,0.983c0.751,0.205,1.578,0.308,2.48,0.308c2.296,0,4.27-0.431,5.924-1.291
		c1.654-0.861,3.26-2.112,4.818-3.752V615.57z"/>
	<path fill="#014c26" d="M362.365,599.621c-0.219,0.384-0.465,0.656-0.738,0.82s-0.614,0.246-1.024,0.246c-0.465,0-0.971-0.144-1.518-0.431
		s-1.188-0.607-1.927-0.964c-0.738-0.354-1.605-0.676-2.604-0.963s-2.166-0.431-3.505-0.431c-1.094,0-2.085,0.13-2.973,0.39
		c-0.889,0.26-1.641,0.629-2.255,1.106c-0.615,0.479-1.087,1.039-1.415,1.682s-0.492,1.332-0.492,2.07
		c0,0.984,0.301,1.804,0.902,2.46c0.601,0.656,1.394,1.224,2.378,1.701c0.984,0.479,2.104,0.909,3.362,1.292
		c1.257,0.383,2.542,0.793,3.854,1.229c1.312,0.438,2.597,0.943,3.854,1.518c1.257,0.574,2.378,1.278,3.361,2.111
		c0.984,0.834,1.777,1.845,2.379,3.034c0.601,1.188,0.901,2.631,0.901,4.325c0,1.968-0.355,3.786-1.065,5.453
		c-0.712,1.668-1.75,3.116-3.116,4.346c-1.367,1.23-3.068,2.188-5.104,2.87c-2.037,0.683-4.367,1.025-6.99,1.025
		c-1.449,0-2.85-0.13-4.203-0.39c-1.353-0.26-2.638-0.615-3.854-1.066c-1.217-0.451-2.352-0.99-3.403-1.619
		c-1.053-0.629-1.988-1.312-2.809-2.05l2.05-3.362c0.246-0.41,0.554-0.73,0.923-0.964c0.369-0.231,0.826-0.348,1.373-0.348
		c0.574,0,1.142,0.184,1.702,0.553c0.56,0.369,1.216,0.772,1.968,1.21c0.751,0.438,1.66,0.841,2.727,1.209
		c1.065,0.369,2.392,0.554,3.977,0.554c1.312,0,2.446-0.157,3.403-0.472c0.956-0.313,1.749-0.744,2.378-1.291
		s1.093-1.169,1.395-1.865c0.3-0.697,0.45-1.441,0.45-2.235c0-1.065-0.301-1.94-0.901-2.623c-0.602-0.684-1.401-1.271-2.398-1.764
		c-0.998-0.492-2.133-0.929-3.403-1.312c-1.271-0.383-2.562-0.793-3.875-1.23c-1.312-0.437-2.603-0.942-3.874-1.517
		c-1.271-0.574-2.405-1.305-3.403-2.193s-1.797-1.969-2.398-3.239c-0.602-1.271-0.901-2.822-0.901-4.653
		c0-1.667,0.334-3.253,1.004-4.756s1.653-2.829,2.952-3.978c1.298-1.147,2.897-2.057,4.797-2.727
		c1.899-0.669,4.093-1.004,6.581-1.004c2.814,0,5.371,0.45,7.667,1.353s4.223,2.132,5.78,3.69L362.365,599.621z"/>
	<path fill="#014c26" d="M404.881,582.565v18.901h23.082v7.749h-23.082v24.641h-9.636v-59.04h36.818v7.749H404.881z"/>
	<path fill="#014c26" d="M444.897,599.785c1.312-2.65,2.896-4.735,4.756-6.252c1.858-1.518,4.086-2.275,6.683-2.275
		c0.902,0,1.749,0.103,2.542,0.308c0.793,0.204,1.503,0.512,2.132,0.922l-0.614,6.643c-0.11,0.465-0.281,0.785-0.513,0.963
		c-0.232,0.179-0.54,0.267-0.923,0.267c-0.41,0-0.998-0.075-1.763-0.226c-0.766-0.149-1.572-0.226-2.419-0.226
		c-1.23,0-2.316,0.179-3.26,0.533c-0.943,0.355-1.79,0.875-2.542,1.558c-0.752,0.684-1.414,1.518-1.988,2.501
		c-0.574,0.984-1.107,2.105-1.6,3.362v25.994h-8.814v-41.82h5.125c0.929,0,1.571,0.171,1.927,0.513s0.601,0.937,0.738,1.783
		L444.897,599.785z"/>
	<path fill="#014c26" d="M471.793,613.644c0.109,2.378,0.479,4.435,1.107,6.17c0.629,1.736,1.469,3.178,2.521,4.326
		c1.052,1.147,2.31,2.002,3.772,2.562c1.462,0.561,3.095,0.84,4.899,0.84c1.722,0,3.211-0.197,4.469-0.594
		c1.257-0.396,2.351-0.834,3.28-1.312c0.929-0.478,1.722-0.915,2.378-1.312c0.655-0.396,1.257-0.595,1.804-0.595
		c0.71,0,1.257,0.273,1.64,0.82l2.501,3.238c-1.039,1.23-2.214,2.27-3.525,3.116c-1.312,0.848-2.706,1.538-4.183,2.07
		c-1.476,0.533-2.992,0.916-4.551,1.148c-1.558,0.231-3.075,0.349-4.551,0.349c-2.897,0-5.583-0.485-8.057-1.456
		c-2.474-0.97-4.619-2.398-6.437-4.284c-1.818-1.886-3.239-4.223-4.265-7.011c-1.024-2.788-1.537-6-1.537-9.636
		c0-2.896,0.457-5.603,1.373-8.117s2.228-4.701,3.937-6.561c1.708-1.858,3.785-3.327,6.231-4.407
		c2.446-1.079,5.214-1.619,8.303-1.619c2.569,0,4.947,0.417,7.134,1.25c2.187,0.834,4.072,2.058,5.658,3.67
		c1.585,1.612,2.822,3.587,3.711,5.924c0.888,2.337,1.332,4.996,1.332,7.975c0,1.367-0.15,2.283-0.451,2.747
		c-0.301,0.465-0.848,0.697-1.64,0.697H471.793z M492.826,608.231c0-1.476-0.212-2.85-0.636-4.12
		c-0.424-1.271-1.045-2.378-1.865-3.321s-1.839-1.681-3.055-2.214s-2.617-0.8-4.202-0.8c-3.198,0-5.713,0.916-7.544,2.747
		c-1.832,1.832-2.993,4.401-3.485,7.708H492.826z"/>
	<path fill="#014c26" d="M538.499,600.236c-0.273,0.355-0.532,0.629-0.778,0.82s-0.602,0.287-1.066,0.287s-0.95-0.164-1.455-0.492
		c-0.507-0.328-1.107-0.69-1.805-1.087c-0.696-0.396-1.537-0.758-2.521-1.086c-0.983-0.328-2.214-0.492-3.689-0.492
		c-1.914,0-3.588,0.342-5.022,1.025c-1.436,0.683-2.639,1.66-3.608,2.931c-0.971,1.271-1.695,2.815-2.173,4.634
		c-0.479,1.817-0.718,3.86-0.718,6.129c0,2.352,0.26,4.442,0.779,6.273c0.519,1.831,1.264,3.376,2.234,4.633
		c0.97,1.258,2.146,2.214,3.526,2.87c1.38,0.656,2.932,0.983,4.653,0.983c1.694,0,3.075-0.205,4.141-0.614
		c1.066-0.41,1.954-0.861,2.665-1.354s1.318-0.942,1.825-1.353c0.505-0.41,1.045-0.615,1.619-0.615c0.71,0,1.257,0.273,1.64,0.82
		l2.501,3.238c-1.012,1.23-2.132,2.27-3.361,3.116c-1.23,0.848-2.529,1.538-3.896,2.07c-1.367,0.533-2.788,0.916-4.264,1.148
		c-1.477,0.231-2.966,0.349-4.469,0.349c-2.598,0-5.023-0.485-7.278-1.456c-2.255-0.97-4.223-2.378-5.903-4.223
		c-1.682-1.845-3.008-4.1-3.978-6.765c-0.971-2.665-1.455-5.706-1.455-9.123c0-3.088,0.437-5.951,1.312-8.589
		s2.152-4.913,3.834-6.827c1.681-1.913,3.765-3.409,6.252-4.489c2.487-1.079,5.357-1.619,8.61-1.619
		c3.034,0,5.705,0.491,8.016,1.476c2.31,0.984,4.366,2.378,6.17,4.182L538.499,600.236z"/>
	<path fill="#014c26" d="M583.558,592.036v41.82h-5.33c-1.176,0-1.927-0.56-2.255-1.681l-0.656-3.896c-0.875,0.93-1.797,1.777-2.768,2.542
		c-0.97,0.766-2.002,1.422-3.095,1.968c-1.094,0.548-2.263,0.971-3.506,1.271c-1.244,0.301-2.576,0.451-3.997,0.451
		c-2.297,0-4.319-0.384-6.068-1.148c-1.75-0.765-3.219-1.845-4.407-3.239c-1.189-1.394-2.085-3.067-2.686-5.022
		c-0.602-1.953-0.902-4.106-0.902-6.457v-26.609h8.815v26.609c0,2.815,0.648,5.002,1.947,6.56c1.298,1.559,3.272,2.337,5.925,2.337
		c1.94,0,3.751-0.443,5.432-1.332c1.682-0.888,3.26-2.111,4.736-3.67v-30.504H583.558z"/>
	<path fill="#014c26" d="M600.694,613.644c0.109,2.378,0.479,4.435,1.107,6.17c0.629,1.736,1.469,3.178,2.521,4.326
		c1.052,1.147,2.31,2.002,3.772,2.562c1.462,0.561,3.095,0.84,4.899,0.84c1.722,0,3.211-0.197,4.469-0.594
		c1.257-0.396,2.351-0.834,3.28-1.312c0.929-0.478,1.722-0.915,2.378-1.312c0.655-0.396,1.257-0.595,1.804-0.595
		c0.71,0,1.257,0.273,1.64,0.82l2.501,3.238c-1.039,1.23-2.214,2.27-3.525,3.116c-1.312,0.848-2.706,1.538-4.183,2.07
		c-1.476,0.533-2.992,0.916-4.551,1.148c-1.558,0.231-3.075,0.349-4.551,0.349c-2.897,0-5.583-0.485-8.057-1.456
		c-2.474-0.97-4.619-2.398-6.437-4.284c-1.818-1.886-3.239-4.223-4.265-7.011c-1.024-2.788-1.537-6-1.537-9.636
		c0-2.896,0.457-5.603,1.373-8.117s2.228-4.701,3.937-6.561c1.708-1.858,3.785-3.327,6.231-4.407
		c2.446-1.079,5.214-1.619,8.303-1.619c2.569,0,4.947,0.417,7.134,1.25c2.187,0.834,4.072,2.058,5.658,3.67
		c1.585,1.612,2.822,3.587,3.711,5.924c0.888,2.337,1.332,4.996,1.332,7.975c0,1.367-0.15,2.283-0.451,2.747
		c-0.301,0.465-0.848,0.697-1.64,0.697H600.694z M621.728,608.231c0-1.476-0.212-2.85-0.636-4.12
		c-0.424-1.271-1.045-2.378-1.865-3.321s-1.839-1.681-3.055-2.214s-2.617-0.8-4.202-0.8c-3.198,0-5.713,0.916-7.544,2.747
		c-1.832,1.832-2.993,4.401-3.485,7.708H621.728z"/>
	<path fill="#014c26" d="M646.082,597.571c0.901-0.929,1.838-1.77,2.809-2.521c0.97-0.751,2.002-1.4,3.095-1.947
		c1.094-0.547,2.256-0.97,3.485-1.271c1.23-0.3,2.569-0.45,4.018-0.45c2.297,0,4.312,0.383,6.048,1.147
		c1.735,0.766,3.198,1.845,4.387,3.239c1.189,1.394,2.084,3.068,2.686,5.022s0.902,4.107,0.902,6.457v26.609h-8.774v-26.609
		c0-2.814-0.649-5.002-1.947-6.56c-1.299-1.558-3.273-2.337-5.925-2.337c-1.968,0-3.792,0.451-5.473,1.353
		c-1.682,0.902-3.26,2.132-4.736,3.69v30.463h-8.814v-41.82h5.33c1.202,0,1.968,0.561,2.296,1.682L646.082,597.571z"/>
	<path fill="#014c26" d="M696.676,634.513c-3.472,0-6.144-0.978-8.016-2.932c-1.873-1.954-2.809-4.708-2.809-8.262v-24.354h-4.592
		c-0.492,0-0.916-0.157-1.271-0.472s-0.533-0.785-0.533-1.415v-3.566l6.766-0.984l1.927-12.095c0.137-0.465,0.369-0.841,0.697-1.128
		s0.765-0.431,1.312-0.431h4.51v13.735h11.604v6.355h-11.604v23.738c0,1.504,0.369,2.652,1.107,3.444
		c0.738,0.793,1.722,1.189,2.952,1.189c0.683,0,1.271-0.089,1.763-0.267s0.916-0.369,1.271-0.574
		c0.354-0.205,0.662-0.396,0.922-0.574s0.513-0.267,0.759-0.267c0.492,0,0.888,0.273,1.189,0.82l2.624,4.305
		c-1.367,1.203-2.98,2.126-4.839,2.768S698.644,634.513,696.676,634.513z"/>
	<path fill="#014c26" d="M719.348,613.644c0.109,2.378,0.479,4.435,1.107,6.17c0.629,1.736,1.469,3.178,2.521,4.326
		c1.052,1.147,2.31,2.002,3.772,2.562c1.462,0.561,3.095,0.84,4.899,0.84c1.722,0,3.211-0.197,4.469-0.594
		c1.257-0.396,2.351-0.834,3.28-1.312c0.929-0.478,1.722-0.915,2.378-1.312c0.655-0.396,1.257-0.595,1.804-0.595
		c0.71,0,1.257,0.273,1.64,0.82l2.501,3.238c-1.039,1.23-2.214,2.27-3.525,3.116c-1.312,0.848-2.706,1.538-4.183,2.07
		c-1.476,0.533-2.992,0.916-4.551,1.148c-1.558,0.231-3.075,0.349-4.551,0.349c-2.897,0-5.583-0.485-8.057-1.456
		c-2.474-0.97-4.619-2.398-6.437-4.284c-1.818-1.886-3.239-4.223-4.265-7.011c-1.024-2.788-1.537-6-1.537-9.636
		c0-2.896,0.457-5.603,1.373-8.117s2.228-4.701,3.937-6.561c1.708-1.858,3.785-3.327,6.231-4.407
		c2.446-1.079,5.214-1.619,8.303-1.619c2.569,0,4.947,0.417,7.134,1.25c2.187,0.834,4.072,2.058,5.658,3.67
		c1.585,1.612,2.822,3.587,3.711,5.924c0.888,2.337,1.332,4.996,1.332,7.975c0,1.367-0.15,2.283-0.451,2.747
		c-0.301,0.465-0.848,0.697-1.64,0.697H719.348z M740.381,608.231c0-1.476-0.212-2.85-0.636-4.12
		c-0.424-1.271-1.045-2.378-1.865-3.321s-1.839-1.681-3.055-2.214s-2.617-0.8-4.202-0.8c-3.198,0-5.713,0.916-7.544,2.747
		c-1.832,1.832-2.993,4.401-3.485,7.708H740.381z"/>
	<path fill="#014c26" d="M781.463,599.621c-0.219,0.384-0.465,0.656-0.738,0.82s-0.614,0.246-1.024,0.246c-0.465,0-0.971-0.144-1.518-0.431
		s-1.188-0.607-1.927-0.964c-0.738-0.354-1.605-0.676-2.604-0.963s-2.166-0.431-3.505-0.431c-1.094,0-2.085,0.13-2.973,0.39
		c-0.889,0.26-1.641,0.629-2.255,1.106c-0.615,0.479-1.087,1.039-1.415,1.682s-0.492,1.332-0.492,2.07
		c0,0.984,0.301,1.804,0.902,2.46c0.601,0.656,1.394,1.224,2.378,1.701c0.984,0.479,2.104,0.909,3.362,1.292
		c1.257,0.383,2.542,0.793,3.854,1.229c1.312,0.438,2.597,0.943,3.854,1.518c1.257,0.574,2.378,1.278,3.361,2.111
		c0.984,0.834,1.777,1.845,2.379,3.034c0.601,1.188,0.901,2.631,0.901,4.325c0,1.968-0.355,3.786-1.065,5.453
		c-0.712,1.668-1.75,3.116-3.116,4.346c-1.367,1.23-3.068,2.188-5.104,2.87c-2.037,0.683-4.367,1.025-6.99,1.025
		c-1.449,0-2.85-0.13-4.203-0.39c-1.353-0.26-2.638-0.615-3.854-1.066c-1.217-0.451-2.352-0.99-3.403-1.619
		c-1.053-0.629-1.988-1.312-2.809-2.05l2.05-3.362c0.246-0.41,0.554-0.73,0.923-0.964c0.369-0.231,0.826-0.348,1.373-0.348
		c0.574,0,1.142,0.184,1.702,0.553c0.56,0.369,1.216,0.772,1.968,1.21c0.751,0.438,1.66,0.841,2.727,1.209
		c1.065,0.369,2.392,0.554,3.977,0.554c1.312,0,2.446-0.157,3.403-0.472c0.956-0.313,1.749-0.744,2.378-1.291
		s1.093-1.169,1.395-1.865c0.3-0.697,0.45-1.441,0.45-2.235c0-1.065-0.301-1.94-0.901-2.623c-0.602-0.684-1.401-1.271-2.398-1.764
		c-0.998-0.492-2.133-0.929-3.403-1.312c-1.271-0.383-2.562-0.793-3.875-1.23c-1.312-0.437-2.603-0.942-3.874-1.517
		c-1.271-0.574-2.405-1.305-3.403-2.193s-1.797-1.969-2.398-3.239c-0.602-1.271-0.901-2.822-0.901-4.653
		c0-1.667,0.334-3.253,1.004-4.756s1.653-2.829,2.952-3.978c1.298-1.147,2.897-2.057,4.797-2.727
		c1.899-0.669,4.093-1.004,6.581-1.004c2.814,0,5.371,0.45,7.667,1.353s4.223,2.132,5.78,3.69L781.463,599.621z"/>
</g>
</svg>
