<?xml version="1.0" encoding="iso-8859-1"?>
<!-- Generator: Adobe Illustrator 22.1.0, SVG Export Plug-In . SVG Version: 6.00 Build 0)  -->
<svg version="1.1" id="Layer_1" xmlns="http://www.w3.org/2000/svg" xmlns:xlink="http://www.w3.org/1999/xlink" x="0px" y="0px"
	 viewBox="0 0 242.1 132.6" style="enable-background:new 0 0 242.1 132.6;" xml:space="preserve">
<g>
	<g>
		<g>
			<path style="fill:#FFFFFF;" d="M110.858,58.434c-1.454,3.695-6.421,3.634-7.875,0L89.596,17.726h8.723l8.663,28.107l8.663-28.107
				h8.784L110.858,58.434z"/>
			<path style="fill:#FFFFFF;" d="M76.165,20.475c1.454-3.695,6.421-3.634,7.875,0l13.388,40.708l-8.723,0l-8.663-28.107
				L71.38,61.183h-8.784L76.165,20.475z"/>
			<path style="fill:#FFFFFF;" d="M213.831,37.947c2.408,0.947,2.368,4.185,0,5.132l-26.528,8.725l0-5.685l18.317-5.645
				l-18.317-5.645v-5.724L213.831,37.947z"/>
			<path style="fill:#FFFFFF;" d="M31.877,42.961c-2.408-0.947-2.368-4.185,0-5.132l26.528-8.725l0,5.685l-18.317,5.645
				l18.317,5.645l0,5.724L31.877,42.961z"/>
		</g>
		<g>
			<g>
				<path style="fill:#FFFFFF;" d="M144.672,61.395l-2.467-7.58h-14.729l-2.404,7.58h-8.938l14.054-40.186
					c1.292-2.958,2.773-3.696,4.868-3.696c1.972,0,3.39,0.555,4.499,3.696l14.052,40.186H144.672z M135.057,29.222l-5.423,17.382
					h10.599L135.057,29.222z"/>
				<path style="fill:#FFFFFF;" d="M167.822,61.395c-9.801,0-13.374-2.896-13.374-11.588V17.513h28.907v7.641h-20.34v10.293h14.238
					l-0.617,7.643h-13.62v6.103c0,3.513,1.355,4.559,5.423,4.559h14.918v7.643H167.822z"/>
			</g>
		</g>
	</g>
</g>
<g>
	<path style="fill:#FFFFFF;" d="M13.725,89.644c0-2.753,2.376-4.13,7.763-4.716c-0.006-1.626-0.545-3.192-2.609-3.192
		c-1.462,0-2.778,0.692-3.769,1.354l-0.837-1.466c1.162-0.763,2.936-1.65,4.964-1.65c3.084,0,4.39,2.05,4.39,5.197v7.754H21.86
		l-0.181-1.511h-0.071c-1.204,1.002-2.611,1.822-4.18,1.822C15.313,93.236,13.725,91.924,13.725,89.644z M21.488,89.841v-3.51
		c-4.235,0.509-5.668,1.547-5.668,3.162c0,1.437,0.975,2.021,2.215,2.021C19.256,91.514,20.263,90.92,21.488,89.841z"/>
	<path style="fill:#FFFFFF;" d="M30.052,88.294v-8.009h2.139v7.732c0,2.354,0.712,3.362,2.385,3.362c1.292,0,2.188-0.641,3.384-2.13
		v-8.965h2.139v12.64h-1.767l-0.181-1.979H38.08c-1.172,1.38-2.434,2.291-4.169,2.291C31.249,93.236,30.052,91.518,30.052,88.294z"
		/>
	<path style="fill:#FFFFFF;" d="M46.962,90.387V74.4h2.139v16.143c0,0.653,0.284,0.913,0.597,0.913c0.123,0,0.227,0,0.468-0.052
		l0.29,1.633c-0.304,0.109-0.67,0.199-1.231,0.199C47.622,93.236,46.962,92.214,46.962,90.387z"/>
	<path style="fill:#FFFFFF;" d="M55.41,89.644c0-2.753,2.376-4.13,7.763-4.716c-0.006-1.626-0.545-3.192-2.609-3.192
		c-1.462,0-2.778,0.692-3.769,1.354l-0.837-1.466c1.162-0.763,2.936-1.65,4.964-1.65c3.084,0,4.39,2.05,4.39,5.197v7.754h-1.767
		l-0.181-1.511h-0.071c-1.204,1.002-2.611,1.822-4.18,1.822C56.998,93.236,55.41,91.924,55.41,89.644z M63.172,89.841v-3.51
		c-4.235,0.509-5.668,1.547-5.668,3.162c0,1.437,0.975,2.021,2.215,2.021C60.941,91.514,61.948,90.92,63.172,89.841z"/>
	<path style="fill:#FFFFFF;" d="M70.505,91.482l1.057-1.408c1.097,0.884,2.213,1.497,3.73,1.497c1.659,0,2.483-0.885,2.483-1.964
		c0-1.3-1.492-1.875-2.891-2.395c-1.771-0.648-3.77-1.52-3.77-3.651c0-2.022,1.62-3.588,4.359-3.588c1.574,0,2.95,0.645,3.93,1.421
		l-1.022,1.37c-0.87-0.644-1.764-1.125-2.882-1.125c-1.593,0-2.327,0.849-2.327,1.812c0,1.202,1.374,1.659,2.806,2.192
		c1.822,0.688,3.854,1.43,3.854,3.835c0,2.05-1.628,3.757-4.611,3.757C73.426,93.236,71.694,92.477,70.505,91.482z"/>
	<path style="fill:#FFFFFF;" d="M91.383,80.285h2.205l2.39,7.181c0.378,1.234,0.788,2.521,1.166,3.728h0.104
		c0.378-1.207,0.788-2.493,1.166-3.728l2.39-7.181h2.096l-4.47,12.64h-2.486L91.383,80.285z"/>
	<path style="fill:#FFFFFF;" d="M107.551,76.307c0-0.84,0.646-1.382,1.478-1.382c0.831,0,1.477,0.542,1.477,1.382
		c0,0.807-0.646,1.381-1.477,1.381C108.197,77.688,107.551,77.113,107.551,76.307z M107.943,80.285h2.139v12.64h-2.139V80.285z"/>
	<path style="fill:#FFFFFF;" d="M116.947,80.285h1.767l0.181,2.303h0.071c0.88-1.604,2.171-2.614,3.593-2.614
		c0.559,0,0.953,0.071,1.35,0.261l-0.4,1.875c-0.436-0.137-0.719-0.207-1.225-0.207c-1.069,0-2.344,0.77-3.198,2.906v8.116h-2.139
		V80.285z"/>
	<path style="fill:#FFFFFF;" d="M128.947,89.018v-6.989h-1.879v-1.619l1.975-0.124l0.258-3.544h1.787v3.544h3.424v1.743h-3.424
		v7.026c0,1.545,0.496,2.439,1.953,2.439c0.449,0,1.029-0.17,1.439-0.339l0.414,1.613c-0.709,0.241-1.557,0.468-2.346,0.468
		C129.859,93.236,128.947,91.532,128.947,89.018z"/>
	<path style="fill:#FFFFFF;" d="M139.793,88.294v-8.009h2.139v7.732c0,2.354,0.713,3.362,2.385,3.362
		c1.293,0,2.188-0.641,3.385-2.13v-8.965h2.139v12.64h-1.768l-0.18-1.979h-0.072c-1.172,1.38-2.434,2.291-4.168,2.291
		C140.99,93.236,139.793,91.518,139.793,88.294z"/>
	<path style="fill:#FFFFFF;" d="M155.92,89.644c0-2.753,2.377-4.13,7.764-4.716c-0.006-1.626-0.545-3.192-2.609-3.192
		c-1.463,0-2.779,0.692-3.77,1.354l-0.836-1.466c1.162-0.763,2.936-1.65,4.963-1.65c3.084,0,4.391,2.05,4.391,5.197v7.754h-1.768
		l-0.18-1.511h-0.072c-1.203,1.002-2.611,1.822-4.18,1.822C157.508,93.236,155.92,91.924,155.92,89.644z M163.684,89.841v-3.51
		c-4.236,0.509-5.668,1.547-5.668,3.162c0,1.437,0.975,2.021,2.215,2.021C161.451,91.514,162.459,90.92,163.684,89.841z"/>
	<path style="fill:#FFFFFF;" d="M172.418,90.387V74.4h2.139v16.143c0,0.653,0.283,0.913,0.596,0.913c0.123,0,0.227,0,0.469-0.052
		l0.289,1.633c-0.303,0.109-0.67,0.199-1.23,0.199C173.076,93.236,172.418,92.214,172.418,90.387z"/>
	<path style="fill:#FFFFFF;" d="M180.709,86.621c0-4.113,2.771-6.647,5.682-6.647c3.223,0,5.043,2.315,5.043,5.931
		c0,0.451-0.037,0.902-0.1,1.215h-8.512c0.154,2.678,1.791,4.414,4.199,4.414c1.213,0,2.209-0.392,3.146-1.01l0.766,1.402
		c-1.109,0.725-2.455,1.311-4.174,1.311C183.391,93.236,180.709,90.773,180.709,86.621z M189.545,85.588
		c0-2.533-1.141-3.91-3.117-3.91c-1.775,0-3.363,1.427-3.623,3.91H189.545z"/>
	<path style="fill:#FFFFFF;" d="M195.732,91.482l1.057-1.408c1.098,0.884,2.213,1.497,3.73,1.497c1.66,0,2.484-0.885,2.484-1.964
		c0-1.3-1.492-1.875-2.891-2.395c-1.771-0.648-3.77-1.52-3.77-3.651c0-2.022,1.619-3.588,4.359-3.588
		c1.574,0,2.949,0.645,3.93,1.421l-1.023,1.37c-0.869-0.644-1.764-1.125-2.881-1.125c-1.594,0-2.328,0.849-2.328,1.812
		c0,1.202,1.375,1.659,2.805,2.192c1.824,0.688,3.855,1.43,3.855,3.835c0,2.05-1.629,3.757-4.611,3.757
		C198.654,93.236,196.922,92.477,195.732,91.482z"/>
	<path style="fill:#FFFFFF;" d="M217.164,98.111l0.418-1.703c0.25,0.084,0.639,0.188,0.963,0.188c1.428,0,2.328-1.145,2.85-2.714
		l0.289-0.934l-5.072-12.664h2.205l2.578,6.998c0.396,1.098,0.822,2.392,1.232,3.561h0.104c0.359-1.15,0.717-2.444,1.062-3.561
		l2.252-6.998h2.096l-4.762,13.681c-0.893,2.508-2.197,4.405-4.732,4.405C218.059,98.371,217.572,98.268,217.164,98.111z"/>
	<path style="fill:#FFFFFF;" d="M13.442,106.994c0-2.177,1.879-3.265,6.137-3.729c-0.005-1.285-0.431-2.523-2.062-2.523
		c-1.155,0-2.196,0.548-2.979,1.071l-0.661-1.159c0.919-0.604,2.32-1.305,3.924-1.305c2.438,0,3.47,1.621,3.47,4.109v6.129h-1.396
		l-0.143-1.194h-0.057c-0.952,0.792-2.064,1.44-3.304,1.44C14.697,109.834,13.442,108.797,13.442,106.994z M19.579,107.15v-2.775
		c-3.349,0.402-4.48,1.223-4.48,2.5c0,1.135,0.771,1.598,1.751,1.598C17.815,108.473,18.611,108.003,19.579,107.15z"/>
	<path style="fill:#FFFFFF;" d="M26.072,99.597h1.396l0.144,1.448h0.056c0.874-0.943,1.919-1.695,3.109-1.695
		c1.527,0,2.346,0.732,2.758,1.904c1.038-1.123,2.08-1.904,3.296-1.904c2.053,0,3.039,1.359,3.039,3.908v6.33h-1.69v-6.112
		c0-1.86-0.589-2.657-1.859-2.657c-0.774,0-1.579,0.506-2.504,1.534v7.235h-1.69v-6.112c0-1.86-0.589-2.657-1.859-2.657
		c-0.748,0-1.579,0.506-2.504,1.534v7.235h-1.69V99.597z"/>
	<path style="fill:#FFFFFF;" d="M46.316,108.557H46.26l-0.158,1.031H44.75V94.945h1.69v4.005l-0.056,1.792
		c0.914-0.788,2.026-1.393,3.139-1.393c2.581,0,3.969,2.004,3.969,5.084c0,3.412-2.045,5.4-4.327,5.4
		C48.235,109.834,47.201,109.356,46.316,108.557z M51.746,104.456c0-2.205-0.753-3.683-2.634-3.683
		c-0.846,0-1.725,0.465-2.671,1.363v5.236c0.879,0.76,1.772,1.039,2.433,1.039C50.528,108.412,51.746,106.923,51.746,104.456z"/>
	<path style="fill:#FFFFFF;" d="M57.459,96.451c0-0.664,0.511-1.092,1.168-1.092s1.168,0.428,1.168,1.092
		c0,0.638-0.511,1.092-1.168,1.092S57.459,97.089,57.459,96.451z M57.769,99.597h1.69v9.991h-1.69V99.597z"/>
	<path style="fill:#FFFFFF;" d="M63.733,104.605c0-3.252,2.191-5.256,4.491-5.256c2.549,0,3.987,1.83,3.987,4.689
		c0,0.355-0.03,0.713-0.079,0.959h-6.729c0.121,2.117,1.416,3.489,3.32,3.489c0.958,0,1.746-0.31,2.485-0.798l0.605,1.109
		c-0.876,0.572-1.939,1.035-3.299,1.035C65.853,109.834,63.733,107.887,63.733,104.605z M70.717,103.788
		c0-2.003-0.9-3.091-2.463-3.091c-1.404,0-2.66,1.127-2.865,3.091H70.717z"/>
	<path style="fill:#FFFFFF;" d="M76.306,99.597h1.396l0.144,1.441h0.056c0.952-0.937,1.979-1.688,3.352-1.688
		c2.104,0,3.051,1.359,3.051,3.908v6.33h-1.691v-6.112c0-1.86-0.562-2.657-1.885-2.657c-1.021,0-1.729,0.521-2.731,1.534v7.235
		h-1.69V99.597z"/>
	<path style="fill:#FFFFFF;" d="M89.481,106.499v-5.524h-1.487v-1.28l1.562-0.098l0.203-2.802h1.412v2.802h2.707v1.378h-2.707v5.554
		c0,1.222,0.394,1.929,1.545,1.929c0.354,0,0.813-0.134,1.138-0.268l0.327,1.275c-0.561,0.189-1.23,0.369-1.854,0.369
		C90.201,109.834,89.481,108.486,89.481,106.499z"/>
	<path style="fill:#FFFFFF;" d="M96.747,104.605c0-3.252,2.191-5.256,4.491-5.256c2.549,0,3.987,1.83,3.987,4.689
		c0,0.355-0.03,0.713-0.079,0.959h-6.729c0.121,2.117,1.416,3.489,3.32,3.489c0.958,0,1.746-0.31,2.485-0.798l0.605,1.109
		c-0.876,0.572-1.939,1.035-3.299,1.035C98.867,109.834,96.747,107.887,96.747,104.605z M103.731,103.788
		c0-2.003-0.9-3.091-2.463-3.091c-1.404,0-2.66,1.127-2.865,3.091H103.731z"/>
	<path style="fill:#FFFFFF;" d="M108.212,108.447l0.834-1.113c0.868,0.699,1.75,1.184,2.949,1.184c1.312,0,1.963-0.699,1.963-1.552
		c0-1.028-1.179-1.482-2.284-1.894c-1.4-0.512-2.979-1.201-2.979-2.886c0-1.599,1.28-2.837,3.445-2.837
		c1.244,0,2.332,0.51,3.106,1.123l-0.809,1.084c-0.688-0.509-1.394-0.89-2.278-0.89c-1.258,0-1.839,0.671-1.839,1.433
		c0,0.95,1.086,1.312,2.218,1.733c1.44,0.544,3.046,1.13,3.046,3.031c0,1.62-1.287,2.97-3.645,2.97
		C110.52,109.834,109.151,109.232,108.212,108.447z"/>
	<path style="fill:#FFFFFF;" d="M124.59,104.605c0-3.252,2.191-5.256,4.492-5.256c2.549,0,3.986,1.83,3.986,4.689
		c0,0.355-0.029,0.713-0.078,0.959h-6.729c0.121,2.117,1.416,3.489,3.32,3.489c0.957,0,1.746-0.31,2.484-0.798l0.605,1.109
		c-0.875,0.572-1.939,1.035-3.299,1.035C126.711,109.834,124.59,107.887,124.59,104.605z M131.574,103.788
		c0-2.003-0.9-3.091-2.463-3.091c-1.404,0-2.66,1.127-2.865,3.091H131.574z"/>
	<path style="fill:#FFFFFF;" d="M136.451,104.605c0-3.241,2.045-5.256,4.324-5.256c1.16,0,1.922,0.438,2.799,1.158l-0.07-1.714
		v-3.849h1.689v14.643h-1.396l-0.143-1.18h-0.057c-0.775,0.777-1.84,1.426-3.031,1.426
		C138.07,109.834,136.451,107.936,136.451,104.605z M143.504,107.049v-5.237c-0.854-0.759-1.621-1.038-2.438-1.038
		c-1.598,0-2.867,1.541-2.867,3.816c0,2.396,0.99,3.822,2.742,3.822C141.865,108.412,142.666,107.962,143.504,107.049z"/>
	<path style="fill:#FFFFFF;" d="M150.074,105.928v-6.331h1.691v6.112c0,1.861,0.562,2.658,1.885,2.658
		c1.021,0,1.729-0.508,2.674-1.685v-7.086h1.691v9.991h-1.396l-0.143-1.564h-0.057c-0.926,1.091-1.924,1.811-3.295,1.811
		C151.02,109.834,150.074,108.477,150.074,105.928z"/>
	<path style="fill:#FFFFFF;" d="M162.289,104.605c0-3.334,2.252-5.256,4.807-5.256c1.311,0,2.219,0.541,2.922,1.174l-0.863,1.117
		c-0.582-0.525-1.197-0.883-1.982-0.883c-1.811,0-3.137,1.559-3.137,3.848s1.254,3.822,3.09,3.822c0.914,0,1.723-0.444,2.346-0.996
		l0.734,1.133c-0.898,0.801-2.031,1.27-3.23,1.27C164.316,109.834,162.289,107.914,162.289,104.605z"/>
	<path style="fill:#FFFFFF;" d="M173.213,106.994c0-2.177,1.879-3.265,6.137-3.729c-0.004-1.285-0.43-2.523-2.062-2.523
		c-1.154,0-2.195,0.548-2.979,1.071l-0.662-1.159c0.92-0.604,2.32-1.305,3.924-1.305c2.439,0,3.471,1.621,3.471,4.109v6.129h-1.396
		l-0.143-1.194h-0.057c-0.953,0.792-2.064,1.44-3.305,1.44C174.469,109.834,173.213,108.797,173.213,106.994z M179.35,107.15v-2.775
		c-3.348,0.402-4.48,1.223-4.48,2.5c0,1.135,0.771,1.598,1.752,1.598C177.586,108.473,178.383,108.003,179.35,107.15z"/>
	<path style="fill:#FFFFFF;" d="M185.852,106.499v-5.524h-1.486v-1.28l1.562-0.098l0.203-2.802h1.412v2.802h2.707v1.378h-2.707
		v5.554c0,1.222,0.393,1.929,1.545,1.929c0.354,0,0.812-0.134,1.137-0.268l0.328,1.275c-0.561,0.189-1.23,0.369-1.855,0.369
		C186.572,109.834,185.852,108.486,185.852,106.499z"/>
	<path style="fill:#FFFFFF;" d="M193.838,96.451c0-0.664,0.512-1.092,1.168-1.092c0.658,0,1.168,0.428,1.168,1.092
		c0,0.638-0.51,1.092-1.168,1.092C194.35,97.543,193.838,97.089,193.838,96.451z M194.148,99.597h1.689v9.991h-1.689V99.597z"/>
	<path style="fill:#FFFFFF;" d="M199.414,99.597h1.742l1.891,5.676c0.297,0.976,0.623,1.993,0.922,2.946h0.082
		c0.297-0.953,0.623-1.971,0.922-2.946l1.889-5.676h1.656l-3.533,9.991h-1.965L199.414,99.597z"/>
	<path style="fill:#FFFFFF;" d="M211.27,104.605c0-3.334,2.18-5.256,4.629-5.256s4.631,1.922,4.631,5.256
		c0,3.309-2.182,5.229-4.631,5.229S211.27,107.914,211.27,104.605z M218.781,104.605c0-2.289-1.164-3.848-2.883-3.848
		s-2.883,1.559-2.883,3.848s1.164,3.822,2.883,3.822S218.781,106.895,218.781,104.605z"/>
	<path style="fill:#FFFFFF;" d="M223.652,108.447l0.834-1.113c0.869,0.699,1.75,1.184,2.949,1.184c1.312,0,1.963-0.699,1.963-1.552
		c0-1.028-1.178-1.482-2.283-1.894c-1.4-0.512-2.98-1.201-2.98-2.886c0-1.599,1.281-2.837,3.445-2.837
		c1.244,0,2.332,0.51,3.107,1.123l-0.809,1.084c-0.688-0.509-1.395-0.89-2.279-0.89c-1.258,0-1.838,0.671-1.838,1.433
		c0,0.95,1.086,1.312,2.217,1.733c1.441,0.544,3.047,1.13,3.047,3.031c0,1.62-1.287,2.97-3.645,2.97
		C225.961,109.834,224.592,109.232,223.652,108.447z"/>
</g>
</svg>
