<?xml version="1.0" encoding="utf-8"?>
<!-- Generator: Adobe Illustrator 23.0.6, SVG Export Plug-In . SVG Version: 6.00 Build 0)  -->
<svg version="1.1" id="Layer_1" xmlns="http://www.w3.org/2000/svg" xmlns:xlink="http://www.w3.org/1999/xlink" x="0px" y="0px"
	 viewBox="0 0 237 242" style="enable-background:new 0 0 237 242;" xml:space="preserve">
<style type="text/css">
	.st0{fill:#00618E;}
	.st1{fill:#5B9A3E;}
	.st2{fill:#42649D;}
</style>
<g>
	<path class="st0" d="M24.9,212.5c0-2.5,2.2-3.7,7-4.2c0-1.4-0.5-2.9-2.3-2.9c-1.4,0-2.5,0.6-3.4,1.3l-0.7-1.4
		c1.1-0.7,2.6-1.5,4.5-1.5c2.8,0,4,1.9,4,4.7v7h-1.6l-0.2-1.4H32c-1.1,0.9-2.3,1.6-3.8,1.6C26.3,215.7,24.9,214.5,24.9,212.5z
		 M31.9,212.6v-3.2c-3.8,0.5-5.1,1.4-5.1,2.9c0,1.3,0.9,1.8,2,1.8C29.9,214.2,30.8,213.6,31.9,212.6z"/>
	<path class="st0" d="M39.6,211.3v-7.2h1.9v6.9c0,2.2,0.6,3.1,2.2,3.1c1.2,0,2-0.5,3.1-1.9v-8.1h1.9v11.3H47l-0.2-1.8l0,0
		c-1.1,1.3-2.2,2.1-3.8,2.1C40.7,215.7,39.6,214.2,39.6,211.3z"/>
	<path class="st0" d="M54.8,213.2v-14.4h1.9v14.5c0,0.6,0.3,0.8,0.5,0.8c0.1,0,0.2,0,0.5-0.1l0.3,1.4c-0.3,0.1-0.6,0.2-1.1,0.2
		C55.4,215.7,54.8,214.8,54.8,213.2z"/>
	<path class="st0" d="M62.4,212.5c0-2.5,2.2-3.7,7-4.2c0-1.4-0.5-2.9-2.3-2.9c-1.4,0-2.5,0.6-3.4,1.3l-0.7-1.4
		c1.1-0.7,2.6-1.5,4.5-1.5c2.8,0,4,1.9,4,4.7v7h-1.6l-0.2-1.4h-0.1c-1.1,0.9-2.3,1.6-3.8,1.6C63.8,215.7,62.4,214.5,62.4,212.5z
		 M69.4,212.6v-3.2c-3.8,0.5-5.1,1.4-5.1,2.9c0,1.3,0.9,1.8,2,1.8C67.4,214.2,68.3,213.6,69.4,212.6z"/>
	<path class="st0" d="M76,214.2l1-1.3c1,0.8,2,1.4,3.3,1.4c1.5,0,2.3-0.8,2.3-1.8c0-1.2-1.4-1.7-2.6-2.2c-1.6-0.5-3.4-1.4-3.4-3.2
		c0-1.8,1.4-3.2,4-3.2c1.4,0,2.6,0.5,3.5,1.3l-0.9,1.3c-0.8-0.5-1.6-1-2.6-1c-1.4,0-2.1,0.7-2.1,1.6c0,1.1,1.3,1.5,2.5,2
		c1.6,0.6,3.5,1.3,3.5,3.4c0,1.9-1.4,3.4-4.1,3.4C78.7,215.7,77,215.1,76,214.2z"/>
	<path class="st0" d="M94.8,204.1h2l2.2,6.5c0.4,1.1,0.7,2.3,1.1,3.3h0.1c0.4-1.1,0.7-2.3,1.1-3.3l2.2-6.5h1.9l-4.1,11.3h-2.3
		L94.8,204.1z"/>
	<path class="st0" d="M109.4,200.5c0-0.7,0.5-1.3,1.4-1.3c0.7,0,1.4,0.4,1.4,1.3c0,0.7-0.5,1.3-1.4,1.3S109.4,201.2,109.4,200.5z
		 M109.7,204.1h1.9v11.3h-1.9V204.1z"/>
	<path class="st0" d="M117.8,204.1h1.6l0.2,2.1h0.1c0.8-1.4,2-2.3,3.2-2.3c0.5,0,0.9,0.1,1.2,0.3l-0.4,1.7c-0.4-0.1-0.6-0.2-1.1-0.2
		c-1,0-2.1,0.7-2.9,2.6v7.3h-1.9L117.8,204.1L117.8,204.1z"/>
	<path class="st0" d="M128.6,211.9v-6.3h-1.7v-1.4l1.8-0.1l0.3-3.2h1.6v3.2h3.1v1.5h-3.2v6.3c0,1.4,0.5,2.2,1.8,2.2
		c0.4,0,0.9-0.2,1.3-0.3l0.4,1.4c-0.6,0.2-1.4,0.5-2.1,0.5C129.4,215.7,128.6,214.2,128.6,211.9z"/>
	<path class="st0" d="M138.3,211.3v-7.2h1.9v6.9c0,2.2,0.6,3.1,2.2,3.1c1.2,0,2-0.5,3.1-1.9v-8.1h1.9v11.3h-1.5l-0.2-1.8h-0.1
		c-1.1,1.3-2.2,2.1-3.8,2.1C139.4,215.7,138.3,214.2,138.3,211.3z"/>
	<path class="st0" d="M152.8,212.5c0-2.5,2.2-3.7,7-4.2c0-1.4-0.4-2.9-2.3-2.9c-1.4,0-2.5,0.6-3.4,1.3l-0.7-1.4
		c1.1-0.7,2.6-1.5,4.5-1.5c2.8,0,4,1.9,4,4.7v7h-1.6l-0.2-1.4h-0.1c-1.1,0.9-2.3,1.6-3.8,1.6C154.3,215.7,152.8,214.5,152.8,212.5z
		 M159.8,212.6v-3.2c-3.8,0.5-5.1,1.4-5.1,2.9c0,1.3,0.9,1.8,2,1.8C157.9,214.2,158.8,213.6,159.8,212.6z"/>
	<path class="st0" d="M167.7,213.2v-14.4h1.9v14.5c0,0.6,0.3,0.8,0.5,0.8c0.1,0,0.2,0,0.4-0.1l0.3,1.4c-0.3,0.1-0.6,0.2-1.1,0.2
		C168.3,215.7,167.7,214.8,167.7,213.2z"/>
	<path class="st0" d="M175.1,209.8c0-3.7,2.5-5.9,5.1-5.9c2.9,0,4.5,2.1,4.5,5.3c0,0.4,0,0.8-0.1,1.1H177c0.2,2.4,1.6,4,3.8,4
		c1.1,0,2-0.4,2.8-0.9l0.7,1.3c-1,0.6-2.3,1.2-3.8,1.2C177.6,215.7,175.1,213.5,175.1,209.8z M183.2,208.9c0-2.3-1-3.5-2.8-3.5
		c-1.6,0-3.1,1.3-3.2,3.5H183.2z"/>
	<path class="st0" d="M188.7,214.2l1-1.3c1,0.8,2,1.4,3.3,1.4c1.5,0,2.3-0.8,2.3-1.8c0-1.2-1.4-1.7-2.6-2.2
		c-1.6-0.5-3.4-1.4-3.4-3.3c0-1.8,1.4-3.2,4-3.2c1.4,0,2.6,0.5,3.5,1.3l-0.9,1.3c-0.8-0.5-1.6-1-2.6-1c-1.4,0-2.1,0.7-2.1,1.6
		c0,1.1,1.3,1.5,2.5,2c1.6,0.6,3.5,1.3,3.5,3.4c0,1.9-1.4,3.4-4.1,3.4C191.3,215.7,189.7,215.1,188.7,214.2z"/>
	<path class="st0" d="M208,220.1l0.4-1.5c0.2,0.1,0.5,0.2,0.9,0.2c1.3,0,2.1-1,2.6-2.4l0.3-0.8l-4.6-11.4h2l2.3,6.3
		c0.4,1,0.7,2.2,1.1,3.2h0.1c0.4-1.1,0.6-2.2,1-3.2l2.1-6.3h1.9l-4.4,12.3c-0.8,2.3-2,4-4.2,4C208.8,220.4,208.4,220.3,208,220.1z"
		/>
	<path class="st0" d="M24.7,228.1c0-2,1.7-3,5.5-3.3c0-1.2-0.4-2.3-1.9-2.3c-1.1,0-2,0.5-2.7,1l-0.6-1.1c0.8-0.5,2.1-1.2,3.5-1.2
		c2.2,0,3.2,1.4,3.2,3.7v5.5h-1.3l-0.1-1.1h-0.1c-0.9,0.7-1.9,1.3-3,1.3C25.7,230.6,24.7,229.7,24.7,228.1z M30.2,228.3v-2.5
		c-3,0.4-4.1,1.1-4.1,2.3c0,1,0.7,1.4,1.6,1.4C28.5,229.5,29.3,229,30.2,228.3z"/>
	<path class="st0" d="M36,221.5h1.3l0.1,1.3h0.1c0.8-0.8,1.7-1.5,2.8-1.5c1.4,0,2.1,0.6,2.5,1.7c0.9-1,1.9-1.7,3-1.7
		c1.9,0,2.7,1.3,2.7,3.5v5.7h-1.5v-5.5c0-1.7-0.5-2.4-1.7-2.4c-0.7,0-1.4,0.5-2.3,1.4v6.5h-1.5v-5.5c0-1.7-0.5-2.4-1.7-2.4
		c-0.6,0-1.4,0.5-2.3,1.4v6.5H36V221.5L36,221.5z"/>
	<path class="st0" d="M54.2,229.6L54.2,229.6l-0.2,0.9h-1.3v-13.2h1.5v3.6l-0.1,1.6c0.8-0.7,1.8-1.3,2.8-1.3c2.3,0,3.6,1.8,3.6,4.6
		c0,3.1-1.8,4.9-3.9,4.9C56,230.6,55,230.3,54.2,229.6z M59.1,225.9c0-2-0.7-3.3-2.3-3.3c-0.7,0-1.5,0.5-2.4,1.3v4.7
		c0.8,0.7,1.6,0.9,2.2,0.9C58.1,229.4,59.1,228,59.1,225.9z"/>
	<path class="st0" d="M64.3,218.7c0-0.6,0.5-1,1.1-1c0.6,0,1.1,0.4,1.1,1c0,0.5-0.5,1-1.1,1C64.7,219.7,64.3,219.2,64.3,218.7z
		 M64.5,221.5h1.5v9h-1.5V221.5z"/>
	<path class="st0" d="M69.9,226c0-3,2-4.8,4.1-4.8c2.3,0,3.6,1.6,3.6,4.2c0,0.4,0,0.6-0.1,0.9h-6c0.1,1.9,1.3,3.2,3,3.2
		c0.9,0,1.5-0.3,2.3-0.7l0.5,1c-0.8,0.5-1.7,0.9-3,0.9C71.8,230.6,69.9,228.9,69.9,226z M76.1,225.2c0-1.8-0.8-2.8-2.3-2.8
		c-1.3,0-2.4,1-2.6,2.8H76.1z"/>
	<path class="st0" d="M81.2,221.5h1.3l0.1,1.3h0.1c0.9-0.8,1.8-1.5,3.1-1.5c1.9,0,2.8,1.3,2.8,3.5v5.7h-1.5v-5.5
		c0-1.7-0.5-2.4-1.7-2.4c-0.9,0-1.5,0.5-2.4,1.4v6.5h-1.5L81.2,221.5L81.2,221.5z"/>
	<path class="st0" d="M93.1,227.7v-5h-1.4v-1.2l1.4-0.1l0.2-2.5h1.3v2.5H97v1.3h-2.4v5c0,1.1,0.4,1.7,1.4,1.7c0.4,0,0.7-0.1,1-0.3
		l0.3,1.2c-0.5,0.2-1.1,0.4-1.7,0.4C93.7,230.6,93.1,229.5,93.1,227.7z"/>
	<path class="st0" d="M99.6,226c0-3,2-4.8,4.1-4.8c2.3,0,3.6,1.6,3.6,4.2c0,0.4,0,0.6-0.1,0.9h-6c0.1,1.9,1.3,3.2,3,3.2
		c0.9,0,1.5-0.3,2.3-0.7l0.5,1c-0.8,0.5-1.7,0.9-3,0.9C101.5,230.6,99.6,228.9,99.6,226z M105.9,225.2c0-1.8-0.8-2.8-2.3-2.8
		c-1.3,0-2.4,1-2.6,2.8H105.9z"/>
	<path class="st0" d="M109.9,229.4l0.7-1c0.8,0.6,1.6,1.1,2.6,1.1c1.2,0,1.8-0.6,1.8-1.4c0-0.9-1.1-1.4-2.1-1.7
		c-1.3-0.5-2.7-1.1-2.7-2.6c0-1.4,1.2-2.5,3.1-2.5c1.1,0,2.1,0.5,2.8,1l-0.7,1c-0.6-0.5-1.3-0.8-2.1-0.8c-1.2,0-1.6,0.6-1.6,1.3
		c0,0.8,1,1.2,2,1.5c1.3,0.5,2.7,1,2.7,2.7c0,1.4-1.2,2.7-3.2,2.7C112,230.6,110.8,230.1,109.9,229.4z"/>
	<path class="st0" d="M124.7,226c0-3,2-4.8,4.1-4.8c2.3,0,3.6,1.6,3.6,4.2c0,0.4,0,0.6-0.1,0.9h-6c0.1,1.9,1.3,3.2,3,3.2
		c0.9,0,1.5-0.3,2.3-0.7l0.5,1c-0.8,0.5-1.7,0.9-3,0.9C126.5,230.6,124.7,228.9,124.7,226z M131,225.2c0-1.8-0.8-2.8-2.3-2.8
		c-1.3,0-2.4,1-2.6,2.8H131z"/>
	<path class="st0" d="M135.4,226c0-2.9,1.8-4.8,3.9-4.8c1.1,0,1.7,0.4,2.5,1.1l-0.1-1.5v-3.4h1.5v13.1h-1.3l-0.1-1.1h-0.1
		c-0.7,0.7-1.6,1.3-2.7,1.3C136.8,230.6,135.4,228.9,135.4,226z M141.7,228.1v-4.7c-0.8-0.7-1.4-0.9-2.2-0.9c-1.4,0-2.6,1.4-2.6,3.4
		c0,2.2,0.9,3.4,2.4,3.4C140.2,229.4,140.9,229,141.7,228.1z"/>
	<path class="st0" d="M147.6,227.1v-5.7h1.5v5.5c0,1.7,0.5,2.4,1.7,2.4c0.9,0,1.5-0.4,2.4-1.5v-6.4h1.5v9h-1.3l-0.1-1.4h-0.1
		c-0.8,1-1.7,1.6-3,1.6C148.4,230.6,147.6,229.5,147.6,227.1z"/>
	<path class="st0" d="M158.6,226c0-3,2.1-4.8,4.3-4.8c1.2,0,2,0.5,2.6,1.1l-0.8,1c-0.5-0.5-1.1-0.8-1.8-0.8c-1.6,0-2.8,1.4-2.8,3.4
		c0,2,1.2,3.4,2.8,3.4c0.8,0,1.5-0.4,2.1-0.9l0.6,1c-0.8,0.7-1.8,1.2-2.9,1.2C160.4,230.6,158.6,228.9,158.6,226z"/>
	<path class="st0" d="M168.4,228.1c0-2,1.7-3,5.5-3.3c0-1.2-0.4-2.3-1.9-2.3c-1.1,0-2,0.5-2.7,1l-0.6-1.1c0.8-0.5,2.1-1.2,3.5-1.2
		c2.2,0,3.2,1.4,3.2,3.7v5.5h-1.3l-0.1-1.1h-0.1c-0.9,0.7-1.9,1.3-3,1.3C169.6,230.6,168.4,229.7,168.4,228.1z M174,228.3v-2.5
		c-3,0.4-4.1,1.1-4.1,2.3c0,1,0.7,1.4,1.6,1.4C172.4,229.5,173.1,229,174,228.3z"/>
	<path class="st0" d="M179.8,227.7v-5h-1.4v-1.2l1.4-0.1l0.2-2.5h1.3v2.5h2.4v1.3h-2.4v5c0,1.1,0.4,1.7,1.4,1.7c0.4,0,0.7-0.1,1-0.3
		l0.3,1.2c-0.5,0.2-1.1,0.4-1.7,0.4C180.5,230.6,179.8,229.5,179.8,227.7z"/>
	<path class="st0" d="M187,218.7c0-0.6,0.4-1,1.1-1s1.1,0.4,1.1,1c0,0.5-0.5,1-1.1,1S187,219.2,187,218.7z M187.3,221.5h1.5v9h-1.5
		V221.5z"/>
	<path class="st0" d="M192,221.5h1.5l1.7,5.1c0.3,0.9,0.5,1.8,0.8,2.6h0.1c0.3-0.9,0.5-1.8,0.8-2.6l1.7-5.1h1.5l-3.2,9h-1.8
		L192,221.5z"/>
	<path class="st0" d="M202.7,226c0-3,2-4.8,4.1-4.8c2.2,0,4.1,1.7,4.1,4.8c0,3-2,4.7-4.1,4.7C204.7,230.6,202.7,228.9,202.7,226z
		 M209.4,226c0-2.1-1.1-3.4-2.6-3.4c-1.5,0-2.6,1.4-2.6,3.4c0,2,1.1,3.4,2.6,3.4C208.4,229.4,209.4,228,209.4,226z"/>
	<path class="st0" d="M213.8,229.4l0.7-1c0.8,0.6,1.6,1.1,2.6,1.1c1.2,0,1.8-0.6,1.8-1.4c0-0.9-1.1-1.4-2.1-1.7
		c-1.3-0.5-2.7-1.1-2.7-2.6c0-1.4,1.2-2.5,3.1-2.5c1.1,0,2.1,0.5,2.8,1l-0.7,1c-0.6-0.5-1.3-0.8-2.1-0.8c-1.2,0-1.6,0.6-1.6,1.3
		c0,0.8,1,1.2,2,1.5c1.3,0.5,2.7,1,2.7,2.7c0,1.4-1.2,2.7-3.2,2.7C215.9,230.6,214.7,230.1,213.8,229.4z"/>
</g>
<g>
	<path class="st1" d="M137.5,83.9l-29.1-64.4c-2.3-5.2-7.5-8.6-13.2-8.6c0,0,0,0,0,0c-5.9,0-11.1,3.5-13.4,8.9L25,152.8
		c-0.2,0.5-0.2,1.2,0.2,1.7s0.9,0.8,1.5,0.8h12.7c0.1,0,0.3,0,0.4,0c3.1,0,5.8-1.9,6.9-4.8l13.6-32.6c1.8-4.2,5.9-7,10.4-7h18.3
		c1.3,0,2.4-0.7,3-1.8c0.6-1.1,0.5-2.4-0.1-3.5l-5.7-8.7c-1.9-3-5.2-4.7-8.8-4.7h-6.2l23.5-55.5c0.1-0.3,0.4-0.4,0.7-0.3
		c0.1,0,0.2,0.1,0.2,0.2c0,0,0,0,0,0l15.8,35l6.8,15.2l9.4,20.6c0.5,1,1.5,1.7,2.7,1.6c1.1-0.1,2.1-0.8,2.5-1.9
		c0.4-1.3,1-2.9,1.7-4.7c1.2-3.4,2.5-7.2,3.5-10C138.9,89.6,138.8,86.6,137.5,83.9z"/>
	<path class="st2" d="M172.1,68.1c-0.3-0.5-0.9-0.8-1.4-0.8l-9.8,0c0,0,0,0-0.1,0c-4.4,0-8.3,2.7-9.9,6.8c0,0,0,0,0,0l-21,58.3
		l-23-57.3c-1.7-4.1-5.6-6.7-10-6.7H86.4c-0.6,0-1.1,0.3-1.5,0.8c-0.3,0.5-0.4,1.1-0.2,1.6l32.5,81.2c2.1,5.3,7.3,8.6,12.7,8.6
		c1.7,0,3.4-0.3,5.1-1c3.6-1.5,6.4-4.4,7.7-8l29.7-81.9C172.5,69.2,172.4,68.6,172.1,68.1z"/>
	<path class="st1" d="M214.2,82.4c-7.7-18.8-22.1-33.6-40.6-41.8C173.2,33,166.9,27,159.2,27c-7.9,0-14.4,6.4-14.4,14.4
		s6.4,14.4,14.4,14.4c3.7,0,7-1.4,9.6-3.7c14,6.4,25.3,17.4,32.1,31.3c7.8,16,8.9,34.1,3.2,50.9c-5.8,16.8-17.8,30.4-33.7,38.2
		c-16,7.8-34.1,8.9-50.9,3.2c-16.8-5.8-30.4-17.8-38.2-33.7c-0.6-1.2-2-2.8-4-3.4c-1.6-0.5-3.2-0.3-4.8,0.5c-3.6,1.9-3.1,6.2-2.3,8
		c0,0,0,0,0,0c7.1,14.5,18.3,26.3,32.4,34.2c11.9,6.7,25.1,10.1,38.5,10.1c2.5,0,5-0.1,7.6-0.4c0.2,0,0.4-0.1,0.5-0.1
		c28.9-2.9,53.7-21.3,64.9-48.1C222.2,123.3,222.2,101.9,214.2,82.4z M159.2,48.8c-4.1,0-7.5-3.3-7.5-7.5s3.3-7.5,7.5-7.5
		s7.5,3.3,7.5,7.5S163.4,48.8,159.2,48.8z"/>
</g>
</svg>
