<?xml version="1.0" encoding="utf-8"?>
<!-- Generator: Adobe Illustrator 23.0.6, SVG Export Plug-In . SVG Version: 6.00 Build 0)  -->
<svg version="1.1" id="Layer_1" xmlns="http://www.w3.org/2000/svg" xmlns:xlink="http://www.w3.org/1999/xlink" x="0px" y="0px"
	 viewBox="0 0 462 141.2" style="enable-background:new 0 0 462 141.2;" xml:space="preserve">
<style type="text/css">
	.st0{fill:#FFFFFF;}
	.st1{fill:#3A653C;}
</style>
<g>
	<path class="st0" d="M89.6,53.9l-21.2-47c-1.7-3.8-5.5-6.2-9.6-6.2l0,0c-4.3,0-8.1,2.5-9.8,6.5L7.5,104.3c-0.2,0.4-0.1,0.9,0.1,1.2
		s0.6,0.6,1.1,0.6H18c0.1,0,0.2,0,0.3,0c2.3,0,4.3-1.4,5.1-3.5l9.9-23.8c1.3-3.1,4.3-5.1,7.6-5.1h13.4c0.9,0,1.7-0.5,2.2-1.3
		c0.4-0.8,0.4-1.8-0.1-2.5L52,63.4c-1.4-2.2-3.8-3.5-6.4-3.5h-4.5l17.2-40.5c0.1-0.2,0.3-0.3,0.5-0.2c0.1,0,0.1,0.1,0.2,0.2l0,0
		l11.5,25.5l5,11.1l6.8,15c0.3,0.8,1.1,1.2,1.9,1.2s1.6-0.6,1.8-1.4c0.3-0.9,0.7-2.1,1.2-3.4c0.9-2.5,1.9-5.3,2.5-7.3
		C90.6,58.1,90.5,55.9,89.6,53.9z"/>
	<path class="st0" d="M114.8,42.4c-0.2-0.3-0.6-0.5-1.1-0.5h-7.2l0,0c-3.2,0-6.1,2-7.3,4.9l0,0L83.9,89.4L67.1,47.6
		c-1.2-3-4.1-4.9-7.3-4.9h-7.5c-0.4,0-0.8,0.2-1.1,0.6c-0.2,0.4-0.3,0.8-0.1,1.2l23.7,59.2c1.6,3.9,5.3,6.3,9.2,6.3
		c1.2,0,2.5-0.2,3.7-0.7c2.6-1.1,4.7-3.2,5.6-5.8L115,43.6C115.1,43.2,115,42.7,114.8,42.4z"/>
	<path class="st0" d="M145.5,52.8c-5.7-13.7-16.1-24.5-29.6-30.5c-0.3-5.5-4.9-9.9-10.5-9.9c-5.8,0-10.5,4.7-10.5,10.5
		s4.7,10.5,10.5,10.5c2.7,0,5.1-1,7-2.7c10.2,4.7,18.5,12.7,23.4,22.8c5.7,11.7,6.5,24.9,2.3,37.2s-13,22.2-24.6,27.9
		c-11.7,5.7-24.9,6.5-37.2,2.3s-22.2-13-27.9-24.6c-0.4-0.9-1.5-2-2.9-2.5c-1.2-0.4-2.4-0.3-3.5,0.4c-2.6,1.4-2.2,4.6-1.7,5.8l0,0
		c5.2,10.6,13.3,19.2,23.6,25c8.7,4.9,18.3,7.4,28.1,7.4c1.8,0,3.7-0.1,5.5-0.3c0.1,0,0.3,0,0.4-0.1c21.1-2.1,39.2-15.6,47.4-35.1
		C151.4,82.7,151.4,67,145.5,52.8z M105.4,28.3c-3,0-5.5-2.4-5.5-5.5s2.4-5.5,5.5-5.5c3,0,5.5,2.4,5.5,5.5S108.5,28.3,105.4,28.3z"
		/>
</g>
<g>
	<g>
		<path class="st1" d="M165.2,25.7h11.9c7.3,0,13.1,2.6,13.1,10.8c0,7.9-6,11.3-13.1,11.3h-4.3v11.3h-7.6V25.7z M176.7,41.8
			c4.1,0,6.1-1.9,6.1-5.3c0-3.5-2.1-4.8-6.1-4.8h-3.9v10.1H176.7z"/>
		<path class="st1" d="M194.6,46.5c0-8.5,6.3-13.4,13-13.4c6.7,0,13,4.9,13,13.4c0,8.5-6.3,13.3-13,13.3
			C200.9,59.8,194.6,54.9,194.6,46.5z M212.9,46.5c0-4.4-1.8-7.3-5.3-7.3c-3.5,0-5.3,2.9-5.3,7.3c0,4.4,1.8,7.2,5.3,7.2
			C211.1,53.7,212.9,50.9,212.9,46.5z"/>
		<path class="st1" d="M228.9,33.7h6.2l0.6,5.6h0.2c2.5-4.2,6.3-6.2,10.3-6.2c2.2,0,3.4,0.4,4.9,1l-1.5,6.3
			c-1.6-0.5-2.6-0.7-4.5-0.7c-3.2,0-6.4,1.6-8.6,6.2v13.2h-7.6V33.7z"/>
		<path class="st1" d="M262.8,48.6v-9h-6.4V34l6.8-0.3l1-7.8h6.2v7.8h10.7v5.9h-10.7v8.9c0,3.9,1.6,5.3,5.4,5.3c1.9,0,3.5-0.4,5-0.9
			l1.4,5.5c-2.3,0.7-4.9,1.4-8.3,1.4C265.6,59.8,262.8,55.3,262.8,48.6z"/>
		<path class="st1" d="M287.8,52.1c0-5.7,4.7-8.6,16.8-9.3c-0.3-2.3-2-3.7-5.4-3.7c-2.5,0-4.9,0.9-7.8,2.4l-2.7-4.9
			c3.5-2,7.6-3.4,11.9-3.4c7.2,0,11.5,3.7,11.5,11.5v14.6h-6.2l-0.5-2.9h-0.2c-2.6,1.9-5.8,3.5-9,3.5
			C291,59.8,287.8,56.4,287.8,52.1z M304.5,51.5v-4.2c-7.5,0.4-9.5,2-9.5,4.2c0,1.6,1.4,2.4,3.5,2.4
			C300.8,53.9,302.7,52.9,304.5,51.5z"/>
		<path class="st1" d="M326,49.2V29.1h-8v-5.9h15.6v26.3c0,3.1,2,4.2,4.2,4.2c1.2,0,2.4-0.2,4-0.8l1.7,5.6c-2.6,0.9-4.4,1.4-7.6,1.4
			C329.3,59.8,326,55.7,326,49.2z"/>
	</g>
	<g>
		<path class="st1" d="M165.2,72h9.2c9.7,0,16.1,5.1,16.1,16.6c0,11.5-6.4,16.9-15.7,16.9h-9.7V72z M174.1,99.4
			c5.2,0,8.7-2.8,8.7-10.8c0-8-3.5-10.5-8.7-10.5h-1.3v21.3H174.1z"/>
		<path class="st1" d="M194.8,92.8c0-8.5,6.3-13.4,13-13.4c6.7,0,13,4.9,13,13.4c0,8.5-6.3,13.3-13,13.3
			C201.1,106.1,194.8,101.2,194.8,92.8z M213.1,92.8c0-4.4-1.8-7.3-5.3-7.3c-3.5,0-5.3,2.9-5.3,7.3c0,4.4,1.8,7.2,5.3,7.2
			C211.3,100,213.1,97.2,213.1,92.8z"/>
		<path class="st1" d="M226.7,92.8c0-8.5,6.9-13.4,14.7-13.4c4,0,7.4,1.4,9.5,3.5l-3.5,4.7c-1.9-1.4-3.7-2-5.6-2
			c-4.4,0-7.4,2.9-7.4,7.3c0,4.4,3,7.2,7.2,7.2c2.7,0,4.9-1.2,6.7-2.4l3,4.8c-3.1,2.6-7,3.8-10.5,3.8
			C232.8,106.1,226.7,101.2,226.7,92.8z"/>
		<path class="st1" d="M256.9,92.7c0-8.3,6.4-13.3,13.3-13.3c7.9,0,12,5.3,12,12.2c0,1.4-0.2,2.8-0.3,3.4h-19.3v-5.1h14.2l-1.2,1.4
			c0-4.1-1.8-6.2-5.1-6.2c-3.7,0-6.2,2.5-6.2,7.6c0,5.3,2.9,7.6,7.8,7.6c2.3,0,4.3-0.6,6.6-1.8l2.5,4.6c-2.9,1.9-6.7,3-10.1,3
			C263,106.1,256.9,101.2,256.9,92.7z"/>
		<path class="st1" d="M288.5,80h6.2l0.5,3.4h0.2c2.2-2.2,5-4,8.8-4c5.8,0,8.3,3.9,8.3,10.4v15.7H305V90.7c0-3.4-1-4.9-3.7-4.9
			c-2,0-3.4,0.9-5.2,2.7v17h-7.6V80z"/>
		<path class="st1" d="M324.6,94.9v-9h-6.4v-5.6l6.8-0.3l1-7.8h6.2V80h10.7v5.9h-10.7v8.9c0,3.9,1.6,5.3,5.4,5.3
			c1.9,0,3.5-0.4,5-0.9l1.4,5.5c-2.3,0.7-4.9,1.4-8.3,1.4C327.5,106.1,324.6,101.6,324.6,94.9z"/>
		<path class="st1" d="M349.3,92.7c0-8.3,6.4-13.3,13.3-13.3c7.9,0,12,5.3,12,12.2c0,1.4-0.2,2.8-0.3,3.4h-19.3v-5.1h14.2l-1.2,1.4
			c0-4.1-1.8-6.2-5.1-6.2c-3.7,0-6.2,2.5-6.2,7.6c0,5.3,2.9,7.6,7.8,7.6c2.3,0,4.3-0.6,6.6-1.8l2.5,4.6c-2.9,1.9-6.7,3-10.1,3
			C355.4,106.1,349.3,101.2,349.3,92.7z"/>
		<path class="st1" d="M380,102.2l3.2-4.7c3.1,1.9,6.6,3,10.3,3c2.8,0,4-0.9,4-2.2c0-1.4-1.2-1.9-6.2-3c-6.9-1.5-9.7-4-9.7-8
			c0-4.7,4.4-8,11.7-8c4.5,0,8.4,1.8,11,3.5l-3.4,4.5c-2.6-1.6-5.5-2.4-8.3-2.4c-2.4,0-3.5,0.8-3.5,2c0,1.4,1.6,1.7,5.9,2.7
			c7.9,1.8,10,4,10,8.1c0,4.6-4.4,8.2-12.6,8.2C387.9,106.1,383.2,104.3,380,102.2z"/>
	</g>
</g>
</svg>
