<?xml version="1.0" encoding="utf-8"?>
<!-- Generator: Adobe Illustrator 16.0.0, SVG Export Plug-In . SVG Version: 6.00 Build 0)  -->
<!DOCTYPE svg PUBLIC "-//W3C//DTD SVG 1.1//EN" "http://www.w3.org/Graphics/SVG/1.1/DTD/svg11.dtd">
<svg version="1.1" id="Layer_1" xmlns="http://www.w3.org/2000/svg" xmlns:xlink="http://www.w3.org/1999/xlink" x="0px" y="0px"
	 width="1298.5px" height="477.5px" viewBox="0 0 1298.5 477.5" enable-background="new 0 0 1298.5 477.5" xml:space="preserve">
<g>
	<path fill="#FFFFFF" d="M296.907,182.842L223.646,20.425C217.771,7.294,204.64-1,190.472-1l0,0
		c-14.859,0-27.991,8.639-33.866,22.462L13.196,357.008c-0.691,1.383-0.345,3.11,0.346,4.146c0.691,1.037,2.073,2.072,3.801,2.072
		H49.48c0.346,0,0.691,0,1.037,0c7.948,0,14.859-4.838,17.624-12.097l34.211-82.246c4.492-10.712,14.859-17.624,26.263-17.624
		h46.306c3.11,0,5.875-1.728,7.603-4.491c1.382-2.767,1.382-6.222-0.346-8.641l-15.205-22.462
		c-4.838-7.603-13.132-12.095-22.117-12.095h-15.55l59.438-139.955c0.346-0.691,1.037-1.037,1.728-0.691
		c0.345,0,0.345,0.346,0.691,0.691l0,0l39.74,88.12l17.278,38.358l23.499,51.835c1.037,2.766,3.801,4.147,6.565,4.147
		c2.764,0,5.529-2.074,6.221-4.839c1.036-3.109,2.419-7.258,4.146-11.75c3.107-8.639,6.562-18.314,8.639-25.228
		C300.362,197.356,300.017,189.754,296.907,182.842z"/>
	<path fill="#FFFFFF" d="M383.99,143.102c-0.691-1.037-2.074-1.728-3.806-1.728h-24.881l0,0c-11.058,0-21.079,6.911-25.227,16.933
		l0,0l-52.872,147.212L219.15,161.072c-4.147-10.367-14.168-16.933-25.227-16.933H168.01c-1.382,0-2.765,0.691-3.801,2.073
		c-0.691,1.382-1.037,2.765-0.346,4.147l81.899,204.577c5.529,13.479,18.315,21.771,31.792,21.771c4.147,0,8.643-0.689,12.786-2.419
		c8.985-3.802,16.242-11.062,19.354-20.043l74.984-206.995C385.026,145.866,384.681,144.139,383.99,143.102z"/>
	<path fill="#FFFFFF" d="M490.079,179.041c-19.697-47.343-55.637-84.664-102.288-105.398c-1.037-19.006-16.933-34.211-36.284-34.211
		c-20.043,0-36.285,16.242-36.285,36.285c0,20.042,16.242,36.285,36.285,36.285c9.33,0,17.624-3.456,24.189-9.331
		c35.248,16.242,63.93,43.887,80.858,78.79c19.697,40.431,22.462,86.046,7.948,128.551s-44.924,76.716-85.01,96.413
		c-40.433,19.697-86.046,22.462-128.551,7.948c-42.505-14.514-76.716-44.924-96.413-85.01c-1.382-3.109-5.184-6.911-10.021-8.641
		c-4.147-1.385-8.294-1.037-12.095,1.381c-8.984,4.84-7.602,15.896-5.875,20.043l0,0c17.97,36.633,45.96,66.353,81.554,86.396
		c30.064,16.933,63.239,25.571,97.104,25.571c6.221,0,12.787-0.35,19.007-1.036c0.345,0,1.036,0,1.382-0.35
		c72.915-7.257,135.463-53.905,163.799-121.292C510.468,282.364,510.468,228.11,490.079,179.041z M351.507,94.377
		c-10.367,0-19.007-8.294-19.007-19.006s8.294-19.006,19.007-19.006c10.366,0,19.006,8.294,19.006,19.006
		S362.219,94.377,351.507,94.377z"/>
</g>
<g>
	<path fill="#FFFFFF" d="M540.367,322.277c0-9.404,7.995-13.636,26.335-15.988c0-5.173-1.882-10.816-8.937-10.816
		c-5.172,0-9.403,2.354-12.695,4.702l-2.822-5.172c4.232-2.821,9.876-5.641,16.929-5.641c10.347,0,15.05,7.055,15.05,17.396v26.338
		h-6.114l-0.472-5.176h-0.47c-4.231,3.293-8.934,6.11-14.106,6.11C545.541,334.033,540.367,329.802,540.367,322.277z
		 M566.231,322.748v-11.757c-14.107,1.882-19.28,5.173-19.28,10.815c0,4.703,3.291,6.584,7.522,6.584
		C558.706,328.391,562.47,326.51,566.231,322.748z"/>
	<path fill="#FFFFFF" d="M595.388,317.575v-26.804h7.055v25.868c0,7.991,2.353,11.285,7.995,11.285c4.23,0,7.523-1.884,11.284-7.058
		V290.3h7.055v42.324h-6.113l-0.471-6.585l0,0c-4.23,4.702-7.994,7.995-14.107,7.995
		C599.619,334.033,595.388,328.391,595.388,317.575z"/>
	<path fill="#FFFFFF" d="M652.286,324.628v-53.607h7.054v54.549c0,2.354,0.94,2.82,1.882,2.82c0.472,0,0.472,0,1.88-0.475
		l0.939,5.178c-0.939,0.471-2.351,0.471-4.229,0.471C654.638,334.033,652.286,330.741,652.286,324.628z"/>
	<path fill="#FFFFFF" d="M680.501,322.277c0-9.404,7.995-13.636,26.334-15.988c0-5.173-1.881-10.816-8.936-10.816
		c-5.174,0-9.403,2.354-12.696,4.702l-2.82-5.172c4.231-2.821,9.875-5.641,16.928-5.641c10.348,0,15.05,7.055,15.05,17.396v26.338
		h-6.115l-0.469-5.176h-0.472c-4.232,3.293-8.936,6.11-14.106,6.11C686.144,334.033,680.501,329.802,680.501,322.277z
		 M706.835,322.748v-11.757c-14.108,1.882-19.28,5.173-19.28,10.815c0,4.703,3.292,6.584,7.524,6.584
		C699.781,328.391,703.071,326.51,706.835,322.748z"/>
	<path fill="#FFFFFF" d="M731.757,328.391l3.765-4.703c3.764,2.823,7.523,5.174,12.696,5.174c5.643,0,8.464-2.821,8.464-6.584
		c0-4.231-5.172-6.582-9.875-7.994c-6.113-1.881-12.696-5.172-12.696-12.226c0-6.583,5.172-12.223,15.048-12.223
		c5.172,0,9.874,1.882,13.167,4.703l-3.293,4.703c-2.82-1.886-6.111-3.766-9.874-3.766c-5.173,0-7.994,2.821-7.994,6.113
		c0,4.233,4.701,5.643,9.402,7.524c6.114,2.351,13.166,4.702,13.166,12.696c0,7.055-5.172,12.696-15.518,12.696
		C741.633,334.033,735.521,331.682,731.757,328.391z"/>
	<path fill="#FFFFFF" d="M802.295,290.771h7.524l7.993,24.458c1.41,4.229,2.82,8.463,4.231,12.695h0.471
		c1.411-4.232,2.821-8.468,4.232-12.695l7.994-24.458h7.053l-15.047,42.327h-8.464L802.295,290.771z"/>
	<path fill="#FFFFFF" d="M856.844,277.134c0-2.821,1.88-4.702,5.172-4.702c2.822,0,5.172,1.881,5.172,4.702
		c0,2.821-1.88,4.703-5.172,4.703S856.844,279.955,856.844,277.134z M858.255,290.771h7.054v42.327h-7.054V290.771z"/>
	<path fill="#FFFFFF" d="M888.349,290.771h6.113l0.471,7.995h0.473c2.82-5.174,7.521-8.932,12.223-8.932
		c1.885,0,3.296,0.47,4.233,0.937l-1.412,6.585c-1.411-0.472-2.352-0.472-4.23-0.472c-3.763,0-7.995,2.822-10.815,9.875v27.274
		h-7.056L888.349,290.771L888.349,290.771z"/>
	<path fill="#FFFFFF" d="M928.791,319.927v-23.514h-6.584v-5.172l6.584-0.475l0.936-11.755h6.113v11.755h11.286v5.643h-11.755v23.51
		c0,5.177,1.88,7.995,6.583,7.995c1.41,0,3.292-0.473,4.702-0.938l1.411,5.172c-2.354,0.473-5.179,1.882-7.995,1.882
		C932.083,334.033,928.791,328.391,928.791,319.927z"/>
	<path fill="#FFFFFF" d="M965.471,317.575v-26.804h7.055v25.868c0,7.991,2.351,11.285,7.992,11.285
		c4.232,0,7.524-1.884,11.286-7.058V290.3h7.055v42.324h-5.173l-0.471-6.585h-0.47c-4.233,4.702-7.995,7.995-14.108,7.995
		C969.701,334.033,965.471,328.391,965.471,317.575z"/>
	<path fill="#FFFFFF" d="M1019.549,322.277c0-9.404,7.993-13.636,26.337-15.988c0-5.173-1.882-10.816-8.934-10.816
		c-5.174,0-9.406,2.354-12.698,4.702l-2.815-5.172c4.229-2.821,9.874-5.641,16.924-5.641c10.349,0,15.053,7.055,15.053,17.396
		v26.338h-6.112l-0.475-5.176h-0.471c-4.229,3.293-8.934,6.11-14.107,6.11C1025.191,334.033,1019.549,329.802,1019.549,322.277z
		 M1045.882,322.748v-11.757c-14.106,1.882-19.279,5.173-19.279,10.815c0,4.703,3.292,6.584,7.52,6.584
		C1038.828,328.391,1042.12,326.51,1045.882,322.748z"/>
	<path fill="#FFFFFF" d="M1075.507,324.628v-53.607h7.06v54.549c0,2.354,0.937,2.82,1.882,2.82c0.469,0,0.469,0,1.88-0.475
		l0.939,5.178c-0.939,0.471-2.354,0.471-4.231,0.471C1077.858,334.033,1075.507,330.741,1075.507,324.628z"/>
	<path fill="#FFFFFF" d="M1103.252,311.932c0-13.637,9.4-22.102,19.279-22.102c10.812,0,16.926,7.995,16.926,19.751
		c0,1.881,0,2.821-0.471,4.231h-28.686c0.471,8.932,6.113,15.047,14.107,15.047c4.228,0,7.521-1.41,10.346-3.291l2.821,4.701
		c-3.762,2.354-8.465,4.232-14.107,4.232C1112.656,334.033,1103.252,326.04,1103.252,311.932z M1133.348,308.642
		c0-8.469-3.762-13.17-10.346-13.17c-6.113,0-11.286,4.702-12.226,13.17H1133.348z"/>
	<path fill="#FFFFFF" d="M1154.509,328.391l3.763-4.703c3.763,2.823,7.523,5.174,12.696,5.174c5.642,0,8.464-2.821,8.464-6.584
		c0-4.231-5.173-6.582-9.875-7.994c-6.112-1.881-12.696-5.172-12.696-12.696c0-6.583,5.174-12.224,15.053-12.224
		c5.172,0,9.875,1.883,13.167,4.7l-3.292,4.703c-2.821-1.882-6.112-3.762-9.875-3.762c-5.178,0-7.994,2.821-7.994,6.113
		c0,4.229,4.698,5.641,9.4,7.52c6.112,2.354,13.171,4.703,13.171,12.696c0,7.058-5.178,12.696-15.519,12.696
		C1164.384,334.033,1158.271,331.682,1154.509,328.391z"/>
	<path fill="#FFFFFF" d="M1226.456,350.962l1.407-5.644c0.475,0.476,1.886,0.476,3.291,0.476c4.703,0,7.995-3.767,9.879-8.935
		l0.938-2.821l-17.398-42.789h7.523l8.934,23.51c1.409,3.765,2.819,7.993,4.229,12.226h0.474c1.407-4.23,2.354-7.994,3.765-12.226
		l7.993-23.51h7.054l-16.925,45.615c-2.821,8.465-7.523,15.051-15.988,15.051C1229.749,351.902,1227.867,351.432,1226.456,350.962z"
		/>
	<path fill="#FFFFFF" d="M539.428,380.588c0-7.52,6.584-11.287,20.691-12.695c0-4.229-1.412-8.467-7.057-8.467
		c-4.231,0-7.521,1.881-10.346,3.766l-2.352-4.231c2.82-1.88,7.994-4.231,13.167-4.231c7.994,0,11.755,5.177,11.755,13.637v20.691
		h-4.699l-0.47-4.232h-0.472c-3.293,2.822-7.057,4.703-11.285,4.703C543.19,390.463,539.428,386.701,539.428,380.588z
		 M560.119,381.527v-9.404c-11.285,1.412-15.049,4.232-15.049,8.465c0,3.766,2.82,5.176,6.112,5.176
		C554.003,385.76,556.355,384.352,560.119,381.527z"/>
	<path fill="#FFFFFF" d="M581.749,355.665h4.703l0.471,4.703h0.472c2.821-2.822,6.582-5.644,10.347-5.644
		c5.172,0,7.994,2.354,9.403,6.584c3.293-3.764,7.056-6.584,11.285-6.584c7.056,0,10.347,4.702,10.347,13.168v21.164h-5.646v-20.691
		c0-6.583-1.88-8.934-6.584-8.934c-2.821,0-5.172,1.881-8.463,5.176v24.453h-5.644v-20.694c0-6.583-1.882-8.935-6.583-8.935
		c-2.353,0-5.175,1.883-8.465,5.174v24.455h-5.173v-33.387h-0.472L581.749,355.665L581.749,355.665z"/>
	<path fill="#FFFFFF" d="M649.934,386.23L649.934,386.23l-0.471,3.293h-4.701v-49.375h5.644v13.637l-0.472,6.113
		c2.82-2.821,6.584-4.703,10.347-4.703c8.935,0,13.636,6.582,13.636,17.396c0,11.286-6.583,18.343-14.578,18.343
		C656.989,390.463,653.227,389.052,649.934,386.23z M668.746,372.594c0-7.521-2.823-12.695-8.937-12.695
		c-2.82,0-5.645,1.883-8.936,4.701v17.398c2.822,2.82,6.114,3.292,7.994,3.292C664.512,385.76,668.746,380.588,668.746,372.594z"/>
	<path fill="#FFFFFF" d="M688.025,345.318c0-2.351,1.879-3.762,4.23-3.762c2.353,0,4.231,1.412,4.231,3.762
		c0,1.887-1.88,3.767-4.231,3.767C689.436,349.082,688.025,347.201,688.025,345.318z M688.966,355.665h5.644v33.856h-5.644V355.665z
		"/>
	<path fill="#FFFFFF" d="M709.188,372.594c0-11.287,7.522-17.871,15.048-17.871c8.463,0,13.636,6.114,13.636,15.989
		c0,1.41,0,2.354-0.471,3.292h-22.571c0.469,7.059,4.703,11.76,11.285,11.76c3.291,0,5.644-0.941,8.464-2.822l1.882,3.763
		c-2.823,1.883-6.584,3.292-11.288,3.292C716.24,390.463,709.188,383.881,709.188,372.594z M732.229,370.243
		c0-6.583-2.82-10.347-8.464-10.347c-4.704,0-8.936,3.765-9.876,10.347H732.229z"/>
	<path fill="#FFFFFF" d="M751.036,355.665h4.705l0.47,4.703h0.471c3.292-2.822,6.583-5.644,11.285-5.644
		c7.055,0,10.348,4.702,10.348,13.168v21.164h-5.645v-20.691c0-6.583-1.881-8.934-6.584-8.934c-3.291,0-5.644,1.881-8.934,5.176
		v24.453h-5.644L751.036,355.665L751.036,355.665z"/>
	<path fill="#FFFFFF" d="M795.711,379.177v-18.81h-5.172v-4.232l5.642-0.47l0.472-9.405h4.702v9.405h8.936v4.703h-8.936v18.81
		c0,4.229,1.411,6.583,5.173,6.583c1.411,0,2.821-0.474,3.763-0.94l0.939,4.232c-1.881,0.471-4.232,1.411-6.583,1.411
		C798.062,390.463,795.711,385.76,795.711,379.177z"/>
	<path fill="#FFFFFF" d="M820.164,372.594c0-11.287,7.523-17.871,15.048-17.871c8.465,0,13.637,6.114,13.637,15.989
		c0,1.41,0,2.354-0.47,3.292h-22.57c0.472,7.059,4.701,11.76,11.285,11.76c3.29,0,5.644-0.941,8.462-2.822l1.882,3.763
		c-2.82,1.883-6.582,3.292-11.284,3.292C827.688,390.463,820.164,383.881,820.164,372.594z M844.146,370.243
		c0-6.583-2.82-10.347-8.466-10.347c-4.7,0-8.934,3.765-9.873,10.347H844.146z"/>
	<path fill="#FFFFFF" d="M858.724,385.76l2.821-3.766c2.822,2.354,6.113,4.232,9.877,4.232c4.23,0,6.583-2.354,6.583-5.173
		c0-3.292-4.23-5.176-7.995-6.586c-4.702-1.881-10.347-4.229-10.347-9.876c0-5.172,4.233-9.404,11.285-9.404
		c4.231,0,7.995,1.885,10.347,3.767l-2.821,3.762c-2.351-1.882-4.702-2.819-7.993-2.819c-4.232,0-6.114,2.353-6.114,4.701
		c0,2.821,3.764,4.231,7.523,5.644c4.702,1.88,10.348,3.762,10.348,10.346c0,5.176-4.232,10.349-12.229,10.349
		C866.719,390.463,862.016,388.111,858.724,385.76z"/>
	<path fill="#FFFFFF" d="M914.213,372.594c0-11.287,7.521-17.871,15.048-17.871c8.465,0,13.636,6.114,13.636,15.989
		c0,1.41,0,2.354-0.471,3.292h-22.57c0.471,7.059,4.702,11.76,11.285,11.76c3.292,0,5.644-0.941,8.465-2.822l1.886,3.763
		c-2.821,1.883-6.587,3.292-11.286,3.292C921.268,390.463,914.213,383.881,914.213,372.594z M937.726,370.243
		c0-6.583-2.816-10.347-8.465-10.347c-4.702,0-8.935,3.765-9.875,10.347H937.726z"/>
	<path fill="#FFFFFF" d="M954.183,372.594c0-10.812,6.587-17.871,14.582-17.871c4.229,0,6.583,1.411,9.402,4.232l-0.472-5.643
		v-12.695h5.643v49.374h-4.702l-0.475-4.229h-0.47c-2.821,2.817-6.113,4.703-10.347,4.703
		C959.826,390.463,954.183,383.881,954.183,372.594z M978.167,380.588v-17.396c-2.817-2.82-5.174-3.293-7.995-3.293
		c-5.172,0-9.875,5.174-9.875,12.694c0,7.995,3.292,12.696,8.937,12.696C972.524,385.76,975.346,384.352,978.167,380.588z"/>
	<path fill="#FFFFFF" d="M1000.268,377.297v-21.631h5.645v20.691c0,6.582,1.881,8.93,6.584,8.93c3.291,0,5.641-1.88,8.93-5.641
		v-23.982h5.645v33.857h-4.702l-0.472-5.174l0,0c-2.82,3.762-6.583,6.114-11.285,6.114
		C1003.09,390.463,1000.268,385.76,1000.268,377.297z"/>
	<path fill="#FFFFFF" d="M1041.179,372.594c0-11.287,7.995-17.871,15.989-17.871c4.229,0,7.523,1.883,9.875,4.232l-2.82,3.762
		c-1.882-1.88-4.229-2.82-6.585-2.82c-6.112,0-10.345,5.176-10.345,12.696c0,7.523,4.229,12.695,10.345,12.695
		c2.822,0,5.645-1.406,7.994-3.292l2.354,3.766c-2.821,2.817-6.587,4.229-10.814,4.229
		C1048.232,390.463,1041.179,383.881,1041.179,372.594z"/>
	<path fill="#FFFFFF" d="M1078.328,380.588c0-7.52,6.584-11.287,20.691-12.695c0-4.229-1.41-8.467-7.055-8.467
		c-4.23,0-7.522,1.881-10.349,3.766l-2.351-4.231c2.816-1.88,7.994-4.231,13.166-4.231c7.994,0,11.758,5.177,11.758,13.637v20.691
		h-4.703l-0.471-4.232h-0.471c-3.292,2.822-7.059,4.703-11.285,4.703C1082.561,390.463,1078.328,386.701,1078.328,380.588z
		 M1099.02,381.527v-9.404c-11.284,1.412-15.047,4.232-15.047,8.465c0,3.766,2.817,5.176,6.108,5.176
		C1092.906,385.76,1095.729,384.352,1099.02,381.527z"/>
	<path fill="#FFFFFF" d="M1121.122,379.177v-18.81h-5.178v-4.232l5.178-0.47l0.47-9.405h4.702v9.405h8.937v4.703h-8.937v18.81
		c0,4.229,1.411,6.583,5.173,6.583c1.41,0,2.821-0.474,3.768-0.94l0.936,4.232c-1.881,0.471-4.229,1.411-6.583,1.411
		C1123.473,390.463,1121.122,385.76,1121.122,379.177z"/>
	<path fill="#FFFFFF" d="M1147.926,345.318c0-2.351,1.885-3.762,4.232-3.762c2.354,0,4.23,1.412,4.23,3.762
		c0,1.887-1.881,3.767-4.23,3.767C1149.806,349.082,1147.926,347.201,1147.926,345.318z M1148.866,355.665h5.643v33.856h-5.643
		V355.665z"/>
	<path fill="#FFFFFF" d="M1166.734,355.665h5.645l6.583,19.278c0.937,3.293,1.881,6.584,2.821,9.875h0.471
		c0.937-3.291,1.88-6.582,2.821-9.875l6.583-19.278h5.642l-11.756,33.856h-6.583L1166.734,355.665z"/>
	<path fill="#FFFFFF" d="M1206.705,372.594c0-11.287,7.523-17.871,15.52-17.871c7.994,0,15.519,6.584,15.519,17.871
		c0,11.288-7.523,17.398-15.519,17.398C1214.229,389.992,1206.705,383.881,1206.705,372.594z M1232.1,372.594
		c0-7.994-4.231-12.695-9.875-12.695c-5.645,0-9.875,5.175-9.875,12.695c0,7.523,4.228,12.695,9.875,12.695
		C1227.867,385.76,1232.1,380.588,1232.1,372.594z"/>
	<path fill="#FFFFFF" d="M1248.558,385.76l2.821-3.766c2.821,2.354,6.113,4.232,9.875,4.232c4.232,0,6.584-2.354,6.584-5.173
		c0-3.292-4.228-5.176-7.994-6.586c-4.702-1.881-10.345-4.229-10.345-9.876c0-5.172,4.231-9.404,11.285-9.404
		c4.231,0,7.994,1.885,10.345,3.767l-2.816,3.762c-2.354-1.882-4.701-2.819-7.993-2.819c-4.232,0-6.114,2.353-6.114,4.701
		c0,2.821,3.763,4.231,7.523,5.644c4.702,1.88,10.347,3.762,10.347,10.346c0,5.176-4.231,10.349-12.227,10.349
		C1256.082,390.463,1251.379,388.111,1248.558,385.76z"/>
</g>
<g>
	<path fill="#FFFFFF" d="M845.116,408.736h10.192l5.099,19.867c1.308,4.639,2.158,8.953,3.464,13.657h0.263
		c1.24-4.706,2.155-9.019,3.396-13.657l5.032-19.867h9.804l-12.811,42.607h-11.566L845.116,408.736z"/>
	<path fill="#FFFFFF" d="M885.38,409.128c0-2.94,2.354-4.966,5.556-4.966c3.267,0,5.556,2.025,5.556,4.966s-2.289,5.031-5.556,5.031
		C887.732,414.159,885.38,412.068,885.38,409.128z M886.163,418.932h9.606v32.408h-9.606V418.932z"/>
	<path fill="#FFFFFF" d="M902.502,435.141c0-10.588,6.602-16.992,13.463-16.992c3.6,0,5.754,1.307,7.975,3.396l-0.395-4.965v-11.044
		h9.61v45.81h-7.847l-0.65-3.203h-0.262c-2.287,2.289-5.489,3.987-8.625,3.987C907.729,452.128,902.502,445.725,902.502,435.141z
		 M923.545,441.346v-13.265c-1.699-1.569-3.594-2.092-5.357-2.092c-3.076,0-5.816,2.875-5.816,9.02c0,6.402,2.157,9.278,5.882,9.278
		C920.342,444.287,921.979,443.504,923.545,441.346z"/>
	<path fill="#FFFFFF" d="M939.758,435.141c0-10.522,7.517-16.992,15.293-16.992c9.213,0,13.788,6.729,13.788,15.554
		c0,1.698-0.194,3.463-0.392,4.249h-19.408c0.849,4.705,4.112,6.861,8.426,6.861c2.418,0,4.641-0.721,6.997-2.158l3.201,5.815
		c-3.333,2.287-7.646,3.657-11.502,3.657C946.882,452.128,939.758,445.855,939.758,435.141z M960.67,431.609
		c0-3.594-1.569-6.143-5.424-6.143c-3.006,0-5.62,2.025-6.27,6.143H960.67z"/>
	<path fill="#FFFFFF" d="M973.615,435.141c0-10.789,7.581-16.992,15.814-16.992c8.169,0,15.75,6.207,15.75,16.992
		c0,10.782-7.581,16.985-15.75,16.985C981.196,452.128,973.615,445.921,973.615,435.141z M995.377,435.141
		c0-5.625-2.026-9.217-5.946-9.217c-3.986,0-5.947,3.598-5.947,9.217c0,5.618,1.961,9.213,5.947,9.213
		C993.351,444.352,995.377,440.758,995.377,435.141z"/>
	<path fill="#FFFFFF" d="M1011.786,441.28v-35.75h9.611v36.142c0,2.023,0.913,2.68,1.698,2.68c0.393,0,0.651,0,1.176-0.131
		l1.174,7.119c-1.047,0.458-2.682,0.784-4.836,0.784C1014.007,452.128,1011.786,447.816,1011.786,441.28z"/>
	<path fill="#FFFFFF" d="M1030.479,441.28v-35.75h9.611v36.142c0,2.023,0.914,2.68,1.699,2.68c0.388,0,0.65,0,1.172-0.131
		l1.176,7.119c-1.045,0.458-2.679,0.784-4.835,0.784C1032.701,452.128,1030.479,447.816,1030.479,441.28z"/>
	<path fill="#FFFFFF" d="M1047.668,442.325c0-6.795,5.425-10.517,18.232-11.823c-0.199-2.876-1.568-4.706-5.097-4.706
		c-2.743,0-5.426,1.108-8.562,2.94l-3.464-6.338c4.116-2.482,8.757-4.248,13.854-4.248c8.304,0,12.874,4.705,12.874,14.638v18.562
		h-7.842l-0.653-3.33h-0.258c-2.748,2.414-5.756,4.112-9.41,4.112C1051.393,452.128,1047.668,447.816,1047.668,442.325z
		 M1065.9,441.936v-5.686c-6.797,0.914-9.021,2.875-9.021,5.359c0,2.086,1.438,3.072,3.724,3.072
		C1062.765,444.68,1064.201,443.634,1065.9,441.936z"/>
	<path fill="#FFFFFF" d="M1083.617,418.932h7.845l0.651,4.178h0.262c2.679-2.68,5.555-4.963,9.802-4.963
		c4.57,0,7.318,1.957,8.952,5.42c2.871-2.938,5.879-5.42,10.189-5.42c6.997,0,10.132,4.963,10.132,13.068v20.129h-9.61v-18.885
		c0-4.706-1.239-6.145-3.988-6.145c-1.632,0-3.462,1.045-5.554,3.138v21.891h-9.606v-18.885c0-4.706-1.24-6.144-3.99-6.144
		c-1.563,0-3.463,1.043-5.485,3.137v21.891h-9.608V418.93h0.012v0.002H1083.617z"/>
	<path fill="#FFFFFF" d="M1138.128,442.325c0-6.795,5.419-10.517,18.229-11.823c-0.197-2.876-1.564-4.706-5.098-4.706
		c-2.745,0-5.422,1.108-8.561,2.94l-3.465-6.338c4.116-2.482,8.762-4.248,13.857-4.248c8.299,0,12.874,4.705,12.874,14.638v18.562
		h-7.846l-0.651-3.33h-0.262c-2.744,2.414-5.751,4.112-9.41,4.112C1141.852,452.128,1138.128,447.816,1138.128,442.325z
		 M1156.36,441.936v-5.686c-6.796,0.914-9.021,2.875-9.021,5.359c0,2.086,1.442,3.072,3.728,3.072
		C1153.223,444.68,1154.66,443.634,1156.36,441.936z"/>
	<path fill="#FFFFFF" d="M1172.377,435.141c0-10.588,6.6-16.992,13.464-16.992c3.597,0,5.753,1.307,7.972,3.396l-0.392-4.965
		v-11.044h9.604v45.81h-7.84l-0.655-3.203h-0.259c-2.289,2.289-5.487,3.987-8.625,3.987
		C1177.604,452.128,1172.377,445.725,1172.377,435.141z M1193.421,441.346v-13.265c-1.7-1.569-3.599-2.092-5.36-2.092
		c-3.069,0-5.812,2.875-5.812,9.02c0,6.402,2.158,9.278,5.882,9.278C1190.218,444.287,1191.852,443.504,1193.421,441.346z"/>
	<path fill="#FFFFFF" d="M1210.025,442.325c0-6.795,5.42-10.517,18.229-11.823c-0.195-2.876-1.563-4.706-5.097-4.706
		c-2.744,0-5.422,1.108-8.562,2.94l-3.465-6.338c4.117-2.482,8.762-4.248,13.858-4.248c8.299,0,12.874,4.705,12.874,14.638v18.562
		h-7.846l-0.651-3.33h-0.262c-2.744,2.414-5.752,4.112-9.41,4.112C1213.75,452.128,1210.025,447.816,1210.025,442.325z
		 M1228.258,441.936v-5.686c-6.796,0.914-9.02,2.875-9.02,5.359c0,2.086,1.44,3.072,3.727,3.072
		C1225.121,444.68,1226.558,443.634,1228.258,441.936z"/>
	<path fill="#FFFFFF" d="M1243.099,447.621l4.312-6.014c2.942,2.223,5.621,3.398,8.365,3.398c2.872,0,4.112-1.05,4.112-2.748
		c0-2.156-3.264-3.136-6.6-4.443c-3.922-1.504-8.562-4.183-8.562-9.545c0-6.014,4.9-10.125,12.418-10.125
		c4.962,0,8.625,2.023,11.434,4.112l-4.313,5.757c-2.353-1.701-4.572-2.75-6.861-2.75c-2.479,0-3.657,0.916-3.657,2.549
		c0,2.09,3.006,2.875,6.34,4.116c4.113,1.503,8.758,3.79,8.758,9.737c0,5.879-4.641,10.456-13.333,10.456
		C1251.268,452.128,1246.366,450.3,1243.099,447.621z"/>
</g>
</svg>
