<svg id="Capa_1" data-name="Capa 1" xmlns="http://www.w3.org/2000/svg" viewBox="0 0 210.94 111.87"><defs><style>.cls-1{fill:#fff;}</style></defs><path class="cls-1" d="M93.5,62.66l-3.31,3.16a10.27,10.27,0,0,0-7.61-3.57,8.32,8.32,0,0,0-8.45,8.45,8.91,8.91,0,0,0,1.08,4.42,7.69,7.69,0,0,0,3.06,3,8.92,8.92,0,0,0,4.4,1.1,9.14,9.14,0,0,0,3.77-.77,13.57,13.57,0,0,0,3.75-2.8L93.4,79a17.71,17.71,0,0,1-5.21,3.73,14.12,14.12,0,0,1-5.6,1,12.9,12.9,0,0,1-9.5-3.68,12.72,12.72,0,0,1-3.7-9.43,13,13,0,0,1,1.68-6.62,12.5,12.5,0,0,1,4.83-4.65,13.61,13.61,0,0,1,6.76-1.76,14.32,14.32,0,0,1,10.84,5Z"/><path class="cls-1" d="M97.48,58.29h4.75V74.38a8.1,8.1,0,0,0,.37,2.94,2.87,2.87,0,0,0,1.2,1.38,3.81,3.81,0,0,0,2,.52,4,4,0,0,0,2.16-.58,3,3,0,0,0,1.25-1.46,10.86,10.86,0,0,0,.35-3.39V58.29h4.75V73.13a21.68,21.68,0,0,1-.42,5.21,8,8,0,0,1-4.37,4.81,9.39,9.39,0,0,1-3.62.65,8.76,8.76,0,0,1-4.71-1.24,7.25,7.25,0,0,1-2.87-3.12,16.5,16.5,0,0,1-.86-6.31Z"/><path class="cls-1" d="M127.42,58.29h4.81l9.57,24.89h-4.92l-1.95-5.13H124.77l-2,5.13h-4.93Zm2.43,6.6-3.33,8.54h6.65Z"/><path class="cls-1" d="M145.13,58.29h4.7V83.18h-4.7Z"/><path class="cls-1" d="M155.18,58.29h13.58v4.63h-8.88v4.5h8.88V72h-8.88v6.54h8.88v4.66H155.18Z"/><path class="cls-1" d="M173.2,58.29h13.58v4.63H177.9v4.5h8.88V72H177.9v6.54h8.88v4.66H173.2Z"/><path class="cls-1" d="M191.21,58.29h5.62c3.62,0,6.3.44,8.06,1.34A10.55,10.55,0,0,1,209.24,64a14.2,14.2,0,0,1,1.7,7.07,14.38,14.38,0,0,1-.95,5.29,11.09,11.09,0,0,1-2.64,4,9.33,9.33,0,0,1-3.64,2.2,26.22,26.22,0,0,1-6.8.61h-5.7Zm4.71,4.57v15.7h2.2a11,11,0,0,0,4.71-.75,5.61,5.61,0,0,0,2.39-2.51,9.18,9.18,0,0,0,.93-4.33,8.24,8.24,0,0,0-2.21-6.15q-2-2-6.41-2Z"/><path class="cls-1" d="M60.31,73a6.28,6.28,0,1,1-7.89,4.1A6.28,6.28,0,0,1,60.31,73Z"/><path class="cls-1" d="M63.45,62A35.25,35.25,0,0,1,35,66.74C17.1,62.15,4.3,44.74,5.18,26.25A.7.7,0,0,1,6,25.57a.81.81,0,0,1,.7.84C5.82,44.15,18.11,60.86,35.24,65.27A33.42,33.42,0,0,0,75.47,44.13a.7.7,0,0,1,1-.41.79.79,0,0,1,.45,1A34.48,34.48,0,0,1,63.45,62Z"/><path class="cls-1" d="M68.22,46.77a6.28,6.28,0,1,1,4.09,7.89A6.28,6.28,0,0,1,68.22,46.77Z"/><path class="cls-1" d="M70.11,18.43a6.28,6.28,0,1,0,1.22-8.79A6.28,6.28,0,0,0,70.11,18.43Z"/><path class="cls-1" d="M43.63,84.07a.87.87,0,0,1-.77.08A41.79,41.79,0,0,1,61,3.49a.84.84,0,0,1-.13,1.67A40.12,40.12,0,0,0,43.46,82.59a.83.83,0,0,1,.48,1.08A.89.89,0,0,1,43.63,84.07Z"/><path class="cls-1" d="M61.12,80.73,61,80.8C42.27,89.08,19.81,82.12,8.74,64.62s-7.69-40.76,7.83-54.1a.83.83,0,0,1,1.18.1.84.84,0,0,1-.09,1.18C2.77,24.61-.46,46.93,10.16,63.73S42.33,87.2,60.3,79.26a.85.85,0,0,1,.82,1.47Z"/><path class="cls-1" d="M20,51.13a6.28,6.28,0,1,1-7.88,4.09A6.27,6.27,0,0,1,20,51.13Z"/><path class="cls-1" d="M75.82,15.55a.86.86,0,0,1-1.11-.15C61.9.51,39.56-2.71,22.73,7.93S-.79,40.13,7.15,58.11a.84.84,0,0,1-1.54.69C-2.66,40.07,4.32,17.61,21.84,6.51S62.65-1.22,76,14.3a.84.84,0,0,1-.1,1.18Z"/><path class="cls-1" d="M8.18,21.43a6.28,6.28,0,1,1-7.89,4.1A6.28,6.28,0,0,1,8.18,21.43Z"/><path class="cls-1" d="M24.28,98.07a4,4,0,0,1-1.82.36c-1.95,0-3.41-1.36-3.41-3.85s1.47-4,3.61-4a3.71,3.71,0,0,1,1.64.32l-.22.82a2.94,2.94,0,0,0-1.39-.32c-1.62,0-2.7,1.14-2.7,3.13s1,3,2.65,3a3.37,3.37,0,0,0,1.47-.31Z"/><path class="cls-1" d="M28.31,98.44c-1.34,0-2.38-1.08-2.38-2.81s1.1-2.91,2.46-2.91,2.39,1.14,2.39,2.8c0,2-1.28,2.92-2.46,2.92Zm0-.75c.86,0,1.51-.89,1.51-2.13,0-.93-.43-2.09-1.49-2.09s-1.52,1.08-1.52,2.12c0,1.2.62,2.1,1.49,2.1Z"/><path class="cls-1" d="M35,98.44c-1.33,0-2.38-1.08-2.38-2.81s1.1-2.91,2.46-2.91,2.39,1.14,2.39,2.8c0,2-1.28,2.92-2.46,2.92Zm0-.75c.86,0,1.51-.89,1.51-2.13,0-.93-.42-2.09-1.49-2.09s-1.52,1.08-1.52,2.12c0,1.2.62,2.1,1.49,2.1Z"/><path class="cls-1" d="M39.59,94.55c0-.64,0-1.2,0-1.7h.79l0,1.07h0a1.55,1.55,0,0,1,1.38-1.2l.25,0v.94l-.31,0c-.63,0-1.08.53-1.21,1.27a3.33,3.33,0,0,0,0,.46v2.93h-.9Z"/><path class="cls-1" d="M48.15,90.29V96.9c0,.49,0,1,0,1.42h-.81l0-.95h0a1.8,1.8,0,0,1-1.68,1.07c-1.2,0-2.13-1.12-2.13-2.78,0-1.83,1-2.94,2.22-2.94a1.63,1.63,0,0,1,1.5.83h0V90.29Zm-.9,4.78a2.15,2.15,0,0,0,0-.43A1.38,1.38,0,0,0,45.9,93.5c-.93,0-1.48.91-1.48,2.1s.5,2,1.46,2a1.41,1.41,0,0,0,1.33-1.2,1.76,1.76,0,0,0,0-.42Z"/><path class="cls-1" d="M51.1,91.92a.56.56,0,0,1-.54-.61.56.56,0,1,1,.55.61Zm-.43,6.4V92.85h.9v5.47Z"/><path class="cls-1" d="M54.09,94.33c0-.58,0-1,0-1.48h.8l0,.89h0a1.82,1.82,0,0,1,1.64-1c.69,0,1.76.45,1.76,2.33v3.27h-.91V95.16c0-.88-.29-1.62-1.14-1.62a1.32,1.32,0,0,0-1.21,1A1.41,1.41,0,0,0,55,95v3.3h-.9Z"/><path class="cls-1" d="M64.3,97a10.47,10.47,0,0,0,.07,1.31h-.81l-.08-.69h0a1.79,1.79,0,0,1-1.52.81,1.48,1.48,0,0,1-1.51-1.57c0-1.32,1.06-2.05,3-2v-.12c0-.45-.11-1.27-1.13-1.26a2.23,2.23,0,0,0-1.3.4l-.21-.66a2.94,2.94,0,0,1,1.64-.48c1.53,0,1.9,1.14,1.9,2.24Zm-.88-1.49c-1,0-2.1.17-2.1,1.24a.84.84,0,0,0,.84.95,1.28,1.28,0,0,0,1.22-.92,1.12,1.12,0,0,0,0-.32Z"/><path class="cls-1" d="M70.31,98.11a3.16,3.16,0,0,1-1.43.32,2.49,2.49,0,0,1-2.47-2.79,2.67,2.67,0,0,1,2.67-2.92,2.6,2.6,0,0,1,1.25.3l-.21.75a2.05,2.05,0,0,0-1-.26,1.84,1.84,0,0,0-1.76,2.07,1.81,1.81,0,0,0,1.73,2,2.39,2.39,0,0,0,1.1-.26Z"/><path class="cls-1" d="M72.82,91.92a.57.57,0,0,1-.55-.61.58.58,0,0,1,.57-.62.62.62,0,0,1,0,1.23Zm-.43,6.4V92.85h.9v5.47Z"/><path class="cls-1" d="M77.83,98.44c-1.33,0-2.38-1.08-2.38-2.81s1.1-2.91,2.46-2.91,2.39,1.14,2.39,2.8c0,2-1.28,2.92-2.46,2.92Zm0-.75c.86,0,1.51-.89,1.51-2.13,0-.93-.42-2.09-1.49-2.09s-1.52,1.08-1.52,2.12c0,1.2.62,2.1,1.49,2.1Zm1.35-7.21L78,92.1h-.63l.9-1.62Z"/><path class="cls-1" d="M82.46,94.33c0-.58,0-1,0-1.48h.8l0,.89h0a1.82,1.82,0,0,1,1.64-1c.69,0,1.75.45,1.75,2.33v3.27h-.9V95.16c0-.88-.29-1.62-1.15-1.62a1.34,1.34,0,0,0-1.21,1,1.73,1.73,0,0,0-.06.47v3.3h-.9Z"/><path class="cls-1" d="M96.66,90.29V96.9c0,.49,0,1,0,1.42h-.81l0-.95h0a1.82,1.82,0,0,1-1.69,1.07c-1.2,0-2.13-1.12-2.13-2.78,0-1.83,1-2.94,2.23-2.94a1.6,1.6,0,0,1,1.49.83h0V90.29Zm-.91,4.78a2.15,2.15,0,0,0,0-.43,1.36,1.36,0,0,0-1.3-1.14c-.93,0-1.49.91-1.49,2.1s.51,2,1.47,2a1.39,1.39,0,0,0,1.32-1.2,1.76,1.76,0,0,0,0-.42Z"/><path class="cls-1" d="M99.69,95.76c0,1.34.79,1.89,1.69,1.89a2.9,2.9,0,0,0,1.37-.28l.17.71a3.7,3.7,0,0,1-1.66.35c-1.52,0-2.44-1.12-2.44-2.76s.89-3,2.33-3c1.62,0,2,1.57,2,2.58a1.86,1.86,0,0,1,0,.46Zm2.63-.71c0-.63-.23-1.62-1.24-1.62s-1.31.93-1.38,1.62Z"/><path class="cls-1" d="M109.46,90.7v4.52c0,1.69.68,2.42,1.61,2.42s1.68-.75,1.68-2.42V90.7h.9v4.45c0,2.34-1.12,3.29-2.62,3.29s-2.48-.88-2.48-3.25V90.7Z"/><path class="cls-1" d="M116.19,94.33c0-.58,0-1,0-1.48h.8l0,.89h0a1.82,1.82,0,0,1,1.64-1c.69,0,1.75.45,1.75,2.33v3.27h-.9V95.16c0-.88-.3-1.62-1.15-1.62a1.34,1.34,0,0,0-1.21,1,1.73,1.73,0,0,0-.06.47v3.3h-.9Z"/><path class="cls-1" d="M123.33,91.92a.56.56,0,0,1-.54-.61.57.57,0,0,1,.56-.62.62.62,0,0,1,0,1.23Zm-.43,6.4V92.85h.9v5.47Z"/><path class="cls-1" d="M126.67,92.85l1,3.06c.16.51.29,1,.4,1.41h0c.11-.45.25-.9.42-1.41l1-3.06h.95l-1.95,5.47h-.86l-1.89-5.47Z"/><path class="cls-1" d="M132.69,95.76c0,1.34.79,1.89,1.69,1.89a2.9,2.9,0,0,0,1.37-.28l.17.71a3.7,3.7,0,0,1-1.66.35c-1.52,0-2.44-1.12-2.44-2.76s.89-3,2.34-3c1.62,0,2,1.57,2,2.58a2.69,2.69,0,0,1,0,.46Zm2.63-.71c0-.63-.23-1.62-1.24-1.62s-1.31.93-1.38,1.62Z"/><path class="cls-1" d="M138.34,94.55c0-.64,0-1.2,0-1.7h.78l0,1.07h0a1.54,1.54,0,0,1,1.38-1.2l.25,0v.94l-.31,0c-.64,0-1.09.53-1.21,1.27a3.33,3.33,0,0,0,0,.46v2.93h-.9Z"/><path class="cls-1" d="M142.59,97.3a2.4,2.4,0,0,0,1.2.38c.64,0,1-.35,1-.81s-.25-.72-.91-1c-.9-.37-1.32-.91-1.32-1.55a1.6,1.6,0,0,1,1.71-1.61,2.17,2.17,0,0,1,1.21.34l-.22.71a1.91,1.91,0,0,0-1-.31.74.74,0,0,0-.82.74c0,.45.29.66.93.94.85.35,1.3.83,1.3,1.64a1.64,1.64,0,0,1-1.84,1.65,2.69,2.69,0,0,1-1.4-.38Z"/><path class="cls-1" d="M148.23,91.92a.57.57,0,0,1-.55-.61.56.56,0,1,1,.56.61Zm-.43,6.4V92.85h.9v5.47Z"/><path class="cls-1" d="M155.5,90.29V96.9c0,.49,0,1,.05,1.42h-.81l-.05-.95h0A1.79,1.79,0,0,1,153,98.44c-1.2,0-2.13-1.12-2.13-2.78,0-1.83,1-2.94,2.22-2.94a1.62,1.62,0,0,1,1.5.83h0V90.29Zm-.9,4.78a2.15,2.15,0,0,0,0-.43,1.36,1.36,0,0,0-1.3-1.14c-.93,0-1.49.91-1.49,2.1s.5,2,1.47,2a1.4,1.4,0,0,0,1.32-1.2,1.76,1.76,0,0,0,0-.42Z"/><path class="cls-1" d="M161.52,97a10.47,10.47,0,0,0,.07,1.31h-.81l-.08-.69h0a1.79,1.79,0,0,1-1.52.81,1.49,1.49,0,0,1-1.52-1.57c0-1.32,1.07-2.05,3-2v-.12c0-.45-.11-1.27-1.13-1.26a2.23,2.23,0,0,0-1.3.4L158,93.2a2.94,2.94,0,0,1,1.64-.48c1.53,0,1.9,1.14,1.9,2.24Zm-.88-1.49c-1,0-2.1.17-2.1,1.24a.84.84,0,0,0,.84.95,1.29,1.29,0,0,0,1.22-.92,1.12,1.12,0,0,0,0-.32Z"/><path class="cls-1" d="M168.27,90.29V96.9c0,.49,0,1,0,1.42h-.81l0-.95h0a1.79,1.79,0,0,1-1.68,1.07c-1.2,0-2.13-1.12-2.13-2.78,0-1.83,1-2.94,2.22-2.94a1.62,1.62,0,0,1,1.5.83h0V90.29Zm-.9,4.78a2.15,2.15,0,0,0,0-.43A1.36,1.36,0,0,0,166,93.5c-.93,0-1.49.91-1.49,2.1s.5,2,1.47,2a1.4,1.4,0,0,0,1.32-1.2,1.76,1.76,0,0,0,0-.42Z"/><path class="cls-1" d="M175.14,95.92l-.72,2.4h-.92l2.35-7.62h1.07l2.36,7.62h-.95l-.74-2.4Zm2.27-.77L176.72,93c-.15-.5-.25-.95-.35-1.39h0c-.09.44-.21.91-.34,1.38l-.68,2.2Z"/><path class="cls-1" d="M181.29,90.29h.9v3.43h0a1.81,1.81,0,0,1,1.69-1c1.23,0,2.09,1.13,2.09,2.78,0,2-1.12,2.94-2.23,2.94a1.74,1.74,0,0,1-1.66-1h0l-.05.91h-.78c0-.38,0-.93,0-1.42Zm.9,5.83a2.22,2.22,0,0,0,0,.37,1.45,1.45,0,0,0,1.35,1.16c1,0,1.51-.85,1.51-2.1s-.51-2-1.47-2a1.48,1.48,0,0,0-1.37,1.22,1.79,1.79,0,0,0-.05.42Z"/><path class="cls-1" d="M188.57,91.92a.57.57,0,0,1-.54-.61.56.56,0,1,1,.55.61Zm-.43,6.4V92.85h.91v5.47Z"/><path class="cls-1" d="M192.08,95.76c0,1.34.79,1.89,1.69,1.89a3,3,0,0,0,1.38-.28l.16.71a3.7,3.7,0,0,1-1.66.35c-1.52,0-2.44-1.12-2.44-2.76s.89-3,2.34-3c1.62,0,2,1.57,2,2.58a2.69,2.69,0,0,1,0,.46Zm2.63-.71c0-.63-.23-1.62-1.24-1.62s-1.31.93-1.38,1.62Z"/><path class="cls-1" d="M197.73,94.55c0-.64,0-1.2,0-1.7h.79l0,1.07h0a1.54,1.54,0,0,1,1.38-1.2l.25,0v.94l-.31,0c-.64,0-1.09.53-1.21,1.27a3.33,3.33,0,0,0,0,.46v2.93h-.9Z"/><path class="cls-1" d="M203.44,91.54v1.31h1.29v.75h-1.29v2.94c0,.68.17,1.06.67,1.06a1.79,1.79,0,0,0,.53-.06l0,.75a2.21,2.21,0,0,1-.8.14,1.25,1.25,0,0,1-1-.42,2.32,2.32,0,0,1-.35-1.43v-3h-.76v-.75h.76v-1Z"/><path class="cls-1" d="M210.26,97a10.47,10.47,0,0,0,.07,1.31h-.81l-.08-.69h0a1.77,1.77,0,0,1-1.52.81,1.48,1.48,0,0,1-1.51-1.57c0-1.32,1.06-2.05,3-2v-.12c0-.45-.11-1.27-1.13-1.26a2.23,2.23,0,0,0-1.3.4l-.2-.66a2.92,2.92,0,0,1,1.64-.48c1.52,0,1.89,1.14,1.89,2.24Zm-.88-1.49c-1,0-2.1.17-2.1,1.24a.84.84,0,0,0,.84.95,1.27,1.27,0,0,0,1.22-.92,1.12,1.12,0,0,0,0-.32Z"/><path class="cls-1" d="M20.67,101.76v7.62H19.41v-7.62Z"/><path class="cls-1" d="M22,105.52c0-.64,0-1.17,0-1.64h1.1l.06.82h0a1.81,1.81,0,0,1,1.6-1c.87,0,1.78.62,1.78,2.36v3.27H25.28v-3.11c0-.79-.26-1.39-1-1.39a1.08,1.08,0,0,0-1,.82,1.4,1.4,0,0,0-.07.44v3.24H22Z"/><path class="cls-1" d="M27.78,105.52c0-.64,0-1.17,0-1.64h1.1l.06.82h0a1.81,1.81,0,0,1,1.6-1c.87,0,1.78.62,1.78,2.36v3.27H31v-3.11c0-.79-.26-1.39-.95-1.39a1.08,1.08,0,0,0-1,.82,1.16,1.16,0,0,0-.07.44v3.24H27.78Z"/><path class="cls-1" d="M35.73,109.51a2.55,2.55,0,0,1-2.5-2.84c0-1.81,1.07-2.92,2.58-2.92a2.54,2.54,0,0,1,2.48,2.83,2.61,2.61,0,0,1-2.55,2.93Zm0-1c.72,0,1.22-.77,1.22-1.89,0-.86-.35-1.85-1.21-1.85s-1.25,1-1.25,1.87c0,1.07.48,1.87,1.23,1.87Z"/><path class="cls-1" d="M39.94,103.88l.81,2.79c.14.48.24.93.34,1.38h0c.09-.45.2-.88.34-1.38l.8-2.79h1.32l-1.91,5.5H40.43l-1.85-5.5Z"/><path class="cls-1" d="M48.06,108.06a8.33,8.33,0,0,0,.08,1.32H47l-.09-.61h0a1.77,1.77,0,0,1-1.48.74,1.57,1.57,0,0,1-1.57-1.64c0-1.38,1.12-2.09,3-2.08v-.09a.89.89,0,0,0-1-1,2.52,2.52,0,0,0-1.34.4l-.25-.9a3.35,3.35,0,0,1,1.81-.49c1.6,0,2.06,1.12,2.06,2.33Zm-1.23-1.37c-.9,0-1.75.19-1.75,1a.7.7,0,0,0,.72.79,1.06,1.06,0,0,0,1-.76,1,1,0,0,0,0-.3Z"/><path class="cls-1" d="M53,109.21a3.32,3.32,0,0,1-1.42.28A2.53,2.53,0,0,1,49,106.68a2.71,2.71,0,0,1,2.78-2.93A3.21,3.21,0,0,1,53,104l-.23,1a1.93,1.93,0,0,0-1-.21,1.8,1.8,0,0,0,0,3.56,2.17,2.17,0,0,0,1-.22Z"/><path class="cls-1" d="M54.41,103.09a.76.76,0,1,1,.72-.75.71.71,0,0,1-.72.75Zm-.63,6.29v-5.5h1.27v5.5Z"/><path class="cls-1" d="M58.49,109.51a2.55,2.55,0,0,1-2.5-2.84c0-1.81,1.07-2.92,2.58-2.92a2.54,2.54,0,0,1,2.48,2.83,2.61,2.61,0,0,1-2.55,2.93Zm0-1c.72,0,1.22-.77,1.22-1.89,0-.86-.35-1.85-1.21-1.85s-1.25,1-1.25,1.87c0,1.07.48,1.87,1.23,1.87Zm1.49-7-1.25,1.68h-.88l.9-1.68Z"/><path class="cls-1" d="M62,105.52c0-.64,0-1.17,0-1.64H63l.06.82h0a1.81,1.81,0,0,1,1.6-1c.87,0,1.77.62,1.77,2.36v3.27H65.24v-3.11c0-.79-.26-1.39-.95-1.39a1.08,1.08,0,0,0-1,.82,1.16,1.16,0,0,0-.07.44v3.24H62Z"/><path class="cls-1" d="M73.68,106H71.07v2.24H74v1.14H69.81v-7.62h4v1.15H71.07v2h2.61Z"/><path class="cls-1" d="M79.5,101.35v6.48c0,.57,0,1.18,0,1.55H78.42l-.06-.87h0a1.77,1.77,0,0,1-1.62,1c-1.2,0-2.14-1.12-2.14-2.82s1-2.94,2.23-2.94a1.56,1.56,0,0,1,1.41.71h0v-3.11Zm-1.26,4.82a2.31,2.31,0,0,0,0-.37,1.13,1.13,0,0,0-1.09-1c-.81,0-1.26.79-1.26,1.8s.45,1.76,1.25,1.76a1.15,1.15,0,0,0,1.09-1,1.7,1.7,0,0,0,0-.4Z"/><path class="cls-1" d="M85.22,107.73c0,.66,0,1.2,0,1.65h-1.1l-.06-.82h0a1.81,1.81,0,0,1-1.61,1c-.9,0-1.73-.6-1.73-2.4v-3.23H82v3c0,.92.27,1.5.93,1.5a1.06,1.06,0,0,0,1-.74,1.11,1.11,0,0,0,.07-.43v-3.32h1.26Z"/><path class="cls-1" d="M90.15,109.21a3.32,3.32,0,0,1-1.42.28,2.53,2.53,0,0,1-2.57-2.81,2.71,2.71,0,0,1,2.78-2.93,3.21,3.21,0,0,1,1.22.25l-.23,1a1.93,1.93,0,0,0-1-.21,1.8,1.8,0,0,0,0,3.56,2.17,2.17,0,0,0,1-.22Z"/><path class="cls-1" d="M94.85,108.06a8.33,8.33,0,0,0,.08,1.32H93.8l-.1-.61h0a1.75,1.75,0,0,1-1.47.74,1.56,1.56,0,0,1-1.57-1.64c0-1.38,1.12-2.09,3-2.08v-.09a.88.88,0,0,0-1-1,2.53,2.53,0,0,0-1.35.4l-.24-.9a3.31,3.31,0,0,1,1.8-.49c1.6,0,2.06,1.12,2.06,2.33Zm-1.23-1.37c-.89,0-1.74.19-1.74,1a.7.7,0,0,0,.72.79,1,1,0,0,0,1-.76,1,1,0,0,0,0-.3Z"/><path class="cls-1" d="M97.46,102.46v1.42h1.2v1h-1.2v2.42c0,.67.17,1,.65,1a1.63,1.63,0,0,0,.49,0l0,1a2.5,2.5,0,0,1-.91.14,1.4,1.4,0,0,1-1.09-.45,2.34,2.34,0,0,1-.4-1.55v-2.57h-.7v-1h.7v-1Z"/><path class="cls-1" d="M100.14,103.09a.76.76,0,1,1,.72-.75.71.71,0,0,1-.72.75Zm-.63,6.29v-5.5h1.26v5.5Z"/><path class="cls-1" d="M102.83,103.88l.81,2.79a13.18,13.18,0,0,1,.34,1.38h0c.1-.45.21-.88.34-1.38l.8-2.79h1.32l-1.9,5.5h-1.24l-1.86-5.5Z"/><path class="cls-1" d="M111,108.06a8.33,8.33,0,0,0,.08,1.32H109.9l-.1-.61h0a1.75,1.75,0,0,1-1.47.74,1.56,1.56,0,0,1-1.57-1.64c0-1.38,1.12-2.09,3-2.08v-.09a.88.88,0,0,0-1-1,2.53,2.53,0,0,0-1.35.4l-.24-.9a3.31,3.31,0,0,1,1.8-.49c1.6,0,2.06,1.12,2.06,2.33Zm-1.23-1.37c-.89,0-1.74.19-1.74,1a.7.7,0,0,0,.72.79,1,1,0,0,0,1-.76,1,1,0,0,0,0-.3Z"/><path class="cls-1" d="M114.6,103.91l1.08,3.23c.12.36.24.79.32,1.12h0c.1-.33.2-.74.32-1.14l1-3.21h1l-1.35,3.9a8.74,8.74,0,0,1-1.7,3.42,2.62,2.62,0,0,1-1.11.64l-.23-.83a2.36,2.36,0,0,0,.79-.48,3.06,3.06,0,0,0,.76-1.11.75.75,0,0,0,.07-.24.77.77,0,0,0-.07-.26l-1.82-5Z"/><path class="cls-1" d="M124.67,105.81H122v2.75h3v.82h-3.89v-7.62h3.74v.83H122V105h2.68Z"/><path class="cls-1" d="M130.25,101.36V108c0,.48,0,1,0,1.41h-.81l0-.95h0a1.81,1.81,0,0,1-1.68,1.08c-1.2,0-2.13-1.12-2.13-2.79,0-1.83,1-2.93,2.22-2.93a1.62,1.62,0,0,1,1.5.82h0v-3.25Zm-.9,4.78a2,2,0,0,0,0-.43,1.37,1.37,0,0,0-1.3-1.14c-.94,0-1.49.9-1.49,2.1s.5,2,1.47,2a1.41,1.41,0,0,0,1.32-1.2,1.73,1.73,0,0,0,0-.41Z"/><path class="cls-1" d="M135.8,107.88c0,.57,0,1.07,0,1.5H135l0-.89h0a1.85,1.85,0,0,1-1.65,1c-.77,0-1.71-.49-1.71-2.4v-3.2h.9v3c0,1,.3,1.75,1.11,1.75a1.3,1.3,0,0,0,1.19-.92,1.46,1.46,0,0,0,.08-.5v-3.35h.91Z"/><path class="cls-1" d="M140.73,109.18a3.33,3.33,0,0,1-1.43.31,2.49,2.49,0,0,1-2.47-2.79,2.66,2.66,0,0,1,2.66-2.91,2.62,2.62,0,0,1,1.26.29l-.21.76a2,2,0,0,0-1-.26,1.84,1.84,0,0,0-1.75,2.07,1.8,1.8,0,0,0,1.72,2,2.32,2.32,0,0,0,1.11-.26Z"/><path class="cls-1" d="M145.17,108.07a10.36,10.36,0,0,0,.07,1.31h-.81l-.08-.69h0a1.78,1.78,0,0,1-1.52.82,1.49,1.49,0,0,1-1.51-1.58c0-1.32,1.06-2,3-2v-.11c0-.46-.11-1.28-1.13-1.27a2.23,2.23,0,0,0-1.3.41l-.2-.67a3,3,0,0,1,1.64-.47c1.52,0,1.89,1.14,1.89,2.23Zm-.88-1.48c-1,0-2.1.17-2.1,1.23a.83.83,0,0,0,.84,1,1.26,1.26,0,0,0,1.22-.91,1.22,1.22,0,0,0,0-.32Z"/><path class="cls-1" d="M150.05,109.18a3.27,3.27,0,0,1-1.42.31,2.5,2.5,0,0,1-2.48-2.79,2.67,2.67,0,0,1,2.67-2.91,2.58,2.58,0,0,1,1.25.29l-.2.76a2,2,0,0,0-1.05-.26c-1.14,0-1.75.94-1.75,2.07a1.8,1.8,0,0,0,1.72,2,2.35,2.35,0,0,0,1.11-.26Z"/><path class="cls-1" d="M151.43,103a.57.57,0,0,1-.54-.61.56.56,0,1,1,.55.61Zm-.43,6.4v-5.47h.91v5.47Z"/><path class="cls-1" d="M155.32,109.51c-1.33,0-2.38-1.09-2.38-2.82s1.1-2.9,2.46-2.9,2.39,1.14,2.39,2.8c0,2-1.28,2.92-2.46,2.92Zm0-.75c.86,0,1.51-.89,1.51-2.14,0-.92-.42-2.09-1.49-2.09s-1.52,1.09-1.52,2.13c0,1.2.62,2.1,1.49,2.1Zm1.35-7.21-1.25,1.62h-.63l.9-1.62Z"/><path class="cls-1" d="M158.82,105.39c0-.58,0-1,0-1.48h.8l0,.89h0a1.81,1.81,0,0,1,1.64-1c.69,0,1.76.45,1.76,2.32v3.27h-.9v-3.15c0-.88-.3-1.63-1.15-1.63a1.32,1.32,0,0,0-1.21,1,1.59,1.59,0,0,0-.07.46v3.3h-.9Z"/><path class="cls-1" d="M170,108.07a10.36,10.36,0,0,0,.07,1.31h-.81l-.09-.69h0a1.78,1.78,0,0,1-1.51.82,1.49,1.49,0,0,1-1.52-1.58c0-1.32,1.07-2,3-2v-.11c0-.46-.11-1.28-1.13-1.27a2.23,2.23,0,0,0-1.3.41l-.2-.67a3,3,0,0,1,1.64-.47c1.53,0,1.9,1.14,1.9,2.23Zm-.89-1.48c-1,0-2.1.17-2.1,1.23a.83.83,0,0,0,.84,1,1.26,1.26,0,0,0,1.22-.91,1.22,1.22,0,0,0,0-.32Z"/><path class="cls-1" d="M173.41,101.86a11.91,11.91,0,0,1,1.9-.15,3.67,3.67,0,0,1,2.8,1,3.64,3.64,0,0,1,1,2.73,4.3,4.3,0,0,1-1,3,4,4,0,0,1-3.06,1.1,11,11,0,0,1-1.63-.09Zm.9,6.75a4.7,4.7,0,0,0,.9,0c1.91,0,2.94-1.18,2.94-3.23,0-1.8-.91-2.94-2.8-2.94a4.35,4.35,0,0,0-1,.1Z"/><path class="cls-1" d="M180.54,103a.56.56,0,0,1-.54-.61.56.56,0,1,1,.55.61Zm-.43,6.4v-5.47h.9v5.47Z"/><path class="cls-1" d="M182.28,108.36a2.4,2.4,0,0,0,1.2.39c.65,0,1-.35,1-.82s-.25-.72-.91-1c-.9-.36-1.32-.9-1.32-1.55a1.6,1.6,0,0,1,1.71-1.6,2.1,2.1,0,0,1,1.21.34l-.21.71a1.89,1.89,0,0,0-1-.32.74.74,0,0,0-.82.75c0,.45.29.65.93.93.85.36,1.31.83,1.31,1.64a1.64,1.64,0,0,1-1.85,1.65,2.56,2.56,0,0,1-1.39-.38Z"/><path class="cls-1" d="M187.45,102.6v1.31h1.29v.76h-1.29v2.94c0,.67.17,1.06.67,1.06a1.47,1.47,0,0,0,.53-.07l0,.76a2.24,2.24,0,0,1-.8.13,1.24,1.24,0,0,1-1-.41,2.38,2.38,0,0,1-.34-1.44v-3h-.77v-.76h.77v-1Z"/><path class="cls-1" d="M193.15,108.07a10.36,10.36,0,0,0,.07,1.31h-.81l-.08-.69h0a1.79,1.79,0,0,1-1.52.82,1.49,1.49,0,0,1-1.52-1.58c0-1.32,1.07-2,3-2v-.11c0-.46-.11-1.28-1.12-1.27a2.24,2.24,0,0,0-1.31.41l-.2-.67a3,3,0,0,1,1.64-.47c1.53,0,1.9,1.14,1.9,2.23Zm-.89-1.48c-1,0-2.1.17-2.1,1.23a.83.83,0,0,0,.84,1,1.26,1.26,0,0,0,1.22-.91,1.22,1.22,0,0,0,0-.32Z"/><path class="cls-1" d="M194.49,105.39c0-.58,0-1,0-1.48h.8l.05.89h0a1.8,1.8,0,0,1,1.64-1c.69,0,1.75.45,1.75,2.32v3.27h-.9v-3.15c0-.88-.3-1.63-1.15-1.63a1.34,1.34,0,0,0-1.21,1,1.6,1.6,0,0,0-.06.46v3.3h-.9Z"/><path class="cls-1" d="M203.61,109.18a3.27,3.27,0,0,1-1.42.31,2.5,2.5,0,0,1-2.48-2.79,2.67,2.67,0,0,1,2.67-2.91,2.58,2.58,0,0,1,1.25.29l-.2.76a2,2,0,0,0-1.05-.26c-1.14,0-1.75.94-1.75,2.07a1.8,1.8,0,0,0,1.72,2,2.35,2.35,0,0,0,1.11-.26Z"/><path class="cls-1" d="M205,103a.56.56,0,0,1-.54-.61.56.56,0,1,1,.55.61Zm-.43,6.4v-5.47h.9v5.47Z"/><path class="cls-1" d="M210.35,108.07a8.69,8.69,0,0,0,.08,1.31h-.81l-.09-.69h0a1.78,1.78,0,0,1-1.51.82,1.49,1.49,0,0,1-1.52-1.58c0-1.32,1.06-2,3-2v-.11c0-.46-.11-1.28-1.13-1.27a2.23,2.23,0,0,0-1.3.41l-.2-.67a3,3,0,0,1,1.64-.47c1.53,0,1.89,1.14,1.89,2.23Zm-.88-1.48c-1,0-2.1.17-2.1,1.23a.83.83,0,0,0,.84,1,1.26,1.26,0,0,0,1.22-.91,1.22,1.22,0,0,0,0-.32Z"/></svg>