<svg width="592" height="325" fill="none" xmlns="http://www.w3.org/2000/svg"><g clip-path="url(#a)"><path d="M451.5 167c-38 112.5-126 177.5-245 105.5s-87.013-170.214 54.5-230C390-12 489.5 54.5 451.5 167z" fill="#000" fill-opacity=".1"/><circle cx="390.483" cy="219.483" r="86.483" fill="#39AC37"/><path d="M408.706 236.162c0 5.25-7.104 9.729-17.605 9.729-11.429 0-19.922-5.869-19.922-12.973h-19.614c0 18.224 17.297 29.806 39.536 29.806 22.084 0 38.299-11.428 38.299-26.562 0-32.123-57.449-18.841-57.449-33.204 0-5.714 6.795-9.884 17.605-9.884 11.583 0 18.378 7.104 18.378 14.054h19.613c0-18.223-15.752-30.887-37.991-30.887-22.084 0-37.527 12.2-37.527 26.717 0 33.049 56.677 19.613 56.677 33.204z" fill="#fff"/><path d="M210.628 197.947c-43.939 0-58.894-55.539-62.245-66.344-8.415-27.131-10.973-51.57-11.244-54.135-1.563-14.8 10.313-25.098 23.346-25.098 9.869 0 21.323 5.905 22.84 20.23.263 2.41 2.269 23.191 9.367 45.834 7.407 23.632 15.265 32.72 20.923 32.72 9.138 0 14.714-23.459 19.643-45.795 3.631-16.457 7.557-33.04 15.306-47.77C262.048 31.963 282.422 26 300.022 26c38.595 0 57.911 44.693 57.911 56.272 0 19.35-15.791 24.286-22.635 24.286-14.969 0-20.044-10.025-24.315-18.812-3.842-7.905-7.854-14.478-13.042-14.478-1.705 0-3.285.864-4.745 2.348-12.894 13.098-17.218 81.622-42.999 107.812-14.293 14.519-29.844 14.519-39.569 14.519z" fill="url(#b)"/><path d="M210.628 197.947c-43.939 0-58.894-55.539-62.245-66.344-8.415-27.131-10.973-51.57-11.244-54.135-1.563-14.8 10.313-25.098 23.346-25.098 9.869 0 21.323 5.905 22.84 20.23.263 2.41 2.269 23.191 9.367 45.834 7.407 23.632 15.265 32.72 20.923 32.72 9.138 0 14.714-23.459 19.643-45.795 3.631-16.457 7.557-33.04 15.306-47.77C262.048 31.963 282.422 26 300.022 26c38.595 0 57.911 44.693 57.911 56.272 0 19.35-15.791 24.286-22.635 24.286-14.969 0-20.044-10.025-24.315-18.812-3.842-7.905-7.854-14.478-13.042-14.478-1.705 0-3.285.864-4.745 2.348-12.894 13.098-17.218 81.622-42.999 107.812-14.293 14.519-29.844 14.519-39.569 14.519z" fill="url(#c)"/><path d="M210.628 197.947c-43.939 0-58.894-55.539-62.245-66.344-8.415-27.131-10.973-51.57-11.244-54.135-1.563-14.8 10.313-25.098 23.346-25.098 9.869 0 21.323 5.905 22.84 20.23.263 2.41 2.269 23.191 9.367 45.834 7.407 23.632 15.265 32.72 20.923 32.72 9.138 0 14.714-23.459 19.643-45.795 3.631-16.457 7.557-33.04 15.306-47.77C262.048 31.963 282.422 26 300.022 26c38.595 0 57.911 44.693 57.911 56.272 0 19.35-15.791 24.286-22.635 24.286-14.969 0-20.044-10.025-24.315-18.812-3.842-7.905-7.854-14.478-13.042-14.478-1.705 0-3.285.864-4.745 2.348-12.894 13.098-17.218 81.622-42.999 107.812-14.293 14.519-29.844 14.519-39.569 14.519z" fill="url(#d)"/><path d="M210.628 197.947c-43.939 0-58.894-55.539-62.245-66.344-8.415-27.131-10.973-51.57-11.244-54.135-1.563-14.8 10.313-25.098 23.346-25.098 9.869 0 21.323 5.905 22.84 20.23.263 2.41 2.269 23.191 9.367 45.834 7.407 23.632 15.265 32.72 20.923 32.72 9.138 0 14.714-23.459 19.643-45.795 3.631-16.457 7.557-33.04 15.306-47.77C262.048 31.963 282.422 26 300.022 26c38.595 0 57.911 44.693 57.911 56.272 0 19.35-15.791 24.286-22.635 24.286-14.969 0-20.044-10.025-24.315-18.812-3.842-7.905-7.854-14.478-13.042-14.478-1.705 0-3.285.864-4.745 2.348-12.894 13.098-17.218 81.622-42.999 107.812-14.293 14.519-29.844 14.519-39.569 14.519z" fill="url(#e)"/><path d="M210.628 197.947c-43.939 0-58.894-55.539-62.245-66.344-8.415-27.131-10.973-51.57-11.244-54.135-1.563-14.8 10.313-25.098 23.346-25.098 9.869 0 21.323 5.905 22.84 20.23.263 2.41 2.269 23.191 9.367 45.834 7.407 23.632 15.265 32.72 20.923 32.72 9.138 0 14.714-23.459 19.643-45.795 3.631-16.457 7.557-33.04 15.306-47.77C262.048 31.963 282.422 26 300.022 26c38.595 0 57.911 44.693 57.911 56.272 0 19.35-15.791 24.286-22.635 24.286-14.969 0-20.044-10.025-24.315-18.812-3.842-7.905-7.854-14.478-13.042-14.478-1.705 0-3.285.864-4.745 2.348-12.894 13.098-17.218 81.622-42.999 107.812-14.293 14.519-29.844 14.519-39.569 14.519z" fill="url(#f)"/><path d="M210.628 197.947c-43.939 0-58.894-55.539-62.245-66.344-8.415-27.131-10.973-51.57-11.244-54.135-1.563-14.8 10.313-25.098 23.346-25.098 9.869 0 21.323 5.905 22.84 20.23.263 2.41 2.269 23.191 9.367 45.834 7.407 23.632 15.265 32.72 20.923 32.72 9.138 0 14.714-23.459 19.643-45.795 3.631-16.457 7.557-33.04 15.306-47.77C262.048 31.963 282.422 26 300.022 26c38.595 0 57.911 44.693 57.911 56.272 0 19.35-15.791 24.286-22.635 24.286-14.969 0-20.044-10.025-24.315-18.812-3.842-7.905-7.854-14.478-13.042-14.478-1.705 0-3.285.864-4.745 2.348-12.894 13.098-17.218 81.622-42.999 107.812-14.293 14.519-29.844 14.519-39.569 14.519z" fill="url(#g)"/><path d="M210.628 197.947c-43.939 0-58.894-55.539-62.245-66.344-8.415-27.131-10.973-51.57-11.244-54.135-1.563-14.8 10.313-25.098 23.346-25.098 9.869 0 21.323 5.905 22.84 20.23.263 2.41 2.269 23.191 9.367 45.834 7.407 23.632 15.265 32.72 20.923 32.72 9.138 0 14.714-23.459 19.643-45.795 3.631-16.457 7.557-33.04 15.306-47.77C262.048 31.963 282.422 26 300.022 26c38.595 0 57.911 44.693 57.911 56.272 0 19.35-15.791 24.286-22.635 24.286-14.969 0-20.044-10.025-24.315-18.812-3.842-7.905-7.854-14.478-13.042-14.478-1.705 0-3.285.864-4.745 2.348-12.894 13.098-17.218 81.622-42.999 107.812-14.293 14.519-29.844 14.519-39.569 14.519z" fill="url(#h)"/><path d="M210.628 197.947c-43.939 0-58.894-55.539-62.245-66.344-8.415-27.131-10.973-51.57-11.244-54.135-1.563-14.8 10.313-25.098 23.346-25.098 9.869 0 21.323 5.905 22.84 20.23.263 2.41 2.269 23.191 9.367 45.834 7.407 23.632 15.265 32.72 20.923 32.72 9.138 0 14.714-23.459 19.643-45.795 3.631-16.457 7.557-33.04 15.306-47.77C262.048 31.963 282.422 26 300.022 26c38.595 0 57.911 44.693 57.911 56.272 0 19.35-15.791 24.286-22.635 24.286-14.969 0-20.044-10.025-24.315-18.812-3.842-7.905-7.854-14.478-13.042-14.478-1.705 0-3.285.864-4.745 2.348-12.894 13.098-17.218 81.622-42.999 107.812-14.293 14.519-29.844 14.519-39.569 14.519z" fill="url(#i)"/><path d="M210.628 197.947c-43.939 0-58.894-55.539-62.245-66.344-8.415-27.131-10.973-51.57-11.244-54.135-1.563-14.8 10.313-25.098 23.346-25.098 9.869 0 21.323 5.905 22.84 20.23.263 2.41 2.269 23.191 9.367 45.834 7.407 23.632 15.265 32.72 20.923 32.72 9.138 0 14.714-23.459 19.643-45.795 3.631-16.457 7.557-33.04 15.306-47.77C262.048 31.963 282.422 26 300.022 26c38.595 0 57.911 44.693 57.911 56.272 0 19.35-15.791 24.286-22.635 24.286-14.969 0-20.044-10.025-24.315-18.812-3.842-7.905-7.854-14.478-13.042-14.478-1.705 0-3.285.864-4.745 2.348-12.894 13.098-17.218 81.622-42.999 107.812-14.293 14.519-29.844 14.519-39.569 14.519z" fill="url(#j)"/><path d="M300.022 26c-17.601 0-37.975 5.963-51.458 31.59-7.75 14.73-11.675 31.312-15.306 47.769-1.196 5.415-2.429 10.896-3.741 16.093v74.456c6.66-1.883 13.815-5.507 20.68-12.48 25.781-26.19 30.104-94.714 42.998-107.812 1.461-1.484 3.041-2.348 4.746-2.348 5.187 0 9.2 6.573 13.042 14.478 4.271 8.787 9.345 18.812 24.315 18.812 6.844 0 22.635-4.936 22.635-24.286 0-11.58-19.316-56.272-57.911-56.272z" fill="url(#k)"/><path d="M210.628 197.947c-43.939 0-58.894-55.539-62.245-66.344-8.415-27.131-10.973-51.57-11.244-54.135-1.563-14.8 10.313-25.098 23.346-25.098 9.869 0 21.323 5.905 22.84 20.23.263 2.41 2.269 23.191 9.367 45.834 7.407 23.632 15.265 32.72 20.923 32.72 9.138 0 14.714-23.459 19.643-45.795 3.631-16.457 7.557-33.04 15.306-47.77C262.048 31.963 282.422 26 300.022 26c38.595 0 57.911 44.693 57.911 56.272 0 19.35-15.791 24.286-22.635 24.286-14.969 0-20.044-10.025-24.315-18.812-3.842-7.905-7.854-14.478-13.042-14.478-1.705 0-3.285.864-4.745 2.348-12.894 13.098-17.218 81.622-42.999 107.812-14.293 14.519-29.844 14.519-39.569 14.519z" fill="url(#l)"/><path d="M210.628 197.947c-43.939 0-58.894-55.539-62.245-66.344-8.415-27.131-10.973-51.57-11.244-54.135-1.563-14.8 10.313-25.098 23.346-25.098 9.869 0 21.323 5.905 22.84 20.23.263 2.41 2.269 23.191 9.367 45.834 7.407 23.632 15.265 32.72 20.923 32.72 9.138 0 14.714-23.459 19.643-45.795 3.631-16.457 7.557-33.04 15.306-47.77C262.048 31.963 282.422 26 300.022 26c38.595 0 57.911 44.693 57.911 56.272 0 19.35-15.791 24.286-22.635 24.286-14.969 0-20.044-10.025-24.315-18.812-3.842-7.905-7.854-14.478-13.042-14.478-1.705 0-3.285.864-4.745 2.348-12.894 13.098-17.218 81.622-42.999 107.812-14.293 14.519-29.844 14.519-39.569 14.519z" fill="url(#m)"/><path d="M210.628 197.947c-43.939 0-58.894-55.539-62.245-66.344-8.415-27.131-10.973-51.57-11.244-54.135-1.563-14.8 10.313-25.098 23.346-25.098 9.869 0 21.323 5.905 22.84 20.23.263 2.41 2.269 23.191 9.367 45.834 7.407 23.632 15.265 32.72 20.923 32.72 9.138 0 14.714-23.459 19.643-45.795 3.631-16.457 7.557-33.04 15.306-47.77C262.048 31.963 282.422 26 300.022 26c38.595 0 57.911 44.693 57.911 56.272 0 19.35-15.791 24.286-22.635 24.286-14.969 0-20.044-10.025-24.315-18.812-3.842-7.905-7.854-14.478-13.042-14.478-1.705 0-3.285.864-4.745 2.348-12.894 13.098-17.218 81.622-42.999 107.812-14.293 14.519-29.844 14.519-39.569 14.519z" fill="url(#n)"/><path d="M210.628 197.947c-43.939 0-58.894-55.539-62.245-66.344-8.415-27.131-10.973-51.57-11.244-54.135-1.563-14.8 10.313-25.098 23.346-25.098 9.869 0 21.323 5.905 22.84 20.23.263 2.41 2.269 23.191 9.367 45.834 7.407 23.632 15.265 32.72 20.923 32.72 9.138 0 14.714-23.459 19.643-45.795 3.631-16.457 7.557-33.04 15.306-47.77C262.048 31.963 282.422 26 300.022 26c38.595 0 57.911 44.693 57.911 56.272 0 19.35-15.791 24.286-22.635 24.286-14.969 0-20.044-10.025-24.315-18.812-3.842-7.905-7.854-14.478-13.042-14.478-1.705 0-3.285.864-4.745 2.348-12.894 13.098-17.218 81.622-42.999 107.812-14.293 14.519-29.844 14.519-39.569 14.519z" fill="url(#o)"/><path d="M210.628 197.947c-43.939 0-58.894-55.539-62.245-66.344-8.415-27.131-10.973-51.57-11.244-54.135-1.563-14.8 10.313-25.098 23.346-25.098 9.869 0 21.323 5.905 22.84 20.23.263 2.41 2.269 23.191 9.367 45.834 7.407 23.632 15.265 32.72 20.923 32.72 9.138 0 14.714-23.459 19.643-45.795 3.631-16.457 7.557-33.04 15.306-47.77C262.048 31.963 282.422 26 300.022 26c38.595 0 57.911 44.693 57.911 56.272 0 19.35-15.791 24.286-22.635 24.286-14.969 0-20.044-10.025-24.315-18.812-3.842-7.905-7.854-14.478-13.042-14.478-1.705 0-3.285.864-4.745 2.348-12.894 13.098-17.218 81.622-42.999 107.812-14.293 14.519-29.844 14.519-39.569 14.519z" fill="url(#p)"/><path d="M350.813 52.37a27.02 27.02 0 0 0-5.206.502c8.159 11.759 12.241 24.076 12.241 29.398 0 19.351-15.792 24.287-22.635 24.287-5.341 0-9.422-1.277-12.656-3.317l-.091.362c-.961 3.84-1.721 8.044-3.035 12.134-2.527 7.865-5.935 16.849-9.575 23.8-3.923 7.495-7.807 11.88-12.437 11.649-5.265-.261-9.533-7.044-14.839-26.214-1.711-6.181-3.295-12.958-4.764-19.612-3.641-16.506-8.112-33.103-15.755-47.77C249.576 33.635 228.279 26 211.276 26c-15.768 0-27.548 7.462-36.802 16.863-2.558 2.598-5.351 6.098-8.157 10.211 8.071 1.944 15.704 8.016 16.922 19.525.24 2.194 1.925 19.623 7.584 39.819 1.624-5.063 3.992-12.562 9.492-24.672 2.696-5.545 5.128-9.202 7.323-11.432 2.013-2.045 3.826-2.89 5.458-2.89 1.76 0 7.771 1.611 13.622 22.133 7.257 25.448 12.657 65.948 33.232 87.452 9.075 9.485 21.775 15.622 39.375 15.622 15.444 0 28.319-6.798 37.499-16.254 15.095-15.551 23.366-41.26 26.316-50.774 8.395-27.066 10.747-51.545 11.02-54.135 1.562-14.8-10.911-25.098-23.347-25.098z" fill="#316AFF"/><path d="M350.813 52.37a27.02 27.02 0 0 0-5.206.502c8.159 11.759 12.241 24.076 12.241 29.398 0 19.351-15.792 24.287-22.635 24.287-5.341 0-9.422-1.277-12.656-3.317l-.091.362c-.961 3.84-1.721 8.044-3.035 12.134-2.527 7.865-5.935 16.849-9.575 23.8-3.923 7.495-7.807 11.88-12.437 11.649-5.265-.261-9.533-7.044-14.839-26.214-1.711-6.181-3.295-12.958-4.764-19.612-3.641-16.506-8.112-33.103-15.755-47.77C249.576 33.635 228.279 26 211.276 26c-15.768 0-27.548 7.462-36.802 16.863-2.558 2.598-5.351 6.098-8.157 10.211 8.071 1.944 15.704 8.016 16.922 19.525.24 2.194 1.925 19.623 7.584 39.819 1.624-5.063 3.992-12.562 9.492-24.672 2.696-5.545 5.128-9.202 7.323-11.432 2.013-2.045 3.826-2.89 5.458-2.89 1.76 0 7.771 1.611 13.622 22.133 7.257 25.448 12.657 65.948 33.232 87.452 9.075 9.485 21.775 15.622 39.375 15.622 15.444 0 28.319-6.798 37.499-16.254 15.095-15.551 23.366-41.26 26.316-50.774 8.395-27.066 10.747-51.545 11.02-54.135 1.562-14.8-10.911-25.098-23.347-25.098z" fill="url(#q)"/><path d="M350.813 52.37a27.02 27.02 0 0 0-5.206.502c8.159 11.759 12.241 24.076 12.241 29.398 0 19.351-15.792 24.287-22.635 24.287-5.341 0-9.422-1.277-12.656-3.317l-.091.362c-.961 3.84-1.721 8.044-3.035 12.134-2.527 7.865-5.935 16.849-9.575 23.8-3.923 7.495-7.807 11.88-12.437 11.649-5.265-.261-9.533-7.044-14.839-26.214-1.711-6.181-3.295-12.958-4.764-19.612-3.641-16.506-8.112-33.103-15.755-47.77C249.576 33.635 228.279 26 211.276 26c-15.768 0-27.548 7.462-36.802 16.863-2.558 2.598-5.351 6.098-8.157 10.211 8.071 1.944 15.704 8.016 16.922 19.525.24 2.194 1.925 19.623 7.584 39.819 1.624-5.063 3.992-12.562 9.492-24.672 2.696-5.545 5.128-9.202 7.323-11.432 2.013-2.045 3.826-2.89 5.458-2.89 1.76 0 7.771 1.611 13.622 22.133 7.257 25.448 12.657 65.948 33.232 87.452 9.075 9.485 21.775 15.622 39.375 15.622 15.444 0 28.319-6.798 37.499-16.254 15.095-15.551 23.366-41.26 26.316-50.774 8.395-27.066 10.747-51.545 11.02-54.135 1.562-14.8-10.911-25.098-23.347-25.098z" fill="url(#r)"/><path d="M350.813 52.37a27.02 27.02 0 0 0-5.206.502c8.159 11.759 12.241 24.076 12.241 29.398 0 19.351-15.792 24.287-22.635 24.287-5.341 0-9.422-1.277-12.656-3.317l-.091.362c-.961 3.84-1.721 8.044-3.035 12.134-2.527 7.865-5.935 16.849-9.575 23.8-3.923 7.495-7.807 11.88-12.437 11.649-5.265-.261-9.533-7.044-14.839-26.214-1.711-6.181-3.295-12.958-4.764-19.612-3.641-16.506-8.112-33.103-15.755-47.77C249.576 33.635 228.279 26 211.276 26c-15.768 0-27.548 7.462-36.802 16.863-2.558 2.598-5.351 6.098-8.157 10.211 8.071 1.944 15.704 8.016 16.922 19.525.24 2.194 1.925 19.623 7.584 39.819 1.624-5.063 3.992-12.562 9.492-24.672 2.696-5.545 5.128-9.202 7.323-11.432 2.013-2.045 3.826-2.89 5.458-2.89 1.76 0 7.771 1.611 13.622 22.133 7.257 25.448 12.657 65.948 33.232 87.452 9.075 9.485 21.775 15.622 39.375 15.622 15.444 0 28.319-6.798 37.499-16.254 15.095-15.551 23.366-41.26 26.316-50.774 8.395-27.066 10.747-51.545 11.02-54.135 1.562-14.8-10.911-25.098-23.347-25.098z" fill="url(#s)"/><path d="M350.813 52.37a27.02 27.02 0 0 0-5.206.502c8.159 11.759 12.241 24.076 12.241 29.398 0 19.351-15.792 24.287-22.635 24.287-5.341 0-9.422-1.277-12.656-3.317l-.091.362c-.961 3.84-1.721 8.044-3.035 12.134-2.527 7.865-5.935 16.849-9.575 23.8-3.923 7.495-7.807 11.88-12.437 11.649-5.265-.261-9.533-7.044-14.839-26.214-1.711-6.181-3.295-12.958-4.764-19.612-3.641-16.506-8.112-33.103-15.755-47.77C249.576 33.635 228.279 26 211.276 26c-15.768 0-27.548 7.462-36.802 16.863-2.558 2.598-5.351 6.098-8.157 10.211 8.071 1.944 15.704 8.016 16.922 19.525.24 2.194 1.925 19.623 7.584 39.819 1.624-5.063 3.992-12.562 9.492-24.672 2.696-5.545 5.128-9.202 7.323-11.432 2.013-2.045 3.826-2.89 5.458-2.89 1.76 0 7.771 1.611 13.622 22.133 7.257 25.448 12.657 65.948 33.232 87.452 9.075 9.485 21.775 15.622 39.375 15.622 15.444 0 28.319-6.798 37.499-16.254 15.095-15.551 23.366-41.26 26.316-50.774 8.395-27.066 10.747-51.545 11.02-54.135 1.562-14.8-10.911-25.098-23.347-25.098z" fill="url(#t)"/><path d="M350.813 52.37a27.02 27.02 0 0 0-5.206.502c8.159 11.759 12.241 24.076 12.241 29.398 0 19.351-15.792 24.287-22.635 24.287-5.341 0-9.422-1.277-12.656-3.317l-.091.362c-.961 3.84-1.721 8.044-3.035 12.134-2.527 7.865-5.935 16.849-9.575 23.8-3.923 7.495-7.807 11.88-12.437 11.649-5.265-.261-9.533-7.044-14.839-26.214-1.711-6.181-3.295-12.958-4.764-19.612-3.641-16.506-8.112-33.103-15.755-47.77C249.576 33.635 228.279 26 211.276 26c-15.768 0-27.548 7.462-36.802 16.863-2.558 2.598-5.351 6.098-8.157 10.211 8.071 1.944 15.704 8.016 16.922 19.525.24 2.194 1.925 19.623 7.584 39.819 1.624-5.063 3.992-12.562 9.492-24.672 2.696-5.545 5.128-9.202 7.323-11.432 2.013-2.045 3.826-2.89 5.458-2.89 1.76 0 7.771 1.611 13.622 22.133 7.257 25.448 12.657 65.948 33.232 87.452 9.075 9.485 21.775 15.622 39.375 15.622 15.444 0 28.319-6.798 37.499-16.254 15.095-15.551 23.366-41.26 26.316-50.774 8.395-27.066 10.747-51.545 11.02-54.135 1.562-14.8-10.911-25.098-23.347-25.098z" fill="url(#u)"/><path d="M350.813 52.37a27.02 27.02 0 0 0-5.206.502c8.159 11.759 12.241 24.076 12.241 29.398 0 19.351-15.792 24.287-22.635 24.287-5.341 0-9.422-1.277-12.656-3.317l-.091.362c-.961 3.84-1.721 8.044-3.035 12.134-2.527 7.865-5.935 16.849-9.575 23.8-3.923 7.495-7.807 11.88-12.437 11.649-5.265-.261-9.533-7.044-14.839-26.214-1.711-6.181-3.295-12.958-4.764-19.612-3.641-16.506-8.112-33.103-15.755-47.77C249.576 33.635 228.279 26 211.276 26c-15.768 0-27.548 7.462-36.802 16.863-2.558 2.598-5.351 6.098-8.157 10.211 8.071 1.944 15.704 8.016 16.922 19.525.24 2.194 1.925 19.623 7.584 39.819 1.624-5.063 3.992-12.562 9.492-24.672 2.696-5.545 5.128-9.202 7.323-11.432 2.013-2.045 3.826-2.89 5.458-2.89 1.76 0 7.771 1.611 13.622 22.133 7.257 25.448 12.657 65.948 33.232 87.452 9.075 9.485 21.775 15.622 39.375 15.622 15.444 0 28.319-6.798 37.499-16.254 15.095-15.551 23.366-41.26 26.316-50.774 8.395-27.066 10.747-51.545 11.02-54.135 1.562-14.8-10.911-25.098-23.347-25.098z" fill="url(#v)"/><path d="M350.813 52.37a27.02 27.02 0 0 0-5.206.502c8.159 11.759 12.241 24.076 12.241 29.398 0 19.351-15.792 24.287-22.635 24.287-5.341 0-9.422-1.277-12.656-3.317l-.091.362c-.961 3.84-1.721 8.044-3.035 12.134-2.527 7.865-5.935 16.849-9.575 23.8-3.923 7.495-7.807 11.88-12.437 11.649-5.265-.261-9.533-7.044-14.839-26.214-1.711-6.181-3.295-12.958-4.764-19.612-3.641-16.506-8.112-33.103-15.755-47.77C249.576 33.635 228.279 26 211.276 26c-15.768 0-27.548 7.462-36.802 16.863-2.558 2.598-5.351 6.098-8.157 10.211 8.071 1.944 15.704 8.016 16.922 19.525.24 2.194 1.925 19.623 7.584 39.819 1.624-5.063 3.992-12.562 9.492-24.672 2.696-5.545 5.128-9.202 7.323-11.432 2.013-2.045 3.826-2.89 5.458-2.89 1.76 0 7.771 1.611 13.622 22.133 7.257 25.448 12.657 65.948 33.232 87.452 9.075 9.485 21.775 15.622 39.375 15.622 15.444 0 28.319-6.798 37.499-16.254 15.095-15.551 23.366-41.26 26.316-50.774 8.395-27.066 10.747-51.545 11.02-54.135 1.562-14.8-10.911-25.098-23.347-25.098z" fill="url(#w)"/><path d="M350.813 52.37a27.02 27.02 0 0 0-5.206.502c8.159 11.759 12.241 24.076 12.241 29.398 0 19.351-15.792 24.287-22.635 24.287-5.341 0-9.422-1.277-12.656-3.317l-.091.362c-.961 3.84-1.721 8.044-3.035 12.134-2.527 7.865-5.935 16.849-9.575 23.8-3.923 7.495-7.807 11.88-12.437 11.649-5.265-.261-9.533-7.044-14.839-26.214-1.711-6.181-3.295-12.958-4.764-19.612-3.641-16.506-8.112-33.103-15.755-47.77C249.576 33.635 228.279 26 211.276 26c-15.768 0-27.548 7.462-36.802 16.863-2.558 2.598-5.351 6.098-8.157 10.211 8.071 1.944 15.704 8.016 16.922 19.525.24 2.194 1.925 19.623 7.584 39.819 1.624-5.063 3.992-12.562 9.492-24.672 2.696-5.545 5.128-9.202 7.323-11.432 2.013-2.045 3.826-2.89 5.458-2.89 1.76 0 7.771 1.611 13.622 22.133 7.257 25.448 12.657 65.948 33.232 87.452 9.075 9.485 21.775 15.622 39.375 15.622 15.444 0 28.319-6.798 37.499-16.254 15.095-15.551 23.366-41.26 26.316-50.774 8.395-27.066 10.747-51.545 11.02-54.135 1.562-14.8-10.911-25.098-23.347-25.098z" fill="url(#x)"/><path d="M350.813 52.37a27.02 27.02 0 0 0-5.206.502c8.159 11.759 12.241 24.076 12.241 29.398 0 19.351-15.792 24.287-22.635 24.287-5.341 0-9.422-1.277-12.656-3.317l-.091.362c-.961 3.84-1.721 8.044-3.035 12.134-2.527 7.865-5.935 16.849-9.575 23.8-3.923 7.495-7.807 11.88-12.437 11.649-5.265-.261-9.533-7.044-14.839-26.214-1.711-6.181-3.295-12.958-4.764-19.612-3.641-16.506-8.112-33.103-15.755-47.77C249.576 33.635 228.279 26 211.276 26c-15.768 0-27.548 7.462-36.802 16.863-2.558 2.598-5.351 6.098-8.157 10.211 8.071 1.944 15.704 8.016 16.922 19.525.24 2.194 1.925 19.623 7.584 39.819 1.624-5.063 3.992-12.562 9.492-24.672 2.696-5.545 5.128-9.202 7.323-11.432 2.013-2.045 3.826-2.89 5.458-2.89 1.76 0 7.771 1.611 13.622 22.133 7.257 25.448 12.657 65.948 33.232 87.452 9.075 9.485 21.775 15.622 39.375 15.622 15.444 0 28.319-6.798 37.499-16.254 15.095-15.551 23.366-41.26 26.316-50.774 8.395-27.066 10.747-51.545 11.02-54.135 1.562-14.8-10.911-25.098-23.347-25.098z" fill="url(#y)"/><path d="M350.813 52.37a27.02 27.02 0 0 0-5.206.502c8.159 11.759 12.241 24.076 12.241 29.398 0 19.351-15.792 24.287-22.635 24.287-5.341 0-9.422-1.277-12.656-3.317l-.091.362c-.961 3.84-1.721 8.044-3.035 12.134-2.527 7.865-5.935 16.849-9.575 23.8-3.923 7.495-7.807 11.88-12.437 11.649-5.265-.261-9.533-7.044-14.839-26.214-1.711-6.181-3.295-12.958-4.764-19.612-3.641-16.506-8.112-33.103-15.755-47.77C249.576 33.635 228.279 26 211.276 26c-15.768 0-27.548 7.462-36.802 16.863-2.558 2.598-5.351 6.098-8.157 10.211 8.071 1.944 15.704 8.016 16.922 19.525.24 2.194 1.925 19.623 7.584 39.819 1.624-5.063 3.992-12.562 9.492-24.672 2.696-5.545 5.128-9.202 7.323-11.432 2.013-2.045 3.826-2.89 5.458-2.89 1.76 0 7.771 1.611 13.622 22.133 7.257 25.448 12.657 65.948 33.232 87.452 9.075 9.485 21.775 15.622 39.375 15.622 15.444 0 28.319-6.798 37.499-16.254 15.095-15.551 23.366-41.26 26.316-50.774 8.395-27.066 10.747-51.545 11.02-54.135 1.562-14.8-10.911-25.098-23.347-25.098z" fill="url(#z)"/><path d="M210.628 197.947c-43.939 0-58.894-55.539-62.245-66.344-8.415-27.131-10.973-51.57-11.244-54.135-1.563-14.8 10.313-25.098 23.346-25.098 9.869 0 21.323 5.905 22.84 20.23.264 2.41 2.269 23.191 9.367 45.834 7.407 23.632 15.265 32.72 20.923 32.72 9.138 0 14.714-23.459 19.643-45.795 3.631-16.457 7.557-33.04 15.306-47.77C262.048 31.963 282.422 26 300.022 26c38.595 0 57.911 44.693 57.911 56.272 0 19.35-15.791 24.286-22.635 24.286-14.969 0-20.044-10.025-24.315-18.812-3.842-7.905-7.854-14.478-13.042-14.478-1.705 0-3.285.864-4.745 2.348-12.894 13.098-17.218 81.622-42.999 107.812-14.293 14.519-29.844 14.519-39.569 14.519z" fill="url(#A)"/><path d="M210.628 197.947c-43.939 0-58.894-55.539-62.245-66.344-8.415-27.131-10.973-51.57-11.244-54.135-1.563-14.8 10.313-25.098 23.346-25.098 9.869 0 21.323 5.905 22.84 20.23.264 2.41 2.269 23.191 9.367 45.834 7.407 23.632 15.265 32.72 20.923 32.72 9.138 0 14.714-23.459 19.643-45.795 3.631-16.457 7.557-33.04 15.306-47.77C262.048 31.963 282.422 26 300.022 26c38.595 0 57.911 44.693 57.911 56.272 0 19.35-15.791 24.286-22.635 24.286-14.969 0-20.044-10.025-24.315-18.812-3.842-7.905-7.854-14.478-13.042-14.478-1.705 0-3.285.864-4.745 2.348-12.894 13.098-17.218 81.622-42.999 107.812-14.293 14.519-29.844 14.519-39.569 14.519z" fill="url(#B)"/><path d="M210.628 197.947c-43.939 0-58.894-55.539-62.245-66.344-8.415-27.131-10.973-51.57-11.244-54.135-1.563-14.8 10.313-25.098 23.346-25.098 9.869 0 21.323 5.905 22.84 20.23.264 2.41 2.269 23.191 9.367 45.834 7.407 23.632 15.265 32.72 20.923 32.72 9.138 0 14.714-23.459 19.643-45.795 3.631-16.457 7.557-33.04 15.306-47.77C262.048 31.963 282.422 26 300.022 26c38.595 0 57.911 44.693 57.911 56.272 0 19.35-15.791 24.286-22.635 24.286-14.969 0-20.044-10.025-24.315-18.812-3.842-7.905-7.854-14.478-13.042-14.478-1.705 0-3.285.864-4.745 2.348-12.894 13.098-17.218 81.622-42.999 107.812-14.293 14.519-29.844 14.519-39.569 14.519z" fill="url(#C)"/><path d="M210.628 197.947c-43.939 0-58.894-55.539-62.245-66.344-8.415-27.131-10.973-51.57-11.244-54.135-1.563-14.8 10.313-25.098 23.346-25.098 9.869 0 21.323 5.905 22.84 20.23.264 2.41 2.269 23.191 9.367 45.834 7.407 23.632 15.265 32.72 20.923 32.72 9.138 0 14.714-23.459 19.643-45.795 3.631-16.457 7.557-33.04 15.306-47.77C262.048 31.963 282.422 26 300.022 26c38.595 0 57.911 44.693 57.911 56.272 0 19.35-15.791 24.286-22.635 24.286-14.969 0-20.044-10.025-24.315-18.812-3.842-7.905-7.854-14.478-13.042-14.478-1.705 0-3.285.864-4.745 2.348-12.894 13.098-17.218 81.622-42.999 107.812-14.293 14.519-29.844 14.519-39.569 14.519z" fill="url(#D)"/><path d="M210.628 197.947c-43.939 0-58.894-55.539-62.245-66.344-8.415-27.131-10.973-51.57-11.244-54.135-1.563-14.8 10.313-25.098 23.346-25.098 9.869 0 21.323 5.905 22.84 20.23.264 2.41 2.269 23.191 9.367 45.834 7.407 23.632 15.265 32.72 20.923 32.72 9.138 0 14.714-23.459 19.643-45.795 3.631-16.457 7.557-33.04 15.306-47.77C262.048 31.963 282.422 26 300.022 26c38.595 0 57.911 44.693 57.911 56.272 0 19.35-15.791 24.286-22.635 24.286-14.969 0-20.044-10.025-24.315-18.812-3.842-7.905-7.854-14.478-13.042-14.478-1.705 0-3.285.864-4.745 2.348-12.894 13.098-17.218 81.622-42.999 107.812-14.293 14.519-29.844 14.519-39.569 14.519z" fill="url(#E)"/></g><defs><radialGradient id="c" cx="0" cy="0" r="1" gradientUnits="userSpaceOnUse" gradientTransform="matrix(-52.1578 -87.2426 73.2576 -43.7969 227.321 117.696)"><stop stop-color="#007383"/><stop offset=".408" stop-color="#00717E" stop-opacity=".75"/><stop offset=".874" stop-color="#007281" stop-opacity="0"/></radialGradient><radialGradient id="d" cx="0" cy="0" r="1" gradientUnits="userSpaceOnUse" gradientTransform="rotate(-126.749 171.827 -24.334) scale(82.8997 54.4776)"><stop stop-color="#218970"/><stop offset=".46" stop-color="#267E6A"/><stop offset="1" stop-color="#026C51" stop-opacity="0"/></radialGradient><radialGradient id="e" cx="0" cy="0" r="1" gradientUnits="userSpaceOnUse" gradientTransform="rotate(-107.477 155.661 -19.978) scale(67.5077 35.1848)"><stop stop-color="#178697"/><stop offset=".408" stop-color="#17838F" stop-opacity=".79"/><stop offset=".874" stop-color="#007281" stop-opacity="0"/></radialGradient><radialGradient id="f" cx="0" cy="0" r="1" gradientUnits="userSpaceOnUse" gradientTransform="rotate(-120.873 160.387 -10.259) scale(171.45 52.8995)"><stop stop-color="#25342F" stop-opacity=".3"/><stop offset="1" stop-color="#25342F" stop-opacity="0"/></radialGradient><radialGradient id="g" cx="0" cy="0" r="1" gradientUnits="userSpaceOnUse" gradientTransform="rotate(85.095 86.207 203.998) scale(64.5642 36.6389)"><stop stop-color="#056D4F"/><stop offset=".233" stop-color="#056C4E" stop-opacity=".75"/><stop offset=".599" stop-color="#056C4E" stop-opacity=".301"/><stop offset=".874" stop-color="#056C4F" stop-opacity="0"/></radialGradient><radialGradient id="h" cx="0" cy="0" r="1" gradientUnits="userSpaceOnUse" gradientTransform="matrix(41.2716 63.70765 -33.4218 21.65158 284.945 -3.752)"><stop stop-color="#22B67B"/><stop offset=".408" stop-color="#24BE82"/><stop offset="1" stop-color="#24BE82" stop-opacity=".07"/></radialGradient><radialGradient id="j" cx="0" cy="0" r="1" gradientUnits="userSpaceOnUse" gradientTransform="rotate(49.636 38.746 116.275) scale(99.1463 98.907)"><stop stop-color="#09F8FF"/><stop offset="1" stop-color="#0BF7F9" stop-opacity="0"/></radialGradient><radialGradient id="k" cx="0" cy="0" r="1" gradientUnits="userSpaceOnUse" gradientTransform="rotate(47.997 134.037 184.826) scale(201.092 200.786)"><stop stop-color="#00B8FF"/><stop offset=".745" stop-color="#00B9FC" stop-opacity="0"/></radialGradient><radialGradient id="l" cx="0" cy="0" r="1" gradientUnits="userSpaceOnUse" gradientTransform="matrix(-29.10439 -92.43669 64.07604 -20.17482 192.34 112.334)"><stop stop-color="#00BCFF" stop-opacity=".76"/><stop offset=".573" stop-color="#00BAFC" stop-opacity="0"/></radialGradient><radialGradient id="m" cx="0" cy="0" r="1" gradientUnits="userSpaceOnUse" gradientTransform="matrix(-43.65715 -52.83812 36.99561 -30.56738 339.741 75.529)"><stop stop-color="#5FEC50"/><stop offset="1" stop-color="#3CC08E" stop-opacity="0"/></radialGradient><radialGradient id="n" cx="0" cy="0" r="1" gradientUnits="userSpaceOnUse" gradientTransform="matrix(3.92705 -20.37144 14.09666 2.71745 329.927 119.666)"><stop stop-color="#28855B"/><stop offset="1" stop-color="#14795C" stop-opacity="0"/></radialGradient><radialGradient id="o" cx="0" cy="0" r="1" gradientUnits="userSpaceOnUse" gradientTransform="rotate(-77.874 237.573 -144.484) scale(17.1031 23.9137)"><stop stop-color="#28855B"/><stop offset="1" stop-color="#14795C" stop-opacity="0"/></radialGradient><radialGradient id="p" cx="0" cy="0" r="1" gradientUnits="userSpaceOnUse" gradientTransform="rotate(-132.805 193.73 -32.633) scale(56.7477 39.8674)"><stop stop-color="#5FF05B"/><stop offset=".813" stop-color="#5DE955" stop-opacity="0"/></radialGradient><radialGradient id="q" cx="0" cy="0" r="1" gradientUnits="userSpaceOnUse" gradientTransform="rotate(37.441 12.888 541) scale(50.4719 70.1453)"><stop stop-color="#123AA8"/><stop offset=".966" stop-color="#123AA8" stop-opacity="0"/></radialGradient><radialGradient id="r" cx="0" cy="0" r="1" gradientUnits="userSpaceOnUse" gradientTransform="rotate(8.482 -577.565 2205.612) scale(59.563 88.8619)"><stop stop-color="#123AA8"/><stop offset=".592" stop-color="#123AA8" stop-opacity="0"/></radialGradient><radialGradient id="s" cx="0" cy="0" r="1" gradientUnits="userSpaceOnUse" gradientTransform="matrix(46.23871 21.22022 -37.79928 82.36436 323.83 116.695)"><stop stop-color="#123AA8"/><stop offset=".757" stop-color="#123AA8" stop-opacity="0"/></radialGradient><radialGradient id="t" cx="0" cy="0" r="1" gradientUnits="userSpaceOnUse" gradientTransform="matrix(-9.24764 90.94977 -49.86699 -5.0704 317.855 119.708)"><stop stop-color="#123AA8"/><stop offset=".592" stop-color="#123AA8" stop-opacity="0"/><stop offset="1" stop-color="#123AA8" stop-opacity="0"/></radialGradient><radialGradient id="u" cx="0" cy="0" r="1" gradientUnits="userSpaceOnUse" gradientTransform="rotate(93.669 128.566 195.161) scale(110.019 39.2837)"><stop stop-color="#123AA8"/><stop offset=".885" stop-color="#123AA8" stop-opacity="0"/></radialGradient><radialGradient id="v" cx="0" cy="0" r="1" gradientUnits="userSpaceOnUse" gradientTransform="rotate(84.827 47.456 164.3) scale(58.381 30.9457)"><stop stop-color="#123AA8"/><stop offset=".885" stop-color="#123AA8" stop-opacity="0"/></radialGradient><radialGradient id="w" cx="0" cy="0" r="1" gradientUnits="userSpaceOnUse" gradientTransform="matrix(2.92446 60.85938 -50.2712 2.41567 206.766 103.793)"><stop stop-color="#123AA8"/><stop offset=".885" stop-color="#123AA8" stop-opacity="0"/></radialGradient><radialGradient id="x" cx="0" cy="0" r="1" gradientUnits="userSpaceOnUse" gradientTransform="matrix(62.49864 -26.73738 52.2435 122.1192 220.636 161.045)"><stop stop-color="#123AA8"/><stop offset=".709" stop-color="#123AA8" stop-opacity="0"/></radialGradient><radialGradient id="y" cx="0" cy="0" r="1" gradientUnits="userSpaceOnUse" gradientTransform="rotate(-159.536 106.247 26.718) scale(45.037 77.085)"><stop stop-color="#1A3DA0"/><stop offset=".709" stop-color="#123AA8" stop-opacity="0"/></radialGradient><radialGradient id="z" cx="0" cy="0" r="1" gradientUnits="userSpaceOnUse" gradientTransform="rotate(16.741 -275.75 584.94) scale(85.8999 86.6773)"><stop stop-color="#1E3882"/><stop offset=".761" stop-color="#123AA8" stop-opacity="0"/></radialGradient><radialGradient id="B" cx="0" cy="0" r="1" gradientUnits="userSpaceOnUse" gradientTransform="rotate(49.636 38.747 116.266) scale(99.1463 98.907)"><stop stop-color="#09F8FF"/><stop offset="1" stop-color="#0BF7F9" stop-opacity="0"/></radialGradient><radialGradient id="E" cx="0" cy="0" r="1" gradientUnits="userSpaceOnUse" gradientTransform="matrix(-29.10439 -92.43669 64.07604 -20.17482 192.337 112.335)"><stop stop-color="#00BCFF" stop-opacity=".76"/><stop offset=".573" stop-color="#00BAFC" stop-opacity="0"/></radialGradient><linearGradient id="b" x1="333.891" y1="76.449" x2="178.689" y2="127.375" gradientUnits="userSpaceOnUse"><stop stop-color="#5CEE64"/><stop offset="1" stop-color="#0BF"/></linearGradient><linearGradient id="i" x1="78.615" y1="110.474" x2="188.615" y2="111.379" gradientUnits="userSpaceOnUse"><stop stop-color="#09F8FF"/><stop offset="1" stop-color="#0BF7F9" stop-opacity="0"/></linearGradient><linearGradient id="A" x1="129.856" y1="56.728" x2="214.48" y2="110.768" gradientUnits="userSpaceOnUse"><stop offset=".229" stop-color="#1DC4FF"/><stop offset="1" stop-color="#1CC1FF" stop-opacity="0"/></linearGradient><linearGradient id="C" x1="134.535" y1="59.487" x2="158.268" y2="81.013" gradientUnits="userSpaceOnUse"><stop stop-color="#26FBFF"/><stop offset=".637" stop-color="#0BF7F9" stop-opacity="0"/></linearGradient><linearGradient id="D" x1="128.227" y1="75.954" x2="161.069" y2="78.298" gradientUnits="userSpaceOnUse"><stop stop-color="#26FBFF"/><stop offset=".637" stop-color="#0BF7F9" stop-opacity="0"/></linearGradient><clipPath id="a"><path fill="#fff" d="M0 0h592v325H0z"/></clipPath></defs></svg>