<?xml version="1.0" encoding="utf-8"?>
<!-- Generator: Adobe Illustrator 24.1.2, SVG Export Plug-In . SVG Version: 6.00 Build 0)  -->
<svg version="1.1" id="Layer_1" xmlns="http://www.w3.org/2000/svg" xmlns:xlink="http://www.w3.org/1999/xlink" x="0px" y="0px"
	 viewBox="0 0 400 140.7" style="enable-background:new 0 0 400 140.7;" xml:space="preserve">
<style type="text/css">
	.st0{fill:#86C555;}
	.st1{fill:#0A93D1;}
</style>
<g>
	<path d="M39.5,27.5c0,4.5-3.4,17-18.1,17C8.6,44.5,0.5,36,0.5,22.3C0.5,9.3,8.8,0,21.4,0c14.6,0,17.9,11,18,15h-6.1
		c-0.2-4-3.5-10.2-11.8-10.2c-9.8,0-14.7,8-14.7,17.5c0,10.1,5.4,17.5,14.7,17.5c9,0,11.8-7.8,12-12.3H39.5z"/>
	<path d="M54.2,6.8h-5.8V1h5.8V6.8z M48.5,12.7h5.7v30.8h-5.7V12.7z"/>
	<path d="M88.7,21.7H83c0-2.7-2.2-5.2-7-5.2c-4,0-6.3,1.3-6.3,3.8c0,2.7,3.5,3.8,8,5.1c5.1,1.4,12,3,12,9.5c0,5.1-3.6,9.5-13.7,9.5
		c-9.4,0-13.3-4.9-13.3-10.8h5.8c0,3.4,2.8,6.2,7.6,6.2c5.7,0,7.7-1.8,7.7-4.1c0-2.6-2.6-3.9-8.3-5.5c-5.8-1.7-11.8-3.3-11.8-10.1
		c0-4.2,3.7-8.2,11.9-8.2C86.5,11.9,88.5,17.9,88.7,21.7"/>
	<path d="M123.6,33.5c-0.4,2.6-2.4,10.8-13.3,10.8c-8.8,0-15.1-6.3-15.1-16.2c0-9.9,6.4-16.3,15.1-16.3c10.5,0,12.9,7.4,13.2,9.8
		h-5.7c-0.9-2.7-3.2-5.1-7.4-5.1c-5.9,0-9.3,5-9.3,11.5c0,5.5,2.8,11.4,9.2,11.4c5.9,0,7.3-4.5,7.7-6.1H123.6z"/>
	<path d="M129.5,28.2c0-9.9,6.4-16.3,15.1-16.3c8.8,0,15.2,6.3,15.2,16.3c0,10.1-6.6,16.2-15.2,16.2
		C135.9,44.4,129.5,38.1,129.5,28.2 M144.6,39.6c6.1,0,9.2-5.4,9.2-11.4c0-6.2-3.2-11.5-9.2-11.5c-5.9,0-9.3,5-9.3,11.5
		C135.4,33.7,138.2,39.6,144.6,39.6"/>
	<polygon class="st0" points="90.3,63.1 73.6,124.4 73.5,124.4 56,63.1 45.1,63.1 28.9,124.3 11.3,63.1 0,63.1 0.2,63.6 23.1,138.6 
		34.8,138.6 50.4,80.3 67.7,138.6 78.2,138.6 100.8,63.1 	"/>
	<path class="st0" d="M162.1,72.2c-7-7.4-15.9-11.1-26.7-11.1c-10.8,0-19.7,3.7-26.7,11.1c-7,7.4-10.5,17-10.5,28.8
		c0,11.6,3.5,21.2,10.5,28.6c7,7.4,15.9,11.1,26.7,11.1c12.6,0,22.1-4,28.4-12.2c3.1-4,5.3-8.8,6.4-14.5l0.1-0.5h-10l-0.1,0.3
		c-0.8,4.1-2.7,7.7-5.8,11.1c-4.6,4.9-10.9,7.4-19.1,7.4c-8,0-14.4-2.9-19.4-8.8c-4.3-5.2-6.7-11.8-7.2-19.7h63.8V101h0
		C172.6,89.2,169.1,79.6,162.1,72.2 M109.1,95.6c0.6-7.3,3.2-13.5,8-18.5c4.9-5.1,10.9-7.6,18.2-7.6c7.6,0,13.9,2.7,18.9,8.1
		c4.5,4.9,7,10.9,7.5,18H109.1z"/>
	<path class="st0" d="M242.5,72c-7-7.3-15.9-11-26.7-11c-12,0-20.9,4.4-26.6,13.3V34.6h-9.8v77.4c0,10.2-0.2,18.9-0.7,26.1l0,0.4
		h9.2l0.8-12.1c6.3,9.4,15.5,14.1,27.4,14.1c10.9,0,19.8-3.7,26.7-11c6.9-7.4,10.4-16.9,10.4-28.7C253,89,249.5,79.4,242.5,72
		 M242.7,100.9c0,8.6-2.3,15.8-6.8,21.7c-5,6.5-11.6,9.7-20,9.7c-8,0-14.4-3-19.4-9.1c-4.9-5.8-7.3-13.2-7.3-22.3
		c0-8.6,2.2-15.8,6.7-21.7c4.9-6.6,11.6-9.8,20-9.8c8.2,0,14.8,3.1,19.8,9.4C240.4,84.7,242.7,92.1,242.7,100.9"/>
	<path class="st1" d="M322.5,72.2c-7-7.4-15.9-11.1-26.7-11.1c-10.8,0-19.7,3.7-26.7,11.1c-7,7.4-10.5,17-10.5,28.8
		c0,11.6,3.5,21.2,10.5,28.6c7,7.4,15.9,11.1,26.7,11.1h0c12.6,0,22.1-4,28.4-12.2c3.1-4,5.3-8.8,6.4-14.5l0.1-0.5h-10l-0.1,0.3
		c-0.8,4.1-2.7,7.7-5.8,11.1c-4.6,4.9-10.9,7.4-19.1,7.4c-8,0-14.4-2.9-19.3-8.8c-4.3-5.2-6.7-11.8-7.2-19.7H333v-2.9h0
		C333,89.2,329.5,79.6,322.5,72.2 M269.5,95.6c0.6-7.3,3.2-13.5,8-18.5c4.9-5.1,10.9-7.6,18.2-7.6c7.6,0,13.9,2.7,18.9,8.1
		c4.5,4.9,7,10.9,7.5,18H269.5z"/>
	<polygon class="st1" points="370.3,99.4 397.3,63.1 386.5,63.1 365,92.3 342.9,63.1 342.7,63.1 331.9,63.1 359.1,99.6 329.6,138.6 
		340.6,138.6 364.4,106.4 388.6,138.6 400,138.6 	"/>
</g>
</svg>
